<svg version="1.1" viewBox="0.0 0.0 610.8687664041995 430.50918635170603" fill="none" stroke="none" stroke-linecap="square" stroke-miterlimit="10" xmlns:xlink="http://www.w3.org/1999/xlink" xmlns="http://www.w3.org/2000/svg"><clipPath id="p.0"><path d="m0 0l610.8688 0l0 430.5092l-610.8688 0l0 -430.5092z" clip-rule="nonzero"/></clipPath><g clip-path="url(#p.0)"><path fill="#000000" fill-opacity="0.0" d="m0 0l610.8688 0l0 430.5092l-610.8688 0z" fill-rule="evenodd"/><path fill="#000000" fill-opacity="0.0" d="m41.105747 103.62469l158.96063 120.44094" fill-rule="evenodd"/><path stroke="#595959" stroke-width="1.0" stroke-linejoin="round" stroke-linecap="butt" d="m41.105747 103.62469l158.96063 120.44094" fill-rule="evenodd"/><path fill="#000000" fill-opacity="0.0" d="m385.14987 224.06563l-155.811 -111.87401" fill-rule="evenodd"/><path stroke="#595959" stroke-width="1.0" stroke-linejoin="round" stroke-linecap="butt" d="m385.14987 224.06563l-155.811 -111.87401" fill-rule="evenodd"/><path fill="#000000" fill-opacity="0.0" d="m385.14987 166.67297l-160.12598 -58.771645" fill-rule="evenodd"/><path stroke="#595959" stroke-width="1.0" stroke-linejoin="round" stroke-linecap="butt" d="m385.14987 166.67297l-160.12598 -58.771645" fill-rule="evenodd"/><path fill="#000000" fill-opacity="0.0" d="m43.296947 110.04462l184.94489 173.13385" fill-rule="evenodd"/><path stroke="#595959" stroke-width="1.0" stroke-linejoin="round" stroke-linecap="butt" d="m43.296947 110.04462l184.94489 173.13385" fill-rule="evenodd"/><path fill="#000000" fill-opacity="0.0" d="m37.922394 403.46088l184.94489 -6.2991943" fill-rule="evenodd"/><path stroke="#595959" stroke-width="1.0" stroke-linejoin="round" stroke-linecap="butt" d="m37.922394 403.46088l184.94489 -6.2991943" fill-rule="evenodd"/><path fill="#000000" fill-opacity="0.0" d="m402.45444 113.27034l-176.34647 222.58269" fill-rule="evenodd"/><path stroke="#595959" stroke-width="1.0" stroke-linejoin="round" stroke-linecap="butt" d="m402.45444 113.27034l-176.34647 222.58269" fill-rule="evenodd"/><path fill="#000000" fill-opacity="0.0" d="m233.63028 342.31497l177.41733 -174.20474" fill-rule="evenodd"/><path stroke="#595959" stroke-width="1.0" stroke-linejoin="round" stroke-linecap="butt" d="m233.63028 342.31497l177.41733 -174.20474" fill-rule="evenodd"/><path fill="#000000" fill-opacity="0.0" d="m228.25233 283.1706l182.80315 -63.43306" fill-rule="evenodd"/><path stroke="#595959" stroke-width="1.0" stroke-linejoin="round" stroke-linecap="butt" d="m228.25233 283.1706l182.80315 -63.43306" fill-rule="evenodd"/><path fill="#000000" fill-opacity="0.0" d="m229.32845 162.73491l178.5197 178.5197" fill-rule="evenodd"/><path stroke="#595959" stroke-width="1.0" stroke-linejoin="round" stroke-linecap="butt" d="m229.32845 162.73491l178.5197 178.5197" fill-rule="evenodd"/><path fill="#000000" fill-opacity="0.0" d="m44.454826 280.0417l155.65353 0.72442627" fill-rule="evenodd"/><path stroke="#595959" stroke-width="1.0" stroke-linejoin="round" stroke-linecap="butt" d="m44.454826 280.0417l155.65353 0.72442627" fill-rule="evenodd"/><path fill="#000000" fill-opacity="0.0" d="m226.12537 226.21423l166.33072 -100.85039" fill-rule="evenodd"/><path stroke="#595959" stroke-width="1.0" stroke-linejoin="round" stroke-linecap="butt" d="m226.12537 226.21423l166.33072 -100.85039" fill-rule="evenodd"/><path fill="#000000" fill-opacity="0.0" d="m43.34197 219.76096l156.72441 61.700806" fill-rule="evenodd"/><path stroke="#595959" stroke-width="1.0" stroke-linejoin="round" stroke-linecap="butt" d="m43.34197 219.76096l156.72441 61.700806" fill-rule="evenodd"/><path fill="#000000" fill-opacity="0.0" d="m43.296947 222.95276l174.20473 -51.59056" fill-rule="evenodd"/><path stroke="#595959" stroke-width="1.0" stroke-linejoin="round" stroke-linecap="butt" d="m43.296947 222.95276l174.20473 -51.59056" fill-rule="evenodd"/><path fill="#000000" fill-opacity="0.0" d="m37.92162 393.92914l179.55907 -113.98425" fill-rule="evenodd"/><path stroke="#595959" stroke-width="1.0" stroke-linejoin="round" stroke-linecap="butt" d="m37.92162 393.92914l179.55907 -113.98425" fill-rule="evenodd"/><path fill="#000000" fill-opacity="0.0" d="m43.296947 219.72704l172.06299 173.13387" fill-rule="evenodd"/><path stroke="#595959" stroke-width="1.0" stroke-linejoin="round" stroke-linecap="butt" d="m43.296947 219.72704l172.06299 173.13387" fill-rule="evenodd"/><path fill="#000000" fill-opacity="0.0" d="m44.412834 165.94858l155.65353 0.72439575" fill-rule="evenodd"/><path stroke="#595959" stroke-width="1.0" stroke-linejoin="round" stroke-linecap="butt" d="m44.412834 165.94858l155.65353 0.72439575" fill-rule="evenodd"/><path fill="#000000" fill-opacity="0.0" d="m42.220833 218.65092l165.5748 3.2125854" fill-rule="evenodd"/><path stroke="#595959" stroke-width="1.0" stroke-linejoin="round" stroke-linecap="butt" d="m42.220833 218.65092l165.5748 3.2125854" fill-rule="evenodd"/><path fill="#eeeeee" d="m14.982866 103.83201l0 0c0 -13.77668 11.168203 -24.944878 24.944883 -24.944878l0 0c6.6157913 0 12.960621 2.6281128 17.638695 7.306183c4.67807 4.67807 7.306183 11.022903 7.306183 17.638695l0 0c0 13.77668 -11.168201 24.944878 -24.944878 24.944878l0 0c-13.77668 0 -24.944883 -11.168198 -24.944883 -24.944878z" fill-rule="evenodd"/><path stroke="#595959" stroke-width="1.0" stroke-linejoin="round" stroke-linecap="butt" d="m14.982866 103.83201l0 0c0 -13.77668 11.168203 -24.944878 24.944883 -24.944878l0 0c6.6157913 0 12.960621 2.6281128 17.638695 7.306183c4.67807 4.67807 7.306183 11.022903 7.306183 17.638695l0 0c0 13.77668 -11.168201 24.944878 -24.944878 24.944878l0 0c-13.77668 0 -24.944883 -11.168198 -24.944883 -24.944878z" fill-rule="evenodd"/><path fill="#eeeeee" d="m14.982866 162.77985l0 0c0 -13.776688 11.168203 -24.944885 24.944883 -24.944885l0 0c6.6157913 0 12.960621 2.6281128 17.638695 7.306183c4.67807 4.67807 7.306183 11.022903 7.306183 17.638702l0 0c0 13.776672 -11.168201 24.94487 -24.944878 24.94487l0 0c-13.77668 0 -24.944883 -11.168198 -24.944883 -24.94487z" fill-rule="evenodd"/><path stroke="#595959" stroke-width="1.0" stroke-linejoin="round" stroke-linecap="butt" d="m14.982866 162.77985l0 0c0 -13.776688 11.168203 -24.944885 24.944883 -24.944885l0 0c6.6157913 0 12.960621 2.6281128 17.638695 7.306183c4.67807 4.67807 7.306183 11.022903 7.306183 17.638702l0 0c0 13.776672 -11.168201 24.94487 -24.944878 24.94487l0 0c-13.77668 0 -24.944883 -11.168198 -24.944883 -24.94487z" fill-rule="evenodd"/><path fill="#eeeeee" d="m14.982866 220.17249l0 0c0 -13.776672 11.168203 -24.94487 24.944883 -24.94487l0 0c6.6157913 0 12.960621 2.6281128 17.638695 7.306183c4.67807 4.67807 7.306183 11.022903 7.306183 17.638687l0 0c0 13.776688 -11.168201 24.944885 -24.944878 24.944885l0 0c-13.77668 0 -24.944883 -11.168198 -24.944883 -24.944885z" fill-rule="evenodd"/><path stroke="#595959" stroke-width="1.0" stroke-linejoin="round" stroke-linecap="butt" d="m14.982866 220.17249l0 0c0 -13.776672 11.168203 -24.94487 24.944883 -24.94487l0 0c6.6157913 0 12.960621 2.6281128 17.638695 7.306183c4.67807 4.67807 7.306183 11.022903 7.306183 17.638687l0 0c0 13.776688 -11.168201 24.944885 -24.944878 24.944885l0 0c-13.77668 0 -24.944883 -11.168198 -24.944883 -24.944885z" fill-rule="evenodd"/><path fill="#eeeeee" d="m14.982866 277.5686l0 0c0 -13.776672 11.168203 -24.94487 24.944883 -24.94487l0 0c6.6157913 0 12.960621 2.6281128 17.638695 7.3061676c4.67807 4.67807 7.306183 11.022919 7.306183 17.638702l0 0c0 13.776672 -11.168201 24.944885 -24.944878 24.944885l0 0c-13.77668 0 -24.944883 -11.168213 -24.944883 -24.944885z" fill-rule="evenodd"/><path stroke="#595959" stroke-width="1.0" stroke-linejoin="round" stroke-linecap="butt" d="m14.982866 277.5686l0 0c0 -13.776672 11.168203 -24.94487 24.944883 -24.94487l0 0c6.6157913 0 12.960621 2.6281128 17.638695 7.3061676c4.67807 4.67807 7.306183 11.022919 7.306183 17.638702l0 0c0 13.776672 -11.168201 24.944885 -24.944878 24.944885l0 0c-13.77668 0 -24.944883 -11.168213 -24.944883 -24.944885z" fill-rule="evenodd"/><path fill="#eeeeee" d="m14.982866 336.51645l0 0c0 -13.776703 11.168203 -24.944885 24.944883 -24.944885l0 0c6.6157913 0 12.960621 2.6281128 17.638695 7.306183c4.67807 4.67807 7.306183 11.022888 7.306183 17.638702l0 0c0 13.776672 -11.168201 24.944885 -24.944878 24.944885l0 0c-13.77668 0 -24.944883 -11.168213 -24.944883 -24.944885z" fill-rule="evenodd"/><path stroke="#595959" stroke-width="1.0" stroke-linejoin="round" stroke-linecap="butt" d="m14.982866 336.51645l0 0c0 -13.776703 11.168203 -24.944885 24.944883 -24.944885l0 0c6.6157913 0 12.960621 2.6281128 17.638695 7.306183c4.67807 4.67807 7.306183 11.022888 7.306183 17.638702l0 0c0 13.776672 -11.168201 24.944885 -24.944878 24.944885l0 0c-13.77668 0 -24.944883 -11.168213 -24.944883 -24.944885z" fill-rule="evenodd"/><path fill="#eeeeee" d="m14.982866 393.91257l0 0c0 -13.776703 11.168203 -24.944885 24.944883 -24.944885l0 0c6.6157913 0 12.960621 2.6281128 17.638695 7.306183c4.67807 4.67807 7.306183 11.022888 7.306183 17.638702l0 0c0 13.776672 -11.168201 24.944855 -24.944878 24.944855l0 0c-13.77668 0 -24.944883 -11.168182 -24.944883 -24.944855z" fill-rule="evenodd"/><path stroke="#595959" stroke-width="1.0" stroke-linejoin="round" stroke-linecap="butt" d="m14.982866 393.91257l0 0c0 -13.776703 11.168203 -24.944885 24.944883 -24.944885l0 0c6.6157913 0 12.960621 2.6281128 17.638695 7.306183c4.67807 4.67807 7.306183 11.022888 7.306183 17.638702l0 0c0 13.776672 -11.168201 24.944855 -24.944878 24.944855l0 0c-13.77668 0 -24.944883 -11.168182 -24.944883 -24.944855z" fill-rule="evenodd"/><path fill="#eeeeee" d="m200.06638 107.72515l0 0c0 -13.77668 11.168198 -24.944885 24.944885 -24.944885l0 0c6.6157837 0 12.960617 2.6281128 17.638687 7.3061905c4.6780853 4.67807 7.306198 11.022903 7.306198 17.638695l0 0c0 13.77668 -11.168213 24.944878 -24.944885 24.944878l0 0c-13.776688 0 -24.944885 -11.168198 -24.944885 -24.944878z" fill-rule="evenodd"/><path stroke="#595959" stroke-width="1.0" stroke-linejoin="round" stroke-linecap="butt" d="m200.06638 107.72515l0 0c0 -13.77668 11.168198 -24.944885 24.944885 -24.944885l0 0c6.6157837 0 12.960617 2.6281128 17.638687 7.3061905c4.6780853 4.67807 7.306198 11.022903 7.306198 17.638695l0 0c0 13.77668 -11.168213 24.944878 -24.944885 24.944878l0 0c-13.776688 0 -24.944885 -11.168198 -24.944885 -24.944878z" fill-rule="evenodd"/><path fill="#eeeeee" d="m200.06638 166.67297l0 0c0 -13.776672 11.168198 -24.94487 24.944885 -24.94487l0 0c6.6157837 0 12.960617 2.6281128 17.638687 7.306183c4.6780853 4.67807 7.306198 11.022903 7.306198 17.638687l0 0c0 13.776688 -11.168213 24.944885 -24.944885 24.944885l0 0c-13.776688 0 -24.944885 -11.168198 -24.944885 -24.944885z" fill-rule="evenodd"/><path stroke="#595959" stroke-width="1.0" stroke-linejoin="round" stroke-linecap="butt" d="m200.06638 166.67297l0 0c0 -13.776672 11.168198 -24.94487 24.944885 -24.94487l0 0c6.6157837 0 12.960617 2.6281128 17.638687 7.306183c4.6780853 4.67807 7.306198 11.022903 7.306198 17.638687l0 0c0 13.776688 -11.168213 24.944885 -24.944885 24.944885l0 0c-13.776688 0 -24.944885 -11.168198 -24.944885 -24.944885z" fill-rule="evenodd"/><path fill="#eeeeee" d="m200.06638 224.06563l0 0c0 -13.776672 11.168198 -24.94487 24.944885 -24.94487l0 0c6.6157837 0 12.960617 2.6281128 17.638687 7.306183c4.6780853 4.67807 7.306198 11.022903 7.306198 17.638687l0 0c0 13.776688 -11.168213 24.944885 -24.944885 24.944885l0 0c-13.776688 0 -24.944885 -11.168198 -24.944885 -24.944885z" fill-rule="evenodd"/><path stroke="#595959" stroke-width="1.0" stroke-linejoin="round" stroke-linecap="butt" d="m200.06638 224.06563l0 0c0 -13.776672 11.168198 -24.94487 24.944885 -24.94487l0 0c6.6157837 0 12.960617 2.6281128 17.638687 7.306183c4.6780853 4.67807 7.306198 11.022903 7.306198 17.638687l0 0c0 13.776688 -11.168213 24.944885 -24.944885 24.944885l0 0c-13.776688 0 -24.944885 -11.168198 -24.944885 -24.944885z" fill-rule="evenodd"/><path fill="#eeeeee" d="m200.06638 281.46176l0 0c0 -13.776703 11.168198 -24.944885 24.944885 -24.944885l0 0c6.6157837 0 12.960617 2.6281128 17.638687 7.306183c4.6780853 4.67807 7.306198 11.022888 7.306198 17.638702l0 0c0 13.776672 -11.168213 24.944855 -24.944885 24.944855l0 0c-13.776688 0 -24.944885 -11.168182 -24.944885 -24.944855z" fill-rule="evenodd"/><path stroke="#595959" stroke-width="1.0" stroke-linejoin="round" stroke-linecap="butt" d="m200.06638 281.46176l0 0c0 -13.776703 11.168198 -24.944885 24.944885 -24.944885l0 0c6.6157837 0 12.960617 2.6281128 17.638687 7.306183c4.6780853 4.67807 7.306198 11.022888 7.306198 17.638702l0 0c0 13.776672 -11.168213 24.944855 -24.944885 24.944855l0 0c-13.776688 0 -24.944885 -11.168182 -24.944885 -24.944855z" fill-rule="evenodd"/><path fill="#eeeeee" d="m200.06638 340.40958l0 0c0 -13.776672 11.168198 -24.944885 24.944885 -24.944885l0 0c6.6157837 0 12.960617 2.6281128 17.638687 7.306183c4.6780853 4.67807 7.306198 11.022919 7.306198 17.638702l0 0c0 13.776672 -11.168213 24.944885 -24.944885 24.944885l0 0c-13.776688 0 -24.944885 -11.168213 -24.944885 -24.944885z" fill-rule="evenodd"/><path stroke="#595959" stroke-width="1.0" stroke-linejoin="round" stroke-linecap="butt" d="m200.06638 340.40958l0 0c0 -13.776672 11.168198 -24.944885 24.944885 -24.944885l0 0c6.6157837 0 12.960617 2.6281128 17.638687 7.306183c4.6780853 4.67807 7.306198 11.022919 7.306198 17.638702l0 0c0 13.776672 -11.168213 24.944885 -24.944885 24.944885l0 0c-13.776688 0 -24.944885 -11.168213 -24.944885 -24.944885z" fill-rule="evenodd"/><path fill="#eeeeee" d="m200.06638 397.8057l0 0c0 -13.776672 11.168198 -24.944885 24.944885 -24.944885l0 0c6.6157837 0 12.960617 2.6281128 17.638687 7.306183c4.6780853 4.67807 7.306198 11.022919 7.306198 17.638702l0 0c0 13.776672 -11.168213 24.944885 -24.944885 24.944885l0 0c-13.776688 0 -24.944885 -11.168213 -24.944885 -24.944885z" fill-rule="evenodd"/><path stroke="#595959" stroke-width="1.0" stroke-linejoin="round" stroke-linecap="butt" d="m200.06638 397.8057l0 0c0 -13.776672 11.168198 -24.944885 24.944885 -24.944885l0 0c6.6157837 0 12.960617 2.6281128 17.638687 7.306183c4.6780853 4.67807 7.306198 11.022919 7.306198 17.638702l0 0c0 13.776672 -11.168213 24.944885 -24.944885 24.944885l0 0c-13.776688 0 -24.944885 -11.168213 -24.944885 -24.944885z" fill-rule="evenodd"/><path fill="#eeeeee" d="m385.14987 107.72515l0 0c0 -13.77668 11.168213 -24.944885 24.944885 -24.944885l0 0c6.615814 0 12.960632 2.6281128 17.638702 7.3061905c4.67807 4.67807 7.306183 11.022903 7.306183 17.638695l0 0c0 13.77668 -11.168182 24.944878 -24.944885 24.944878l0 0c-13.776672 0 -24.944885 -11.168198 -24.944885 -24.944878z" fill-rule="evenodd"/><path stroke="#595959" stroke-width="1.0" stroke-linejoin="round" stroke-linecap="butt" d="m385.14987 107.72515l0 0c0 -13.77668 11.168213 -24.944885 24.944885 -24.944885l0 0c6.615814 0 12.960632 2.6281128 17.638702 7.3061905c4.67807 4.67807 7.306183 11.022903 7.306183 17.638695l0 0c0 13.77668 -11.168182 24.944878 -24.944885 24.944878l0 0c-13.776672 0 -24.944885 -11.168198 -24.944885 -24.944878z" fill-rule="evenodd"/><path fill="#eeeeee" d="m385.14987 166.67297l0 0c0 -13.776672 11.168213 -24.94487 24.944885 -24.94487l0 0c6.615814 0 12.960632 2.6281128 17.638702 7.306183c4.67807 4.67807 7.306183 11.022903 7.306183 17.638687l0 0c0 13.776688 -11.168182 24.944885 -24.944885 24.944885l0 0c-13.776672 0 -24.944885 -11.168198 -24.944885 -24.944885z" fill-rule="evenodd"/><path stroke="#595959" stroke-width="1.0" stroke-linejoin="round" stroke-linecap="butt" d="m385.14987 166.67297l0 0c0 -13.776672 11.168213 -24.94487 24.944885 -24.94487l0 0c6.615814 0 12.960632 2.6281128 17.638702 7.306183c4.67807 4.67807 7.306183 11.022903 7.306183 17.638687l0 0c0 13.776688 -11.168182 24.944885 -24.944885 24.944885l0 0c-13.776672 0 -24.944885 -11.168198 -24.944885 -24.944885z" fill-rule="evenodd"/><path fill="#eeeeee" d="m385.14987 224.06563l0 0c0 -13.776672 11.168213 -24.94487 24.944885 -24.94487l0 0c6.615814 0 12.960632 2.6281128 17.638702 7.306183c4.67807 4.67807 7.306183 11.022903 7.306183 17.638687l0 0c0 13.776688 -11.168182 24.944885 -24.944885 24.944885l0 0c-13.776672 0 -24.944885 -11.168198 -24.944885 -24.944885z" fill-rule="evenodd"/><path stroke="#595959" stroke-width="1.0" stroke-linejoin="round" stroke-linecap="butt" d="m385.14987 224.06563l0 0c0 -13.776672 11.168213 -24.94487 24.944885 -24.94487l0 0c6.615814 0 12.960632 2.6281128 17.638702 7.306183c4.67807 4.67807 7.306183 11.022903 7.306183 17.638687l0 0c0 13.776688 -11.168182 24.944885 -24.944885 24.944885l0 0c-13.776672 0 -24.944885 -11.168198 -24.944885 -24.944885z" fill-rule="evenodd"/><path fill="#eeeeee" d="m385.14987 281.46176l0 0c0 -13.776703 11.168213 -24.944885 24.944885 -24.944885l0 0c6.615814 0 12.960632 2.6281128 17.638702 7.306183c4.67807 4.67807 7.306183 11.022888 7.306183 17.638702l0 0c0 13.776672 -11.168182 24.944855 -24.944885 24.944855l0 0c-13.776672 0 -24.944885 -11.168182 -24.944885 -24.944855z" fill-rule="evenodd"/><path stroke="#595959" stroke-width="1.0" stroke-linejoin="round" stroke-linecap="butt" d="m385.14987 281.46176l0 0c0 -13.776703 11.168213 -24.944885 24.944885 -24.944885l0 0c6.615814 0 12.960632 2.6281128 17.638702 7.306183c4.67807 4.67807 7.306183 11.022888 7.306183 17.638702l0 0c0 13.776672 -11.168182 24.944855 -24.944885 24.944855l0 0c-13.776672 0 -24.944885 -11.168182 -24.944885 -24.944855z" fill-rule="evenodd"/><path fill="#eeeeee" d="m385.14987 340.40958l0 0c0 -13.776672 11.168213 -24.944885 24.944885 -24.944885l0 0c6.615814 0 12.960632 2.6281128 17.638702 7.306183c4.67807 4.67807 7.306183 11.022919 7.306183 17.638702l0 0c0 13.776672 -11.168182 24.944885 -24.944885 24.944885l0 0c-13.776672 0 -24.944885 -11.168213 -24.944885 -24.944885z" fill-rule="evenodd"/><path stroke="#595959" stroke-width="1.0" stroke-linejoin="round" stroke-linecap="butt" d="m385.14987 340.40958l0 0c0 -13.776672 11.168213 -24.944885 24.944885 -24.944885l0 0c6.615814 0 12.960632 2.6281128 17.638702 7.306183c4.67807 4.67807 7.306183 11.022919 7.306183 17.638702l0 0c0 13.776672 -11.168182 24.944885 -24.944885 24.944885l0 0c-13.776672 0 -24.944885 -11.168213 -24.944885 -24.944885z" fill-rule="evenodd"/><path fill="#eeeeee" d="m385.14987 397.8057l0 0c0 -13.776672 11.168213 -24.944885 24.944885 -24.944885l0 0c6.615814 0 12.960632 2.6281128 17.638702 7.306183c4.67807 4.67807 7.306183 11.022919 7.306183 17.638702l0 0c0 13.776672 -11.168182 24.944885 -24.944885 24.944885l0 0c-13.776672 0 -24.944885 -11.168213 -24.944885 -24.944885z" fill-rule="evenodd"/><path stroke="#595959" stroke-width="1.0" stroke-linejoin="round" stroke-linecap="butt" d="m385.14987 397.8057l0 0c0 -13.776672 11.168213 -24.944885 24.944885 -24.944885l0 0c6.615814 0 12.960632 2.6281128 17.638702 7.306183c4.67807 4.67807 7.306183 11.022919 7.306183 17.638702l0 0c0 13.776672 -11.168182 24.944885 -24.944885 24.944885l0 0c-13.776672 0 -24.944885 -11.168213 -24.944885 -24.944885z" fill-rule="evenodd"/><path fill="#000000" fill-opacity="0.0" d="m64.87263 162.77985l135.18109 -55.055122" fill-rule="evenodd"/><path stroke="#595959" stroke-width="1.0" stroke-linejoin="round" stroke-linecap="butt" d="m64.87263 162.77985l135.18109 -55.055122" fill-rule="evenodd"/><path fill="#000000" fill-opacity="0.0" d="m64.87263 162.77985l135.18109 177.63779" fill-rule="evenodd"/><path stroke="#595959" stroke-width="1.0" stroke-linejoin="round" stroke-linecap="butt" d="m64.87263 162.77985l135.18109 177.63779" fill-rule="evenodd"/><path fill="#000000" fill-opacity="0.0" d="m64.87263 336.51645l142.48819 -211.14963" fill-rule="evenodd"/><path stroke="#595959" stroke-width="1.0" stroke-linejoin="round" stroke-linecap="butt" d="m64.87263 336.51645l142.48819 -211.14963" fill-rule="evenodd"/><path fill="#000000" fill-opacity="0.0" d="m64.87263 393.91257l142.48819 -35.874023" fill-rule="evenodd"/><path stroke="#595959" stroke-width="1.0" stroke-linejoin="round" stroke-linecap="butt" d="m64.87263 393.91257l142.48819 -35.874023" fill-rule="evenodd"/><path fill="#000000" fill-opacity="0.0" d="m57.566444 295.2073l142.48819 102.58267" fill-rule="evenodd"/><path stroke="#595959" stroke-width="1.0" stroke-linejoin="round" stroke-linecap="butt" d="m57.566444 295.2073l142.48819 102.58267" fill-rule="evenodd"/><path fill="#000000" fill-opacity="0.0" d="m242.64995 125.363846l142.4882 215.05513" fill-rule="evenodd"/><path stroke="#595959" stroke-width="1.0" stroke-linejoin="round" stroke-linecap="butt" d="m242.64995 125.363846l142.4882 215.05513" fill-rule="evenodd"/><path fill="#000000" fill-opacity="0.0" d="m249.95615 397.8057l135.18109 -116.346466" fill-rule="evenodd"/><path stroke="#595959" stroke-width="1.0" stroke-linejoin="round" stroke-linecap="butt" d="m249.95615 397.8057l135.18109 -116.346466" fill-rule="evenodd"/><path fill="#000000" fill-opacity="0.0" d="m249.95615 281.46176l135.18109 116.346436" fill-rule="evenodd"/><path stroke="#595959" stroke-width="1.0" stroke-linejoin="round" stroke-linecap="butt" d="m249.95615 281.46176l135.18109 116.346436" fill-rule="evenodd"/><path fill="#000000" fill-opacity="0.0" d="m249.95615 107.72515l135.18109 0" fill-rule="evenodd"/><path stroke="#595959" stroke-width="1.0" stroke-linejoin="round" stroke-linecap="butt" d="m249.95615 107.72515l135.18109 0" fill-rule="evenodd"/><path fill="#000000" fill-opacity="0.0" d="m392.4561 184.31168l-142.4882 -17.637802" fill-rule="evenodd"/><path stroke="#595959" stroke-width="1.0" stroke-linejoin="round" stroke-linecap="butt" d="m392.4561 184.31168l-142.4882 -17.637802" fill-rule="evenodd"/><path fill="#000000" fill-opacity="0.0" d="m242.64995 380.167l142.4882 -39.748016" fill-rule="evenodd"/><path stroke="#595959" stroke-width="1.0" stroke-linejoin="round" stroke-linecap="butt" d="m242.64995 380.167l142.4882 -39.748016" fill-rule="evenodd"/><path fill="#000000" fill-opacity="0.0" d="m249.95615 224.06563l142.48819 98.708664" fill-rule="evenodd"/><path stroke="#595959" stroke-width="1.0" stroke-linejoin="round" stroke-linecap="butt" d="m249.95615 224.06563l142.48819 98.708664" fill-rule="evenodd"/><path fill="#eeeeee" d="m548.7865 251.60164l0 0c0 -13.776688 11.168213 -24.944885 24.944885 -24.944885l0 0c6.6157837 0 12.960632 2.6281128 17.638672 7.306183c4.6781006 4.6780853 7.3062134 11.022903 7.3062134 17.638702l0 0c0 13.776688 -11.168213 24.94487 -24.944885 24.94487l0 0c-13.776672 0 -24.944885 -11.168182 -24.944885 -24.94487z" fill-rule="evenodd"/><path stroke="#595959" stroke-width="1.0" stroke-linejoin="round" stroke-linecap="butt" d="m548.7865 251.60164l0 0c0 -13.776688 11.168213 -24.944885 24.944885 -24.944885l0 0c6.6157837 0 12.960632 2.6281128 17.638672 7.306183c4.6781006 4.6780853 7.3062134 11.022903 7.3062134 17.638702l0 0c0 13.776688 -11.168213 24.94487 -24.944885 24.94487l0 0c-13.776672 0 -24.944885 -11.168182 -24.944885 -24.94487z" fill-rule="evenodd"/><path fill="#000000" fill-opacity="0.0" d="m427.73346 125.363846l128.34644 108.59842" fill-rule="evenodd"/><path stroke="#595959" stroke-width="1.0" stroke-linejoin="round" stroke-linecap="butt" d="m427.73346 125.363846l128.34644 108.59842" fill-rule="evenodd"/><path fill="#000000" fill-opacity="0.0" d="m435.03964 166.67297l121.0394 67.275604" fill-rule="evenodd"/><path stroke="#595959" stroke-width="1.0" stroke-linejoin="round" stroke-linecap="butt" d="m435.03964 166.67297l121.0394 67.275604" fill-rule="evenodd"/><path fill="#000000" fill-opacity="0.0" d="m435.03964 224.06563l113.73227 27.527557" fill-rule="evenodd"/><path stroke="#595959" stroke-width="1.0" stroke-linejoin="round" stroke-linecap="butt" d="m435.03964 224.06563l113.73227 27.527557" fill-rule="evenodd"/><path fill="#000000" fill-opacity="0.0" d="m435.03964 281.46176l113.73227 -29.858276" fill-rule="evenodd"/><path stroke="#595959" stroke-width="1.0" stroke-linejoin="round" stroke-linecap="butt" d="m435.03964 281.46176l113.73227 -29.858276" fill-rule="evenodd"/><path fill="#000000" fill-opacity="0.0" d="m435.03964 340.40958l121.0394 -71.18109" fill-rule="evenodd"/><path stroke="#595959" stroke-width="1.0" stroke-linejoin="round" stroke-linecap="butt" d="m435.03964 340.40958l121.0394 -71.18109" fill-rule="evenodd"/><path fill="#000000" fill-opacity="0.0" d="m435.03964 397.8057l121.0394 -128.56693" fill-rule="evenodd"/><path stroke="#595959" stroke-width="1.0" stroke-linejoin="round" stroke-linecap="butt" d="m435.03964 397.8057l121.0394 -128.56693" fill-rule="evenodd"/><path fill="#000000" fill-opacity="0.0" d="m370.48825 72.29581l76.566956 0l0 71.1496l-76.566956 0z" fill-rule="evenodd"/><path fill="#000000" d="m401.4199 113.32185q0 -0.359375 0.109375 -0.65625q0.125 -0.3125 0.34375 -0.53125q0.234375 -0.21875 0.5625 -0.34375q0.328125 -0.140625 0.75 -0.140625q0.40625 0 0.734375 0.140625q0.328125 0.125 0.546875 0.34375q0.21875 0.21875 0.34375 0.53125q0.125 0.296875 0.125 0.65625q0 0.34375 -0.125 0.65625q-0.125 0.296875 -0.34375 0.515625q-0.21875 0.21875 -0.546875 0.34375q-0.328125 0.140625 -0.734375 0.140625q-0.421875 0 -0.75 -0.140625q-0.328125 -0.125 -0.5625 -0.34375q-0.21875 -0.21875 -0.34375 -0.515625q-0.109375 -0.3125 -0.109375 -0.65625zm11.179962 -6.28125l1.375 0q1.046875 0 1.546875 -0.515625q0.5 -0.53125 0.5 -1.375q0 -0.390625 -0.125 -0.703125q-0.109375 -0.328125 -0.34375 -0.5625q-0.21875 -0.234375 -0.578125 -0.359375q-0.34375 -0.125 -0.796875 -0.125q-0.390625 0 -0.71875 0.109375q-0.328125 0.109375 -0.578125 0.3125q-0.25 0.203125 -0.40625 0.5q-0.140625 0.28125 -0.140625 0.65625l-2.53125 0q0 -0.8125 0.328125 -1.46875q0.328125 -0.671875 0.90625 -1.15625q0.59375 -0.484375 1.375 -0.75q0.796875 -0.265625 1.703125 -0.265625q0.984375 0 1.796875 0.25q0.828125 0.234375 1.40625 0.71875q0.59375 0.484375 0.90625 1.1875q0.328125 0.703125 0.328125 1.625q0 0.4375 -0.125 0.859375q-0.125 0.40625 -0.375 0.78125q-0.25 0.375 -0.609375 0.6875q-0.359375 0.3125 -0.84375 0.53125q0.5625 0.203125 0.96875 0.515625q0.40625 0.3125 0.671875 0.71875q0.265625 0.390625 0.390625 0.859375q0.125 0.46875 0.125 1.0q0 0.9375 -0.359375 1.671875q-0.34375 0.71875 -0.96875 1.21875q-0.625 0.484375 -1.484375 0.75q-0.84375 0.265625 -1.828125 0.265625q-0.84375 0 -1.65625 -0.234375q-0.796875 -0.234375 -1.4375 -0.703125q-0.625 -0.46875 -1.0 -1.171875q-0.375 -0.71875 -0.375 -1.6875l2.53125 0q0 0.390625 0.140625 0.71875q0.15625 0.3125 0.421875 0.546875q0.265625 0.234375 0.625 0.375q0.375 0.125 0.8125 0.125q0.96875 0 1.5 -0.515625q0.546875 -0.515625 0.546875 -1.390625q0 -0.53125 -0.15625 -0.90625q-0.140625 -0.390625 -0.4375 -0.625q-0.296875 -0.25 -0.71875 -0.375q-0.40625 -0.125 -0.9375 -0.125l-1.375 0l0 -1.96875z" fill-rule="nonzero"/><path fill="#000000" fill-opacity="0.0" d="m371.65897 131.12933l76.566925 0l0 71.14961l-76.566925 0z" fill-rule="evenodd"/><path fill="#000000" d="m402.5906 172.15538q0 -0.359375 0.109375 -0.65625q0.125 -0.3125 0.34375 -0.53125q0.234375 -0.21875 0.5625 -0.34375q0.328125 -0.140625 0.75 -0.140625q0.40625 0 0.734375 0.140625q0.328125 0.125 0.546875 0.34375q0.21875 0.21875 0.34375 0.53125q0.125 0.296875 0.125 0.65625q0 0.34375 -0.125 0.65625q-0.125 0.296875 -0.34375 0.515625q-0.21875 0.21875 -0.546875 0.34375q-0.328125 0.140625 -0.734375 0.140625q-0.421875 0 -0.75 -0.140625q-0.328125 -0.125 -0.5625 -0.34375q-0.21875 -0.21875 -0.34375 -0.515625q-0.109375 -0.3125 -0.109375 -0.65625zm14.836212 1.46875l-2.5625 0l0 -10.171875l-3.34375 1.203125l0 -2.203125l5.765625 -2.09375l0.140625 0l0 13.265625z" fill-rule="nonzero"/><path fill="#000000" fill-opacity="0.0" d="m370.48825 188.2241l76.566956 0l0 71.14961l-76.566956 0z" fill-rule="evenodd"/><path fill="#000000" d="m401.4199 229.25017q0 -0.359375 0.109375 -0.65625q0.125 -0.3125 0.34375 -0.53125q0.234375 -0.21875 0.5625 -0.34375q0.328125 -0.140625 0.75 -0.140625q0.40625 0 0.734375 0.140625q0.328125 0.125 0.546875 0.34375q0.21875 0.21875 0.34375 0.53125q0.125 0.296875 0.125 0.65625q0 0.34375 -0.125 0.65625q-0.125 0.296875 -0.34375 0.515625q-0.21875 0.21875 -0.546875 0.34375q-0.328125 0.140625 -0.734375 0.140625q-0.421875 0 -0.75 -0.140625q-0.328125 -0.125 -0.5625 -0.34375q-0.21875 -0.21875 -0.34375 -0.515625q-0.109375 -0.3125 -0.109375 -0.65625zm15.351837 -11.90625l0 2.109375l-0.140625 0q-1.0 0 -1.78125 0.265625q-0.765625 0.265625 -1.3125 0.75q-0.53125 0.46875 -0.84375 1.15625q-0.3125 0.671875 -0.390625 1.5q0.203125 -0.234375 0.46875 -0.453125q0.28125 -0.21875 0.625 -0.390625q0.34375 -0.1875 0.734375 -0.296875q0.40625 -0.109375 0.875 -0.109375q0.9375 0 1.640625 0.359375q0.71875 0.359375 1.1875 0.984375q0.46875 0.609375 0.703125 1.421875q0.234375 0.8125 0.234375 1.71875q0 0.96875 -0.3125 1.796875q-0.3125 0.828125 -0.890625 1.4375q-0.5625 0.609375 -1.390625 0.96875q-0.8125 0.34375 -1.828125 0.34375q-1.0625 0 -1.921875 -0.390625q-0.859375 -0.40625 -1.453125 -1.109375q-0.59375 -0.703125 -0.921875 -1.65625q-0.328125 -0.96875 -0.328125 -2.109375l0 -0.96875q0 -1.578125 0.421875 -2.921875q0.4375 -1.34375 1.28125 -2.3125q0.84375 -0.984375 2.09375 -1.53125q1.265625 -0.5625 2.921875 -0.5625l0.328125 0zm-2.5 6.5625q-0.6875 0 -1.21875 0.375q-0.515625 0.359375 -0.78125 0.921875l0 0.75q0 0.734375 0.140625 1.28125q0.15625 0.546875 0.421875 0.90625q0.28125 0.359375 0.65625 0.546875q0.375 0.171875 0.8125 0.171875q0.4375 0 0.796875 -0.1875q0.375 -0.1875 0.625 -0.515625q0.265625 -0.328125 0.390625 -0.78125q0.140625 -0.453125 0.140625 -0.984375q0 -0.53125 -0.140625 -0.984375q-0.125 -0.46875 -0.390625 -0.796875q-0.25 -0.328125 -0.625 -0.515625q-0.359375 -0.1875 -0.828125 -0.1875z" fill-rule="nonzero"/><path fill="#000000" fill-opacity="0.0" d="m368.41354 245.36739l76.566925 0l0 71.14961l-76.566925 0z" fill-rule="evenodd"/><path fill="#000000" d="m399.34518 286.39343q0 -0.359375 0.109375 -0.65625q0.125 -0.3125 0.34375 -0.53125q0.234375 -0.21875 0.5625 -0.34375q0.328125 -0.140625 0.75 -0.140625q0.40625 0 0.734375 0.140625q0.328125 0.125 0.546875 0.34375q0.21875 0.21875 0.34375 0.53125q0.125 0.296875 0.125 0.65625q0 0.34375 -0.125 0.65625q-0.125 0.296875 -0.34375 0.515625q-0.21875 0.21875 -0.546875 0.34375q-0.328125 0.140625 -0.734375 0.140625q-0.421875 0 -0.75 -0.140625q-0.328125 -0.125 -0.5625 -0.34375q-0.21875 -0.21875 -0.34375 -0.515625q-0.109375 -0.3125 -0.109375 -0.65625zm16.961182 -8.265625q0 0.96875 -0.484375 1.71875q-0.484375 0.75 -1.34375 1.1875q0.96875 0.453125 1.53125 1.28125q0.578125 0.8125 0.578125 1.921875q0 0.9375 -0.34375 1.65625q-0.34375 0.703125 -0.9375 1.1875q-0.59375 0.46875 -1.40625 0.71875q-0.8125 0.25 -1.75 0.25q-0.9375 0 -1.765625 -0.25q-0.8125 -0.25 -1.421875 -0.71875q-0.59375 -0.484375 -0.9375 -1.1875q-0.328125 -0.71875 -0.328125 -1.65625q0 -0.546875 0.140625 -1.03125q0.15625 -0.484375 0.421875 -0.890625q0.28125 -0.40625 0.65625 -0.734375q0.390625 -0.328125 0.875 -0.546875q-0.84375 -0.4375 -1.328125 -1.1875q-0.484375 -0.75 -0.484375 -1.71875q0 -0.90625 0.3125 -1.59375q0.3125 -0.6875 0.859375 -1.15625q0.546875 -0.484375 1.3125 -0.71875q0.765625 -0.25 1.65625 -0.25q0.90625 0 1.671875 0.25q0.765625 0.234375 1.328125 0.71875q0.5625 0.46875 0.875 1.15625q0.3125 0.6875 0.3125 1.59375zm-2.265625 5.9375q0 -0.453125 -0.140625 -0.8125q-0.125 -0.375 -0.375 -0.625q-0.25 -0.265625 -0.609375 -0.40625q-0.34375 -0.140625 -0.78125 -0.140625q-0.4375 0 -0.796875 0.140625q-0.34375 0.140625 -0.59375 0.40625q-0.234375 0.25 -0.375 0.625q-0.140625 0.359375 -0.140625 0.8125q0 0.90625 0.515625 1.4375q0.53125 0.515625 1.40625 0.515625q0.421875 0 0.765625 -0.125q0.34375 -0.140625 0.59375 -0.390625q0.25 -0.265625 0.390625 -0.625q0.140625 -0.359375 0.140625 -0.8125zm-0.25 -5.828125q0 -0.390625 -0.125 -0.71875q-0.125 -0.328125 -0.34375 -0.5625q-0.203125 -0.234375 -0.515625 -0.359375q-0.296875 -0.125 -0.6875 -0.125q-0.765625 0 -1.1875 0.46875q-0.421875 0.46875 -0.421875 1.296875q0 0.40625 0.109375 0.75q0.109375 0.328125 0.328125 0.5625q0.21875 0.234375 0.515625 0.375q0.3125 0.125 0.6875 0.125q0.390625 0 0.6875 -0.125q0.296875 -0.140625 0.5 -0.375q0.21875 -0.234375 0.328125 -0.5625q0.125 -0.34375 0.125 -0.75z" fill-rule="nonzero"/><path fill="#000000" fill-opacity="0.0" d="m369.58426 304.20093l76.566925 0l0 71.1496l-76.566925 0z" fill-rule="evenodd"/><path fill="#000000" d="m400.5159 345.22696q0 -0.359375 0.109375 -0.65625q0.125 -0.3125 0.34375 -0.53125q0.234375 -0.21875 0.5625 -0.34375q0.328125 -0.140625 0.75 -0.140625q0.40625 0 0.734375 0.140625q0.328125 0.125 0.546875 0.34375q0.21875 0.21875 0.34375 0.53125q0.125 0.296875 0.125 0.65625q0 0.34375 -0.125 0.65625q-0.125 0.296875 -0.34375 0.515625q-0.21875 0.21875 -0.546875 0.34375q-0.328125 0.140625 -0.734375 0.140625q-0.421875 0 -0.75 -0.140625q-0.328125 -0.125 -0.5625 -0.34375q-0.21875 -0.21875 -0.34375 -0.515625q-0.109375 -0.3125 -0.109375 -0.65625zm11.179932 -6.28125l1.375 0q1.046875 0 1.546875 -0.515625q0.5 -0.53125 0.5 -1.375q0 -0.390625 -0.125 -0.703125q-0.109375 -0.328125 -0.34375 -0.5625q-0.21875 -0.234375 -0.578125 -0.359375q-0.34375 -0.125 -0.796875 -0.125q-0.390625 0 -0.71875 0.109375q-0.328125 0.109375 -0.578125 0.3125q-0.25 0.203125 -0.40625 0.5q-0.140625 0.28125 -0.140625 0.65625l-2.53125 0q0 -0.8125 0.328125 -1.46875q0.328125 -0.671875 0.90625 -1.15625q0.59375 -0.484375 1.375 -0.75q0.796875 -0.265625 1.703125 -0.265625q0.984375 0 1.796875 0.25q0.828125 0.234375 1.40625 0.71875q0.59375 0.484375 0.90625 1.1875q0.328125 0.703125 0.328125 1.625q0 0.4375 -0.125 0.859375q-0.125 0.40625 -0.375 0.78125q-0.25 0.375 -0.609375 0.6875q-0.359375 0.3125 -0.84375 0.53125q0.5625 0.203125 0.96875 0.515625q0.40625 0.3125 0.671875 0.71875q0.265625 0.390625 0.390625 0.859375q0.125 0.46875 0.125 1.0q0 0.9375 -0.359375 1.671875q-0.34375 0.71875 -0.96875 1.21875q-0.625 0.484375 -1.484375 0.75q-0.84375 0.265625 -1.828125 0.265625q-0.84375 0 -1.65625 -0.234375q-0.796875 -0.234375 -1.4375 -0.703125q-0.625 -0.46875 -1.0 -1.171875q-0.375 -0.71875 -0.375 -1.6875l2.53125 0q0 0.390625 0.140625 0.71875q0.15625 0.3125 0.421875 0.546875q0.265625 0.234375 0.625 0.375q0.375 0.125 0.8125 0.125q0.96875 0 1.5 -0.515625q0.546875 -0.515625 0.546875 -1.390625q0 -0.53125 -0.15625 -0.90625q-0.140625 -0.390625 -0.4375 -0.625q-0.296875 -0.25 -0.71875 -0.375q-0.40625 -0.125 -0.9375 -0.125l-1.375 0l0 -1.96875z" fill-rule="nonzero"/><path fill="#000000" fill-opacity="0.0" d="m368.41354 361.2957l76.566925 0l0 71.14963l-76.566925 0z" fill-rule="evenodd"/><path fill="#000000" d="m399.34518 402.32175q0 -0.359375 0.109375 -0.65625q0.125 -0.3125 0.34375 -0.53125q0.234375 -0.21875 0.5625 -0.34375q0.328125 -0.140625 0.75 -0.140625q0.40625 0 0.734375 0.140625q0.328125 0.125 0.546875 0.34375q0.21875 0.21875 0.34375 0.53125q0.125 0.296875 0.125 0.65625q0 0.34375 -0.125 0.65625q-0.125 0.296875 -0.34375 0.515625q-0.21875 0.21875 -0.546875 0.34375q-0.328125 0.140625 -0.734375 0.140625q-0.421875 0 -0.75 -0.140625q-0.328125 -0.125 -0.5625 -0.34375q-0.21875 -0.21875 -0.34375 -0.515625q-0.109375 -0.3125 -0.109375 -0.65625zm17.304932 1.46875l-9.046875 0l0 -1.734375l4.296875 -4.609375q0.5 -0.546875 0.84375 -0.984375q0.34375 -0.453125 0.5625 -0.8125q0.21875 -0.375 0.3125 -0.6875q0.09375 -0.328125 0.09375 -0.625q0 -0.453125 -0.125 -0.796875q-0.125 -0.34375 -0.359375 -0.578125q-0.234375 -0.25 -0.5625 -0.375q-0.328125 -0.125 -0.71875 -0.125q-1.046875 0 -1.5625 0.578125q-0.515625 0.578125 -0.515625 1.625l-2.53125 0q0 -0.875 0.328125 -1.65625q0.34375 -0.796875 0.953125 -1.390625q0.625 -0.59375 1.484375 -0.9375q0.875 -0.34375 1.9375 -0.34375q1.0 0 1.78125 0.296875q0.78125 0.28125 1.296875 0.796875q0.53125 0.5 0.796875 1.21875q0.28125 0.703125 0.28125 1.578125q0 0.65625 -0.203125 1.25q-0.203125 0.59375 -0.59375 1.1875q-0.375 0.578125 -0.90625 1.1875q-0.515625 0.59375 -1.171875 1.265625l-2.484375 2.640625l5.8125 0l0 2.03125z" fill-rule="nonzero"/><path fill="#000000" fill-opacity="0.0" d="m184.53537 72.94004l76.566925 0l0 71.149605l-76.566925 0z" fill-rule="evenodd"/><path fill="#000000" d="m215.46703 113.966095q0 -0.359375 0.109375 -0.65625q0.125 -0.3125 0.34375 -0.53125q0.234375 -0.21875 0.5625 -0.34375q0.32810974 -0.140625 0.74998474 -0.140625q0.40625 0 0.734375 0.140625q0.328125 0.125 0.546875 0.34375q0.21875 0.21875 0.34375 0.53125q0.125 0.296875 0.125 0.65625q0 0.34375 -0.125 0.65625q-0.125 0.296875 -0.34375 0.515625q-0.21875 0.21875 -0.546875 0.34375q-0.328125 0.140625 -0.734375 0.140625q-0.421875 0 -0.74998474 -0.140625q-0.328125 -0.125 -0.5625 -0.34375q-0.21875 -0.21875 -0.34375 -0.515625q-0.109375 -0.3125 -0.109375 -0.65625zm17.304932 1.46875l-9.046875 0l0 -1.734375l4.296875 -4.609375q0.5 -0.546875 0.84375 -0.984375q0.34375 -0.453125 0.5625 -0.8125q0.21875 -0.375 0.3125 -0.6875q0.09375 -0.328125 0.09375 -0.625q0 -0.453125 -0.125 -0.796875q-0.125 -0.34375 -0.359375 -0.578125q-0.234375 -0.25 -0.5625 -0.375q-0.328125 -0.125 -0.71875 -0.125q-1.046875 0 -1.5625 0.578125q-0.515625 0.578125 -0.515625 1.625l-2.53125 0q0 -0.875 0.328125 -1.65625q0.34375 -0.796875 0.953125 -1.390625q0.625 -0.59375 1.484375 -0.9375q0.875 -0.34375 1.9375 -0.34375q1.0 0 1.78125 0.296875q0.78125 0.28125 1.296875 0.796875q0.53125 0.5 0.796875 1.21875q0.28125 0.703125 0.28125 1.578125q0 0.65625 -0.203125 1.25q-0.203125 0.59375 -0.59375 1.1875q-0.375 0.578125 -0.90625 1.1875q-0.515625 0.59375 -1.171875 1.265625l-2.484375 2.640625l5.8125 0l0 2.03125z" fill-rule="nonzero"/><path fill="#000000" fill-opacity="0.0" d="m185.70609 131.77357l76.566925 0l0 71.1496l-76.566925 0z" fill-rule="evenodd"/><path fill="#000000" d="m216.63773 172.79962q0 -0.359375 0.109375 -0.65625q0.125 -0.3125 0.34375 -0.53125q0.234375 -0.21875 0.5625 -0.34375q0.328125 -0.140625 0.75 -0.140625q0.40625 0 0.734375 0.140625q0.328125 0.125 0.546875 0.34375q0.21875 0.21875 0.34375 0.53125q0.125 0.296875 0.125 0.65625q0 0.34375 -0.125 0.65625q-0.125 0.296875 -0.34375 0.515625q-0.21875 0.21875 -0.546875 0.34375q-0.328125 0.140625 -0.734375 0.140625q-0.421875 0 -0.75 -0.140625q-0.328125 -0.125 -0.5625 -0.34375q-0.21875 -0.21875 -0.34375 -0.515625q-0.109375 -0.3125 -0.109375 -0.65625zm16.961197 -8.265625q0 0.96875 -0.484375 1.71875q-0.484375 0.75 -1.34375 1.1875q0.96875 0.453125 1.53125 1.28125q0.578125 0.8125 0.578125 1.921875q0 0.9375 -0.34375 1.65625q-0.34375 0.703125 -0.9375 1.1875q-0.59375 0.46875 -1.40625 0.71875q-0.8125 0.25 -1.75 0.25q-0.9375 0 -1.765625 -0.25q-0.8125 -0.25 -1.421875 -0.71875q-0.59375 -0.484375 -0.9375 -1.1875q-0.328125 -0.71875 -0.328125 -1.65625q0 -0.546875 0.140625 -1.03125q0.15625 -0.484375 0.421875 -0.890625q0.28125 -0.40625 0.65625 -0.734375q0.390625 -0.328125 0.875 -0.546875q-0.84375 -0.4375 -1.328125 -1.1875q-0.484375 -0.75 -0.484375 -1.71875q0 -0.90625 0.3125 -1.59375q0.3125 -0.6875 0.859375 -1.15625q0.546875 -0.484375 1.3125 -0.71875q0.765625 -0.25 1.65625 -0.25q0.90625 0 1.671875 0.25q0.765625 0.234375 1.328125 0.71875q0.5625 0.46875 0.875 1.15625q0.3125 0.6875 0.3125 1.59375zm-2.265625 5.9375q0 -0.453125 -0.140625 -0.8125q-0.125 -0.375 -0.375 -0.625q-0.25 -0.265625 -0.609375 -0.40625q-0.34375 -0.140625 -0.78125 -0.140625q-0.4375 0 -0.796875 0.140625q-0.34375 0.140625 -0.59375 0.40625q-0.234375 0.25 -0.375 0.625q-0.140625 0.359375 -0.140625 0.8125q0 0.90625 0.515625 1.4375q0.53125 0.515625 1.40625 0.515625q0.421875 0 0.765625 -0.125q0.34375 -0.140625 0.59375 -0.390625q0.25 -0.265625 0.390625 -0.625q0.140625 -0.359375 0.140625 -0.8125zm-0.25 -5.828125q0 -0.390625 -0.125 -0.71875q-0.125 -0.328125 -0.34375 -0.5625q-0.203125 -0.234375 -0.515625 -0.359375q-0.296875 -0.125 -0.6875 -0.125q-0.765625 0 -1.1875 0.46875q-0.421875 0.46875 -0.421875 1.296875q0 0.40625 0.109375 0.75q0.109375 0.328125 0.328125 0.5625q0.21875 0.234375 0.515625 0.375q0.3125 0.125 0.6875 0.125q0.390625 0 0.6875 -0.125q0.296875 -0.140625 0.5 -0.375q0.21875 -0.234375 0.328125 -0.5625q0.125 -0.34375 0.125 -0.75z" fill-rule="nonzero"/><path fill="#000000" fill-opacity="0.0" d="m184.53537 188.86835l76.566925 0l0 71.1496l-76.566925 0z" fill-rule="evenodd"/><path fill="#000000" d="m215.46703 229.89441q0 -0.359375 0.109375 -0.65625q0.125 -0.3125 0.34375 -0.53125q0.234375 -0.21875 0.5625 -0.34375q0.32810974 -0.140625 0.74998474 -0.140625q0.40625 0 0.734375 0.140625q0.328125 0.125 0.546875 0.34375q0.21875 0.21875 0.34375 0.53125q0.125 0.296875 0.125 0.65625q0 0.34375 -0.125 0.65625q-0.125 0.296875 -0.34375 0.515625q-0.21875 0.21875 -0.546875 0.34375q-0.328125 0.140625 -0.734375 0.140625q-0.421875 0 -0.74998474 -0.140625q-0.328125 -0.125 -0.5625 -0.34375q-0.21875 -0.21875 -0.34375 -0.515625q-0.109375 -0.3125 -0.109375 -0.65625zm16.961182 -8.265625q0 0.96875 -0.484375 1.71875q-0.484375 0.75 -1.34375 1.1875q0.96875 0.453125 1.53125 1.28125q0.578125 0.8125 0.578125 1.921875q0 0.9375 -0.34375 1.65625q-0.34375 0.703125 -0.9375 1.1875q-0.59375 0.46875 -1.40625 0.71875q-0.8125 0.25 -1.75 0.25q-0.9375 0 -1.765625 -0.25q-0.8125 -0.25 -1.421875 -0.71875q-0.59375 -0.484375 -0.9375 -1.1875q-0.328125 -0.71875 -0.328125 -1.65625q0 -0.546875 0.140625 -1.03125q0.15625 -0.484375 0.421875 -0.890625q0.28125 -0.40625 0.65625 -0.734375q0.390625 -0.328125 0.875 -0.546875q-0.84375 -0.4375 -1.328125 -1.1875q-0.484375 -0.75 -0.484375 -1.71875q0 -0.90625 0.3125 -1.59375q0.3125 -0.6875 0.859375 -1.15625q0.546875 -0.484375 1.3125 -0.71875q0.765625 -0.25 1.65625 -0.25q0.90625 0 1.671875 0.25q0.765625 0.234375 1.328125 0.71875q0.5625 0.46875 0.875 1.15625q0.3125 0.6875 0.3125 1.59375zm-2.265625 5.9375q0 -0.453125 -0.140625 -0.8125q-0.125 -0.375 -0.375 -0.625q-0.25 -0.265625 -0.609375 -0.40625q-0.34375 -0.140625 -0.78125 -0.140625q-0.4375 0 -0.796875 0.140625q-0.34375 0.140625 -0.59375 0.40625q-0.234375 0.25 -0.375 0.625q-0.140625 0.359375 -0.140625 0.8125q0 0.90625 0.515625 1.4375q0.53125 0.515625 1.40625 0.515625q0.421875 0 0.765625 -0.125q0.34375 -0.140625 0.59375 -0.390625q0.25 -0.265625 0.390625 -0.625q0.140625 -0.359375 0.140625 -0.8125zm-0.25 -5.828125q0 -0.390625 -0.125 -0.71875q-0.125 -0.328125 -0.34375 -0.5625q-0.203125 -0.234375 -0.515625 -0.359375q-0.296875 -0.125 -0.6875 -0.125q-0.765625 0 -1.1875 0.46875q-0.421875 0.46875 -0.421875 1.296875q0 0.40625 0.109375 0.75q0.109375 0.328125 0.328125 0.5625q0.21875 0.234375 0.515625 0.375q0.3125 0.125 0.6875 0.125q0.390625 0 0.6875 -0.125q0.296875 -0.140625 0.5 -0.375q0.21875 -0.234375 0.328125 -0.5625q0.125 -0.34375 0.125 -0.75z" fill-rule="nonzero"/><path fill="#000000" fill-opacity="0.0" d="m182.46065 246.01163l76.56694 0l0 71.1496l-76.56694 0z" fill-rule="evenodd"/><path fill="#000000" d="m213.39229 287.03766q0 -0.359375 0.109375 -0.65625q0.125 -0.3125 0.34375 -0.53125q0.234375 -0.21875 0.5625 -0.34375q0.328125 -0.140625 0.75 -0.140625q0.40625 0 0.734375 0.140625q0.328125 0.125 0.546875 0.34375q0.21875 0.21875 0.34375 0.53125q0.125 0.296875 0.125 0.65625q0 0.34375 -0.125 0.65625q-0.125 0.296875 -0.34375 0.515625q-0.21875 0.21875 -0.546875 0.34375q-0.328125 0.140625 -0.734375 0.140625q-0.421875 0 -0.75 -0.140625q-0.328125 -0.125 -0.5625 -0.34375q-0.21875 -0.21875 -0.34375 -0.515625q-0.109375 -0.3125 -0.109375 -0.65625zm16.961197 -8.265625q0 0.96875 -0.484375 1.71875q-0.484375 0.75 -1.34375 1.1875q0.96875 0.453125 1.53125 1.28125q0.578125 0.8125 0.578125 1.921875q0 0.9375 -0.34375 1.65625q-0.34375 0.703125 -0.9375 1.1875q-0.59375 0.46875 -1.40625 0.71875q-0.8125 0.25 -1.75 0.25q-0.9375 0 -1.765625 -0.25q-0.8125 -0.25 -1.421875 -0.71875q-0.59375 -0.484375 -0.9375 -1.1875q-0.328125 -0.71875 -0.328125 -1.65625q0 -0.546875 0.140625 -1.03125q0.15625 -0.484375 0.421875 -0.890625q0.28125 -0.40625 0.65625 -0.734375q0.390625 -0.328125 0.875 -0.546875q-0.84375 -0.4375 -1.328125 -1.1875q-0.484375 -0.75 -0.484375 -1.71875q0 -0.90625 0.3125 -1.59375q0.3125 -0.6875 0.859375 -1.15625q0.546875 -0.484375 1.3125 -0.71875q0.765625 -0.25 1.65625 -0.25q0.90625 0 1.671875 0.25q0.765625 0.234375 1.328125 0.71875q0.5625 0.46875 0.875 1.15625q0.3125 0.6875 0.3125 1.59375zm-2.265625 5.9375q0 -0.453125 -0.140625 -0.8125q-0.125 -0.375 -0.375 -0.625q-0.25 -0.265625 -0.609375 -0.40625q-0.34375 -0.140625 -0.78125 -0.140625q-0.4375 0 -0.796875 0.140625q-0.34375 0.140625 -0.59375 0.40625q-0.234375 0.25 -0.375 0.625q-0.140625 0.359375 -0.140625 0.8125q0 0.90625 0.515625 1.4375q0.53125 0.515625 1.40625 0.515625q0.421875 0 0.765625 -0.125q0.34375 -0.140625 0.59375 -0.390625q0.25 -0.265625 0.390625 -0.625q0.140625 -0.359375 0.140625 -0.8125zm-0.25 -5.828125q0 -0.390625 -0.125 -0.71875q-0.125 -0.328125 -0.34375 -0.5625q-0.203125 -0.234375 -0.515625 -0.359375q-0.296875 -0.125 -0.6875 -0.125q-0.765625 0 -1.1875 0.46875q-0.421875 0.46875 -0.421875 1.296875q0 0.40625 0.109375 0.75q0.109375 0.328125 0.328125 0.5625q0.21875 0.234375 0.515625 0.375q0.3125 0.125 0.6875 0.125q0.390625 0 0.6875 -0.125q0.296875 -0.140625 0.5 -0.375q0.21875 -0.234375 0.328125 -0.5625q0.125 -0.34375 0.125 -0.75z" fill-rule="nonzero"/><path fill="#000000" fill-opacity="0.0" d="m183.63136 304.84515l76.56694 0l0 71.1496l-76.56694 0z" fill-rule="evenodd"/><path fill="#000000" d="m214.563 345.87122q0 -0.359375 0.109375 -0.65625q0.125 -0.3125 0.34375 -0.53125q0.234375 -0.21875 0.5625 -0.34375q0.328125 -0.140625 0.75 -0.140625q0.40625 0 0.734375 0.140625q0.328125 0.125 0.546875 0.34375q0.21875 0.21875 0.34375 0.53125q0.125 0.296875 0.125 0.65625q0 0.34375 -0.125 0.65625q-0.125 0.296875 -0.34375 0.515625q-0.21875 0.21875 -0.546875 0.34375q-0.328125 0.140625 -0.734375 0.140625q-0.421875 0 -0.75 -0.140625q-0.328125 -0.125 -0.5625 -0.34375q-0.21875 -0.21875 -0.34375 -0.515625q-0.109375 -0.3125 -0.109375 -0.65625zm11.179947 -6.28125l1.375 0q1.046875 0 1.546875 -0.515625q0.5 -0.53125 0.5 -1.375q0 -0.390625 -0.125 -0.703125q-0.109375 -0.328125 -0.34375 -0.5625q-0.21875 -0.234375 -0.578125 -0.359375q-0.34375 -0.125 -0.796875 -0.125q-0.390625 0 -0.71875 0.109375q-0.328125 0.109375 -0.578125 0.3125q-0.25 0.203125 -0.40625 0.5q-0.140625 0.28125 -0.140625 0.65625l-2.53125 0q0 -0.8125 0.328125 -1.46875q0.328125 -0.671875 0.90625 -1.15625q0.59375 -0.484375 1.375 -0.75q0.796875 -0.265625 1.703125 -0.265625q0.984375 0 1.796875 0.25q0.828125 0.234375 1.40625 0.71875q0.59375 0.484375 0.90625 1.1875q0.328125 0.703125 0.328125 1.625q0 0.4375 -0.125 0.859375q-0.125 0.40625 -0.375 0.78125q-0.25 0.375 -0.609375 0.6875q-0.359375 0.3125 -0.84375 0.53125q0.5625 0.203125 0.96875 0.515625q0.40625 0.3125 0.671875 0.71875q0.265625 0.390625 0.390625 0.859375q0.125 0.46875 0.125 1.0q0 0.9375 -0.359375 1.671875q-0.34375 0.71875 -0.96875 1.21875q-0.625 0.484375 -1.484375 0.75q-0.84375 0.265625 -1.828125 0.265625q-0.84375 0 -1.65625 -0.234375q-0.796875 -0.234375 -1.4375 -0.703125q-0.625 -0.46875 -1.0 -1.171875q-0.375 -0.71875 -0.375 -1.6875l2.53125 0q0 0.390625 0.140625 0.71875q0.15625 0.3125 0.421875 0.546875q0.265625 0.234375 0.625 0.375q0.375 0.125 0.8125 0.125q0.96875 0 1.5 -0.515625q0.546875 -0.515625 0.546875 -1.390625q0 -0.53125 -0.15625 -0.90625q-0.140625 -0.390625 -0.4375 -0.625q-0.296875 -0.25 -0.71875 -0.375q-0.40625 -0.125 -0.9375 -0.125l-1.375 0l0 -1.96875z" fill-rule="nonzero"/><path fill="#000000" fill-opacity="0.0" d="m182.46065 361.93994l76.56694 0l0 71.1496l-76.56694 0z" fill-rule="evenodd"/><path fill="#000000" d="m213.39229 402.96597q0 -0.359375 0.109375 -0.65625q0.125 -0.3125 0.34375 -0.53125q0.234375 -0.21875 0.5625 -0.34375q0.328125 -0.140625 0.75 -0.140625q0.40625 0 0.734375 0.140625q0.328125 0.125 0.546875 0.34375q0.21875 0.21875 0.34375 0.53125q0.125 0.296875 0.125 0.65625q0 0.34375 -0.125 0.65625q-0.125 0.296875 -0.34375 0.515625q-0.21875 0.21875 -0.546875 0.34375q-0.328125 0.140625 -0.734375 0.140625q-0.421875 0 -0.75 -0.140625q-0.328125 -0.125 -0.5625 -0.34375q-0.21875 -0.21875 -0.34375 -0.515625q-0.109375 -0.3125 -0.109375 -0.65625zm8.758072 -5.0625l0.765625 -6.734375l7.359375 0l0 2.15625l-5.28125 0l-0.3125 2.90625q0.28125 -0.15625 0.796875 -0.328125q0.515625 -0.171875 1.203125 -0.171875q0.953125 0 1.703125 0.3125q0.75 0.296875 1.265625 0.875q0.515625 0.5625 0.78125 1.390625q0.28125 0.828125 0.28125 1.875q0 0.890625 -0.265625 1.703125q-0.265625 0.796875 -0.8125 1.40625q-0.546875 0.609375 -1.375 0.96875q-0.828125 0.359375 -1.953125 0.359375q-0.859375 0 -1.65625 -0.25q-0.796875 -0.265625 -1.421875 -0.75q-0.609375 -0.5 -1.0 -1.203125q-0.390625 -0.71875 -0.421875 -1.640625l2.5 0q0.09375 0.859375 0.625 1.34375q0.53125 0.46875 1.359375 0.46875q0.515625 0 0.875 -0.1875q0.359375 -0.203125 0.578125 -0.53125q0.21875 -0.34375 0.328125 -0.796875q0.109375 -0.46875 0.109375 -1.015625q0 -0.53125 -0.140625 -0.96875q-0.125 -0.4375 -0.40625 -0.75q-0.265625 -0.328125 -0.6875 -0.5q-0.40625 -0.171875 -0.953125 -0.171875q-0.375 0 -0.65625 0.0625q-0.265625 0.0625 -0.484375 0.171875q-0.203125 0.09375 -0.375 0.234375q-0.15625 0.125 -0.296875 0.265625l-2.03125 -0.5z" fill-rule="nonzero"/><path fill="#000000" fill-opacity="0.0" d="m1.6443565 68.87718l76.56693 0l0 71.14961l-76.56693 0z" fill-rule="evenodd"/><path fill="#000000" d="m32.576 109.90324q0 -0.359375 0.109375 -0.65625q0.125 -0.3125 0.34375 -0.53125q0.234375 -0.21875 0.5625 -0.34375q0.3281212 -0.140625 0.7499962 -0.140625q0.40625 0 0.734375 0.140625q0.328125 0.125 0.546875 0.34375q0.21875 0.21875 0.34375 0.53125q0.125 0.296875 0.125 0.65625q0 0.34375 -0.125 0.65625q-0.125 0.296875 -0.34375 0.515625q-0.21875 0.21875 -0.546875 0.34375q-0.328125 0.140625 -0.734375 0.140625q-0.421875 0 -0.7499962 -0.140625q-0.328125 -0.125 -0.5625 -0.34375q-0.21875 -0.21875 -0.34375 -0.515625q-0.109375 -0.3125 -0.109375 -0.65625zm10.383068 -0.546875q1.015625 0 1.75 -0.21875q0.75 -0.21875 1.25 -0.625q0.515625 -0.421875 0.796875 -1.015625q0.28125 -0.59375 0.359375 -1.359375q-0.375 0.390625 -0.984375 0.671875q-0.59375 0.265625 -1.453125 0.265625q-0.953125 0 -1.671875 -0.34375q-0.71875 -0.34375 -1.203125 -0.9375q-0.484375 -0.609375 -0.734375 -1.421875q-0.25 -0.828125 -0.25 -1.765625q0 -0.96875 0.296875 -1.8125q0.3125 -0.859375 0.875 -1.484375q0.578125 -0.640625 1.390625 -1.015625q0.8125 -0.375 1.84375 -0.375q1.03125 0 1.859375 0.40625q0.828125 0.40625 1.40625 1.125q0.578125 0.71875 0.875 1.71875q0.3125 0.984375 0.3125 2.171875l0 0.875q0 1.578125 -0.390625 2.90625q-0.390625 1.328125 -1.21875 2.3125q-0.8125 0.96875 -2.078125 1.515625q-1.265625 0.53125 -3.015625 0.53125l-0.203125 0l0 -2.125l0.1875 0zm2.3125 -4.25q0.34375 0 0.640625 -0.09375q0.296875 -0.09375 0.53125 -0.265625q0.25 -0.1875 0.421875 -0.421875q0.1875 -0.25 0.296875 -0.53125l0 -0.90625q0 -0.71875 -0.15625 -1.265625q-0.140625 -0.546875 -0.40625 -0.90625q-0.265625 -0.375 -0.625 -0.546875q-0.359375 -0.1875 -0.765625 -0.1875q-0.4375 0 -0.796875 0.21875q-0.34375 0.203125 -0.59375 0.5625q-0.234375 0.359375 -0.359375 0.828125q-0.125 0.46875 -0.125 0.984375q0 0.5 0.109375 0.96875q0.125 0.46875 0.359375 0.8125q0.25 0.34375 0.609375 0.546875q0.375 0.203125 0.859375 0.203125z" fill-rule="nonzero"/><path fill="#000000" fill-opacity="0.0" d="m2.8150694 127.71072l76.566925 0l0 71.149605l-76.566925 0z" fill-rule="evenodd"/><path fill="#000000" d="m33.74671 168.73677q0 -0.359375 0.109375 -0.65625q0.125 -0.3125 0.34375 -0.53125q0.234375 -0.21875 0.5625 -0.34375q0.328125 -0.140625 0.75 -0.140625q0.40625 0 0.734375 0.140625q0.328125 0.125 0.546875 0.34375q0.21875 0.21875 0.34375 0.53125q0.125 0.296875 0.125 0.65625q0 0.34375 -0.125 0.65625q-0.125 0.296875 -0.34375 0.515625q-0.21875 0.21875 -0.546875 0.34375q-0.328125 0.140625 -0.734375 0.140625q-0.421875 0 -0.75 -0.140625q-0.328125 -0.125 -0.5625 -0.34375q-0.21875 -0.21875 -0.34375 -0.515625q-0.109375 -0.3125 -0.109375 -0.65625zm17.304947 -10.375l-5.171875 11.84375l-2.671875 0l5.171875 -11.203125l-6.65625 0l0 -2.0625l9.328125 0l0 1.421875z" fill-rule="nonzero"/><path fill="#000000" fill-opacity="0.0" d="m1.6443565 184.8055l76.56693 0l0 71.1496l-76.56693 0z" fill-rule="evenodd"/><path fill="#000000" d="m32.576 225.83154q0 -0.359375 0.109375 -0.65625q0.125 -0.3125 0.34375 -0.53125q0.234375 -0.21875 0.5625 -0.34375q0.3281212 -0.140625 0.7499962 -0.140625q0.40625 0 0.734375 0.140625q0.328125 0.125 0.546875 0.34375q0.21875 0.21875 0.34375 0.53125q0.125 0.296875 0.125 0.65625q0 0.34375 -0.125 0.65625q-0.125 0.296875 -0.34375 0.515625q-0.21875 0.21875 -0.546875 0.34375q-0.328125 0.140625 -0.734375 0.140625q-0.421875 0 -0.7499962 -0.140625q-0.328125 -0.125 -0.5625 -0.34375q-0.21875 -0.21875 -0.34375 -0.515625q-0.109375 -0.3125 -0.109375 -0.65625zm17.304943 1.46875l-9.046875 0l0 -1.734375l4.296875 -4.609375q0.5 -0.546875 0.84375 -0.984375q0.34375 -0.453125 0.5625 -0.8125q0.21875 -0.375 0.3125 -0.6875q0.09375 -0.328125 0.09375 -0.625q0 -0.453125 -0.125 -0.796875q-0.125 -0.34375 -0.359375 -0.578125q-0.234375 -0.25 -0.5625 -0.375q-0.328125 -0.125 -0.71875 -0.125q-1.046875 0 -1.5625 0.578125q-0.515625 0.578125 -0.515625 1.625l-2.53125 0q0 -0.875 0.328125 -1.65625q0.34375 -0.796875 0.953125 -1.390625q0.625 -0.59375 1.484375 -0.9375q0.875 -0.34375 1.9375 -0.34375q1.0 0 1.78125 0.296875q0.78125 0.28125 1.296875 0.796875q0.53125 0.5 0.796875 1.21875q0.28125 0.703125 0.28125 1.578125q0 0.65625 -0.203125 1.25q-0.203125 0.59375 -0.59375 1.1875q-0.375 0.578125 -0.90625 1.1875q-0.515625 0.59375 -1.171875 1.265625l-2.484375 2.640625l5.8125 0l0 2.03125z" fill-rule="nonzero"/><path fill="#000000" fill-opacity="0.0" d="m-0.43036902 241.94876l76.566925 0l0 71.1496l-76.566925 0z" fill-rule="evenodd"/><path fill="#000000" d="m30.501274 282.97482q0 -0.359375 0.109375 -0.65625q0.125 -0.3125 0.34375 -0.53125q0.234375 -0.21875 0.5625 -0.34375q0.3281231 -0.140625 0.7499962 -0.140625q0.40625 0 0.734375 0.140625q0.328125 0.125 0.546875 0.34375q0.21875 0.21875 0.34375 0.53125q0.125 0.296875 0.125 0.65625q0 0.34375 -0.125 0.65625q-0.125 0.296875 -0.34375 0.515625q-0.21875 0.21875 -0.546875 0.34375q-0.328125 0.140625 -0.734375 0.140625q-0.4218731 0 -0.7499962 -0.140625q-0.328125 -0.125 -0.5625 -0.34375q-0.21875 -0.21875 -0.34375 -0.515625q-0.109375 -0.3125 -0.109375 -0.65625zm17.304943 -10.375l-5.171875 11.84375l-2.671875 0l5.171875 -11.203125l-6.65625 0l0 -2.0625l9.328125 0l0 1.421875z" fill-rule="nonzero"/><path fill="#000000" fill-opacity="0.0" d="m0.74034435 300.7823l76.56693 0l0 71.1496l-76.56693 0z" fill-rule="evenodd"/><path fill="#000000" d="m31.671988 341.80835q0 -0.359375 0.109375 -0.65625q0.125 -0.3125 0.3437481 -0.53125q0.234375 -0.21875 0.5625 -0.34375q0.328125 -0.140625 0.75 -0.140625q0.40625 0 0.734375 0.140625q0.328125 0.125 0.546875 0.34375q0.21875 0.21875 0.34375 0.53125q0.125 0.296875 0.125 0.65625q0 0.34375 -0.125 0.65625q-0.125 0.296875 -0.34375 0.515625q-0.21875 0.21875 -0.546875 0.34375q-0.328125 0.140625 -0.734375 0.140625q-0.421875 0 -0.75 -0.140625q-0.328125 -0.125 -0.5625 -0.34375q-0.2187481 -0.21875 -0.3437481 -0.515625q-0.109375 -0.3125 -0.109375 -0.65625zm16.03932 -3.453125l1.53125 0l0 2.046875l-1.53125 0l0 2.875l-2.53125 0l0 -2.875l-5.515625 0l-0.109375 -1.59375l5.578125 -8.796875l2.578125 0l0 8.34375zm-5.65625 0l3.125 0l0 -4.9375l-0.25 0.4375l-2.875 4.5z" fill-rule="nonzero"/><path fill="#000000" fill-opacity="0.0" d="m-0.43036902 357.87708l76.566925 0l0 71.1496l-76.566925 0z" fill-rule="evenodd"/><path fill="#000000" d="m30.501274 398.9031q0 -0.359375 0.109375 -0.65625q0.125 -0.3125 0.34375 -0.53125q0.234375 -0.21875 0.5625 -0.34375q0.3281231 -0.140625 0.7499962 -0.140625q0.40625 0 0.734375 0.140625q0.328125 0.125 0.546875 0.34375q0.21875 0.21875 0.34375 0.53125q0.125 0.296875 0.125 0.65625q0 0.34375 -0.125 0.65625q-0.125 0.296875 -0.34375 0.515625q-0.21875 0.21875 -0.546875 0.34375q-0.328125 0.140625 -0.734375 0.140625q-0.4218731 0 -0.7499962 -0.140625q-0.328125 -0.125 -0.5625 -0.34375q-0.21875 -0.21875 -0.34375 -0.515625q-0.109375 -0.3125 -0.109375 -0.65625zm11.179943 -6.28125l1.375 0q1.046875 0 1.546875 -0.515625q0.5 -0.53125 0.5 -1.375q0 -0.390625 -0.125 -0.703125q-0.109375 -0.328125 -0.34375 -0.5625q-0.21875 -0.234375 -0.578125 -0.359375q-0.34375 -0.125 -0.796875 -0.125q-0.390625 0 -0.71875 0.109375q-0.328125 0.109375 -0.578125 0.3125q-0.25 0.203125 -0.40625 0.5q-0.140625 0.28125 -0.140625 0.65625l-2.53125 0q0 -0.8125 0.328125 -1.46875q0.328125 -0.671875 0.90625 -1.15625q0.59375 -0.484375 1.375 -0.75q0.796875 -0.265625 1.703125 -0.265625q0.984375 0 1.796875 0.25q0.828125 0.234375 1.40625 0.71875q0.59375 0.484375 0.90625 1.1875q0.328125 0.703125 0.328125 1.625q0 0.4375 -0.125 0.859375q-0.125 0.40625 -0.375 0.78125q-0.25 0.375 -0.609375 0.6875q-0.359375 0.3125 -0.84375 0.53125q0.5625 0.203125 0.96875 0.515625q0.40625 0.3125 0.671875 0.71875q0.265625 0.390625 0.390625 0.859375q0.125 0.46875 0.125 1.0q0 0.9375 -0.359375 1.671875q-0.34375 0.71875 -0.96875 1.21875q-0.625 0.484375 -1.484375 0.75q-0.84375 0.265625 -1.828125 0.265625q-0.84375 0 -1.65625 -0.234375q-0.796875 -0.234375 -1.4375 -0.703125q-0.625 -0.46875 -1.0 -1.171875q-0.375 -0.71875 -0.375 -1.6875l2.53125 0q0 0.390625 0.140625 0.71875q0.15625 0.3125 0.421875 0.546875q0.265625 0.234375 0.625 0.375q0.375 0.125 0.8125 0.125q0.96875 0 1.5 -0.515625q0.546875 -0.515625 0.546875 -1.390625q0 -0.53125 -0.15625 -0.90625q-0.140625 -0.390625 -0.4375 -0.625q-0.296875 -0.25 -0.71875 -0.375q-0.40625 -0.125 -0.9375 -0.125l-1.375 0l0 -1.96875z" fill-rule="nonzero"/><path fill="#000000" fill-opacity="0.0" d="m535.44104 216.01643l76.566956 0l0 71.14961l-76.566956 0z" fill-rule="evenodd"/><path fill="#000000" d="m566.3727 257.04248q0 -0.359375 0.109375 -0.65625q0.125 -0.3125 0.34375 -0.53125q0.234375 -0.21875 0.5625 -0.34375q0.328125 -0.140625 0.75 -0.140625q0.40625 0 0.734375 0.140625q0.328125 0.125 0.546875 0.34375q0.21875 0.21875 0.34375 0.53125q0.125 0.296875 0.125 0.65625q0 0.34375 -0.125 0.65625q-0.125 0.296875 -0.34375 0.515625q-0.21875 0.21875 -0.546875 0.34375q-0.328125 0.140625 -0.734375 0.140625q-0.421875 0 -0.75 -0.140625q-0.328125 -0.125 -0.5625 -0.34375q-0.21875 -0.21875 -0.34375 -0.515625q-0.109375 -0.3125 -0.109375 -0.65625zm15.351807 -11.90625l0 2.109375l-0.140625 0q-1.0 0 -1.78125 0.265625q-0.765625 0.265625 -1.3125 0.75q-0.53125 0.46875 -0.84375 1.15625q-0.3125 0.671875 -0.390625 1.5q0.203125 -0.234375 0.46875 -0.453125q0.28125 -0.21875 0.625 -0.390625q0.34375 -0.1875 0.734375 -0.296875q0.40625 -0.109375 0.875 -0.109375q0.9375 0 1.640625 0.359375q0.71875 0.359375 1.1875 0.984375q0.46875 0.609375 0.703125 1.421875q0.234375 0.8125 0.234375 1.71875q0 0.96875 -0.3125 1.796875q-0.3125 0.828125 -0.890625 1.4375q-0.5625 0.609375 -1.390625 0.96875q-0.8125 0.34375 -1.828125 0.34375q-1.0625 0 -1.921875 -0.390625q-0.859375 -0.40625 -1.453125 -1.109375q-0.59375 -0.703125 -0.921875 -1.65625q-0.328125 -0.96875 -0.328125 -2.109375l0 -0.96875q0 -1.578125 0.421875 -2.921875q0.4375 -1.34375 1.28125 -2.3125q0.84375 -0.984375 2.09375 -1.53125q1.265625 -0.5625 2.921875 -0.5625l0.328125 0zm-2.5 6.5625q-0.6875 0 -1.21875 0.375q-0.515625 0.359375 -0.78125 0.921875l0 0.75q0 0.734375 0.140625 1.28125q0.15625 0.546875 0.421875 0.90625q0.28125 0.359375 0.65625 0.546875q0.375 0.171875 0.8125 0.171875q0.4375 0 0.796875 -0.1875q0.375 -0.1875 0.625 -0.515625q0.265625 -0.328125 0.390625 -0.78125q0.140625 -0.453125 0.140625 -0.984375q0 -0.53125 -0.140625 -0.984375q-0.125 -0.46875 -0.390625 -0.796875q-0.25 -0.328125 -0.625 -0.515625q-0.359375 -0.1875 -0.828125 -0.1875z" fill-rule="nonzero"/><path fill="#000000" fill-opacity="0.0" d="m-4.8132877 0l91.40157 0l0 43.149605l-91.40157 0z" fill-rule="evenodd"/><path fill="#000000" d="m9.066408 13.654373l7.65625 0l0 2.0625l-2.578125 0l0 9.140625l2.578125 0l0 2.0625l-7.65625 0l0 -2.0625l2.515625 0l0 -9.140625l-2.515625 0l0 -2.0625zm13.008072 3.40625l0.15625 1.375q0.53125 -0.75 1.28125 -1.140625q0.765625 -0.40625 1.6875 -0.40625q0.734375 0 1.359375 0.21875q0.625 0.21875 1.0625 0.703125q0.453125 0.46875 0.703125 1.21875q0.25 0.75 0.25 1.828125l0 6.0625l-2.53125 0l0 -6.03125q0 -0.578125 -0.140625 -0.953125q-0.125 -0.390625 -0.375 -0.609375q-0.234375 -0.21875 -0.578125 -0.296875q-0.34375 -0.09375 -0.78125 -0.09375q-0.65625 0 -1.109375 0.265625q-0.453125 0.265625 -0.734375 0.71875l0 7.0l-2.546875 0l0 -9.859375l2.296875 0zm17.75807 5.015625q0 1.078125 -0.25 2.0q-0.25 0.921875 -0.75 1.59375q-0.484375 0.671875 -1.203125 1.0625q-0.71875 0.375 -1.640625 0.375q-0.796875 0 -1.40625 -0.265625q-0.59375 -0.28125 -1.03125 -0.78125l0 4.65625l-2.531248 0l0 -13.65625l2.328123 0l0.09375 0.96875q0.453125 -0.546875 1.078125 -0.84375q0.625 -0.296875 1.453125 -0.296875q0.9375 0 1.65625 0.359375q0.71875 0.359375 1.203125 1.015625q0.5 0.65625 0.75 1.578125q0.25 0.921875 0.25 2.046875l0 0.1875zm-2.53125 -0.1875q0 -0.609375 -0.125 -1.15625q-0.109375 -0.546875 -0.359375 -0.9375q-0.234375 -0.40625 -0.609375 -0.625q-0.375 -0.234375 -0.90625 -0.234375q-0.671875 0 -1.09375 0.265625q-0.421875 0.265625 -0.65625 0.734375l0 4.109375q0.234375 0.46875 0.65625 0.75q0.421875 0.28125 1.109375 0.28125q0.53125 0 0.90625 -0.234375q0.390625 -0.25 0.625 -0.65625q0.234375 -0.40625 0.34375 -0.953125q0.109375 -0.546875 0.109375 -1.15625l0 -0.1875zm11.148697 3.640625q-0.5 0.75 -1.203125 1.171875q-0.703125 0.40625 -1.546875 0.40625q-0.765625 0 -1.40625 -0.234375q-0.625 -0.234375 -1.078125 -0.75q-0.453125 -0.515625 -0.71875 -1.3125q-0.25 -0.796875 -0.25 -1.921875l0 -5.828125l2.546875 0l0 5.84375q0 0.609375 0.078125 1.015625q0.09375 0.40625 0.28125 0.65625q0.1875 0.25 0.5 0.359375q0.3125 0.109375 0.75 0.109375q0.765625 0 1.234375 -0.28125q0.46875 -0.28125 0.71875 -0.78125l0 -6.921875l2.546875 0l0 9.859375l-2.296875 0l-0.15625 -1.390625zm9.570572 -10.875l0 2.40625l3.6718788 0l0 1.875l-3.6718788 0l0 4.234375q0 0.53125 0.109375 0.890625q0.125 0.359375 0.34375 0.578125q0.234375 0.21875 0.5625 0.3125q0.3281288 0.078125 0.7187538 0.078125q0.296875 0 0.59375 -0.015625q0.3125 -0.03125 0.59375 -0.0625q0.28125 -0.046875 0.515625 -0.09375q0.25 -0.046875 0.421875 -0.09375l0.234375 1.734375q-0.25 0.15625 -0.609375 0.28125q-0.359375 0.109375 -0.765625 0.171875q-0.390625 0.078125 -0.828125 0.109375q-0.4375 0.046875 -0.8437538 0.046875q-0.8125 0 -1.484375 -0.203125q-0.65625 -0.21875 -1.125 -0.671875q-0.46875 -0.453125 -0.734375 -1.140625q-0.25 -0.703125 -0.25 -1.671875l0 -4.484375l-2.25 0l0 -1.875l2.25 0l0 -2.40625l2.546875 0zm12.898705 9.5625q0 -0.234375 -0.109375 -0.40625q-0.09375 -0.171875 -0.375 -0.3125q-0.265625 -0.15625 -0.71875 -0.28125q-0.4375 -0.125 -1.125 -0.265625q-0.859375 -0.171875 -1.578125 -0.421875q-0.703125 -0.265625 -1.21875 -0.625q-0.515625 -0.375 -0.796875 -0.859375q-0.28125 -0.484375 -0.28125 -1.109375q0 -0.609375 0.28125 -1.15625q0.296875 -0.5625 0.84375 -0.984375q0.546875 -0.421875 1.328125 -0.65625q0.78125 -0.25 1.765625 -0.25q1.03125 0 1.84375 0.234375q0.828125 0.234375 1.390625 0.671875q0.578125 0.421875 0.875 1.0q0.296875 0.578125 0.296875 1.265625l-2.53125 0q0 -0.578125 -0.46875 -0.953125q-0.453125 -0.390625 -1.40625 -0.390625q-0.890625 0 -1.34375 0.328125q-0.4375 0.3125 -0.4375 0.765625q0 0.21875 0.078125 0.40625q0.09375 0.1875 0.328125 0.34375q0.234375 0.140625 0.625 0.265625q0.40625 0.125 1.03125 0.21875q0.890625 0.140625 1.65625 0.375q0.765625 0.21875 1.3125 0.578125q0.5625 0.359375 0.875 0.875q0.328125 0.515625 0.328125 1.234375q0 0.65625 -0.328125 1.203125q-0.3125 0.546875 -0.890625 0.953125q-0.578125 0.40625 -1.40625 0.625q-0.8125 0.21875 -1.8125 0.21875q-1.109375 0 -1.96875 -0.28125q-0.859375 -0.296875 -1.4375 -0.765625q-0.5625 -0.46875 -0.859375 -1.0625q-0.296875 -0.59375 -0.296875 -1.203125l2.421875 0q0.015625 0.40625 0.203125 0.6875q0.203125 0.28125 0.5 0.46875q0.296875 0.171875 0.6875 0.265625q0.390625 0.078125 0.796875 0.078125q0.9375 0 1.421875 -0.296875q0.5 -0.3125 0.5 -0.78125z" fill-rule="nonzero"/><path fill="#b7b7b7" d="m47.731297 38.766403l0 16.425198l6.8425217 0l-13.6850395 13.6850395l-13.685041 -13.6850395l6.8425198 0l0 -16.425198z" fill-rule="evenodd"/><path fill="#b7b7b7" d="m580.8187 291.39108l0 16.425201l6.8425293 0l-13.685059 13.685028l-13.685059 -13.685028l6.8425293 0l0 -16.425201z" fill-rule="evenodd"/><path fill="#000000" fill-opacity="0.0" d="m528.2741 320.10236l91.40161 0l0 43.149628l-91.40161 0z" fill-rule="evenodd"/><path fill="#000000" d="m550.8413 341.36612q0 1.28125 -0.34375 2.359375q-0.328125 1.0625 -0.96875 1.84375q-0.640625 0.765625 -1.5625 1.203125q-0.90625 0.4375 -2.0625 0.4375q-1.140625 0 -2.03125 -0.4375q-0.890625 -0.4375 -1.515625 -1.203125q-0.609375 -0.78125 -0.921875 -1.84375q-0.3125 -1.078125 -0.3125 -2.359375l0 -1.9375q0 -1.265625 0.3125 -2.34375q0.3125 -1.078125 0.921875 -1.859375q0.625 -0.78125 1.5 -1.21875q0.890625 -0.4375 2.046875 -0.4375q1.15625 0 2.0625 0.4375q0.921875 0.4375 1.5625 1.21875q0.640625 0.78125 0.96875 1.859375q0.34375 1.078125 0.34375 2.34375l0 1.9375zm-2.59375 -1.953125q0 -0.8125 -0.140625 -1.484375q-0.125 -0.6875 -0.421875 -1.171875q-0.28125 -0.5 -0.71875 -0.78125q-0.4375 -0.28125 -1.0625 -0.28125q-0.625 0 -1.046875 0.28125q-0.421875 0.28125 -0.671875 0.78125q-0.25 0.484375 -0.359375 1.171875q-0.109375 0.671875 -0.109375 1.484375l0 1.953125q0 0.796875 0.109375 1.484375q0.109375 0.6875 0.359375 1.1875q0.25 0.5 0.671875 0.78125q0.421875 0.28125 1.046875 0.28125q0.625 0 1.0625 -0.28125q0.4375 -0.28125 0.71875 -0.78125q0.28125 -0.5 0.421875 -1.171875q0.140625 -0.6875 0.140625 -1.5l0 -1.953125zm10.898682 6.21875q-0.5 0.75 -1.203125 1.171875q-0.703125 0.40625 -1.546875 0.40625q-0.765625 0 -1.40625 -0.234375q-0.625 -0.234375 -1.078125 -0.75q-0.453125 -0.515625 -0.71875 -1.3125q-0.25 -0.796875 -0.25 -1.921875l0 -5.828125l2.546875 0l0 5.84375q0 0.609375 0.078125 1.015625q0.09375 0.40625 0.28125 0.65625q0.1875 0.25 0.5 0.359375q0.3125 0.109375 0.75 0.109375q0.765625 0 1.234375 -0.28125q0.46875 -0.28125 0.71875 -0.78125l0 -6.921875l2.546875 0l0 9.859375l-2.296875 0l-0.15625 -1.390625zm9.570618 -10.875l0 2.40625l3.671875 0l0 1.875l-3.671875 0l0 4.234375q0 0.53125 0.109375 0.890625q0.125 0.359375 0.34375 0.578125q0.234375 0.21875 0.5625 0.3125q0.328125 0.078125 0.71875 0.078125q0.296875 0 0.59375 -0.015625q0.3125 -0.03125 0.59375 -0.0625q0.28125 -0.046875 0.515625 -0.09375q0.25 -0.046875 0.421875 -0.09375l0.234375 1.734375q-0.25 0.15625 -0.609375 0.28125q-0.359375 0.109375 -0.765625 0.171875q-0.390625 0.078125 -0.828125 0.109375q-0.4375 0.046875 -0.84375 0.046875q-0.8125 0 -1.484375 -0.203125q-0.65625 -0.21875 -1.125 -0.671875q-0.46875 -0.453125 -0.734375 -1.140625q-0.25 -0.703125 -0.25 -1.671875l0 -4.484375l-2.25 0l0 -1.875l2.25 0l0 -2.40625l2.546875 0zm15.398682 7.421875q0 1.078125 -0.25 2.0q-0.25 0.921875 -0.75 1.59375q-0.484375 0.671875 -1.203125 1.0625q-0.71875 0.375 -1.640625 0.375q-0.796875 0 -1.40625 -0.265625q-0.59375 -0.28125 -1.03125 -0.78125l0 4.65625l-2.53125 0l0 -13.65625l2.328125 0l0.09375 0.96875q0.453125 -0.546875 1.078125 -0.84375q0.625 -0.296875 1.453125 -0.296875q0.9375 0 1.65625 0.359375q0.71875 0.359375 1.203125 1.015625q0.5 0.65625 0.75 1.578125q0.25 0.921875 0.25 2.046875l0 0.1875zm-2.53125 -0.1875q0 -0.609375 -0.125 -1.15625q-0.109375 -0.546875 -0.359375 -0.9375q-0.234375 -0.40625 -0.609375 -0.625q-0.375 -0.234375 -0.90625 -0.234375q-0.671875 0 -1.09375 0.265625q-0.421875 0.265625 -0.65625 0.734375l0 4.109375q0.234375 0.46875 0.65625 0.75q0.421875 0.28125 1.109375 0.28125q0.53125 0 0.90625 -0.234375q0.390625 -0.25 0.625 -0.65625q0.234375 -0.40625 0.34375 -0.953125q0.109375 -0.546875 0.109375 -1.15625l0 -0.1875zm11.148682 3.640625q-0.5 0.75 -1.203125 1.171875q-0.703125 0.40625 -1.546875 0.40625q-0.765625 0 -1.40625 -0.234375q-0.625 -0.234375 -1.078125 -0.75q-0.453125 -0.515625 -0.71875 -1.3125q-0.25 -0.796875 -0.25 -1.921875l0 -5.828125l2.546875 0l0 5.84375q0 0.609375 0.078125 1.015625q0.09375 0.40625 0.28125 0.65625q0.1875 0.25 0.5 0.359375q0.3125 0.109375 0.75 0.109375q0.765625 0 1.234375 -0.28125q0.46875 -0.28125 0.71875 -0.78125l0 -6.921875l2.546875 0l0 9.859375l-2.296875 0l-0.15625 -1.390625zm9.570557 -10.875l0 2.40625l3.671875 0l0 1.875l-3.671875 0l0 4.234375q0 0.53125 0.109375 0.890625q0.125 0.359375 0.34375 0.578125q0.234375 0.21875 0.5625 0.3125q0.328125 0.078125 0.71875 0.078125q0.296875 0 0.59375 -0.015625q0.3125 -0.03125 0.59375 -0.0625q0.28125 -0.046875 0.515625 -0.09375q0.25 -0.046875 0.421875 -0.09375l0.234375 1.734375q-0.25 0.15625 -0.609375 0.28125q-0.359375 0.109375 -0.765625 0.171875q-0.390625 0.078125 -0.828125 0.109375q-0.4375 0.046875 -0.84375 0.046875q-0.8125 0 -1.484375 -0.203125q-0.65625 -0.21875 -1.125 -0.671875q-0.46875 -0.453125 -0.734375 -1.140625q-0.25 -0.703125 -0.25 -1.671875l0 -4.484375l-2.25 0l0 -1.875l2.25 0l0 -2.40625l2.546875 0z" fill-rule="nonzero"/></g></svg>