<svg version="1.1" viewBox="0.0 0.0 332.0 268.0" fill="none" stroke="none" stroke-linecap="square" stroke-miterlimit="10" xmlns:xlink="http://www.w3.org/1999/xlink" xmlns="http://www.w3.org/2000/svg"><clipPath id="p.0"><path d="m0 0l332.0 0l0 268.0l-332.0 0l0 -268.0z" clip-rule="nonzero"/></clipPath><g clip-path="url(#p.0)"><path fill="#000000" fill-opacity="0.0" d="m0 0l332.0 0l0 268.0l-332.0 0z" fill-rule="evenodd"/><path fill="#eeeeee" d="m22.871244 7.062992l71.769615 0l0 0c9.402016 0 17.023857 5.166563 17.023857 11.539843c0 6.3732796 -7.6218414 11.539843 -17.023857 11.539843l-71.769615 0l0 0c-9.402013 0 -17.023851 -5.166563 -17.023851 -11.539843c0 -6.3732796 7.621838 -11.539843 17.023851 -11.539843z" fill-rule="evenodd"/><path stroke="#595959" stroke-width="1.0" stroke-linejoin="round" stroke-linecap="butt" d="m22.871244 7.062992l71.769615 0l0 0c9.402016 0 17.023857 5.166563 17.023857 11.539843c0 6.3732796 -7.6218414 11.539843 -17.023857 11.539843l-71.769615 0l0 0c-9.402013 0 -17.023851 -5.166563 -17.023851 -11.539843c0 -6.3732796 7.621838 -11.539843 17.023851 -11.539843z" fill-rule="evenodd"/><path fill="#000000" d="m44.728867 22.342834l0 -7.625l2.859375 0q0.875 0 1.40625 0.234375q0.53125 0.21875 0.828125 0.703125q0.296875 0.484375 0.296875 1.015625q0 0.484375 -0.265625 0.921875q-0.265625 0.421875 -0.796875 0.6875q0.6875 0.203125 1.0625 0.703125q0.375 0.484375 0.375 1.140625q0 0.546875 -0.234375 1.015625q-0.21875 0.453125 -0.5625 0.703125q-0.328125 0.25 -0.828125 0.375q-0.5 0.125 -1.234375 0.125l-2.90625 0zm1.015625 -4.421875l1.640625 0q0.671875 0 0.96875 -0.09375q0.375 -0.109375 0.5625 -0.375q0.203125 -0.265625 0.203125 -0.671875q0 -0.375 -0.1875 -0.65625q-0.171875 -0.296875 -0.515625 -0.40625q-0.328125 -0.109375 -1.15625 -0.109375l-1.515625 0l0 2.3125zm0 3.515625l1.890625 0q0.484375 0 0.6875 -0.03125q0.34375 -0.0625 0.578125 -0.203125q0.234375 -0.15625 0.390625 -0.421875q0.15625 -0.28125 0.15625 -0.65625q0 -0.421875 -0.21875 -0.734375q-0.21875 -0.3125 -0.609375 -0.4375q-0.390625 -0.125 -1.125 -0.125l-1.75 0l0 2.609375zm9.7951355 -0.875l0.96875 0.125q-0.234375 0.84375 -0.859375 1.3125q-0.609375 0.46875 -1.578125 0.46875q-1.203125 0 -1.921875 -0.75q-0.703125 -0.75 -0.703125 -2.09375q0 -1.390625 0.71875 -2.15625q0.71875 -0.78125 1.859375 -0.78125q1.109375 0 1.8125 0.765625q0.703125 0.75 0.703125 2.125q0 0.078125 0 0.234375l-4.125 0q0.046875 0.921875 0.515625 1.40625q0.46875 0.484375 1.15625 0.484375q0.515625 0 0.875 -0.265625q0.359375 -0.28125 0.578125 -0.875zm-3.078125 -1.515625l3.09375 0q-0.0625 -0.6875 -0.359375 -1.046875q-0.453125 -0.53125 -1.15625 -0.53125q-0.640625 0 -1.09375 0.4375q-0.4375 0.421875 -0.484375 1.140625zm4.7233734 3.296875l0 -0.765625l3.515625 -4.03125q-0.59375 0.03125 -1.046875 0.03125l-2.25 0l0 -0.765625l4.515625 0l0 0.625l-3.0 3.5l-0.578125 0.640625q0.640625 -0.046875 1.1875 -0.046875l2.546875 0l0 0.8125l-4.890625 0zm5.484375 -2.765625q0 -1.53125 0.84375 -2.265625q0.71875 -0.625 1.734375 -0.625q1.140625 0 1.859375 0.75q0.734375 0.75 0.734375 2.0625q0 1.0625 -0.328125 1.6875q-0.3125 0.609375 -0.921875 0.953125q-0.609375 0.328125 -1.34375 0.328125q-1.15625 0 -1.875 -0.734375q-0.703125 -0.75 -0.703125 -2.15625zm0.953125 0q0 1.0625 0.46875 1.59375q0.46875 0.53125 1.15625 0.53125q0.703125 0 1.15625 -0.53125q0.46875 -0.53125 0.46875 -1.625q0 -1.015625 -0.46875 -1.546875q-0.453125 -0.53125 -1.15625 -0.53125q-0.6875 0 -1.15625 0.53125q-0.46875 0.515625 -0.46875 1.578125zm4.9421234 1.109375l0.921875 -0.140625q0.078125 0.5625 0.4375 0.859375q0.359375 0.296875 1.0 0.296875q0.640625 0 0.953125 -0.265625q0.3125 -0.265625 0.3125 -0.625q0 -0.3125 -0.28125 -0.5q-0.1875 -0.125 -0.953125 -0.3125q-1.03125 -0.265625 -1.4375 -0.453125q-0.390625 -0.1875 -0.59375 -0.515625q-0.203125 -0.34375 -0.203125 -0.75q0 -0.359375 0.171875 -0.671875q0.171875 -0.328125 0.453125 -0.53125q0.21875 -0.15625 0.59375 -0.265625q0.390625 -0.125 0.8125 -0.125q0.65625 0 1.140625 0.1875q0.5 0.1875 0.734375 0.515625q0.234375 0.3125 0.3125 0.859375l-0.90625 0.125q-0.0625 -0.4375 -0.375 -0.671875q-0.296875 -0.234375 -0.828125 -0.234375q-0.65625 0 -0.9375 0.21875q-0.265625 0.203125 -0.265625 0.484375q0 0.1875 0.109375 0.328125q0.125 0.15625 0.359375 0.25q0.140625 0.0625 0.828125 0.25q1.0 0.265625 1.390625 0.4375q0.390625 0.15625 0.609375 0.484375q0.234375 0.3125 0.234375 0.796875q0 0.46875 -0.28125 0.890625q-0.265625 0.40625 -0.78125 0.640625q-0.515625 0.21875 -1.171875 0.21875q-1.078125 0 -1.640625 -0.4375q-0.5625 -0.453125 -0.71875 -1.34375z" fill-rule="nonzero"/><path fill="#eeeeee" d="m237.859 7.06168l71.76961 0l0 0c9.402008 0 17.023865 5.166563 17.023865 11.539843c0 6.3732796 -7.6218567 11.539843 -17.023865 11.539843l-71.76961 0l0 0c-9.402023 0 -17.023865 -5.166563 -17.023865 -11.539843c0 -6.3732796 7.6218414 -11.539843 17.023865 -11.539843z" fill-rule="evenodd"/><path stroke="#595959" stroke-width="1.0" stroke-linejoin="round" stroke-linecap="butt" d="m237.859 7.06168l71.76961 0l0 0c9.402008 0 17.023865 5.166563 17.023865 11.539843c0 6.3732796 -7.6218567 11.539843 -17.023865 11.539843l-71.76961 0l0 0c-9.402023 0 -17.023865 -5.166563 -17.023865 -11.539843c0 -6.3732796 7.6218414 -11.539843 17.023865 -11.539843z" fill-rule="evenodd"/><path fill="#000000" d="m261.81094 22.341522l0 -7.625l1.515625 0l1.796875 5.390625q0.25 0.765625 0.375 1.140625q0.125 -0.421875 0.40625 -1.234375l1.828125 -5.296875l1.34375 0l0 7.625l-0.96875 0l0 -6.390625l-2.21875 6.390625l-0.90625 0l-2.203125 -6.5l0 6.5l-0.96875 0zm12.4079895 0l0 -0.8125q-0.65625 0.9375 -1.75 0.9375q-0.5 0 -0.921875 -0.1875q-0.421875 -0.1875 -0.625 -0.46875q-0.203125 -0.28125 -0.296875 -0.703125q-0.046875 -0.265625 -0.046875 -0.875l0 -3.421875l0.9375 0l0 3.0625q0 0.734375 0.046875 1.0q0.09375 0.359375 0.375 0.578125q0.296875 0.203125 0.703125 0.203125q0.421875 0 0.796875 -0.203125q0.375 -0.21875 0.515625 -0.59375q0.15625 -0.375 0.15625 -1.078125l0 -2.96875l0.9375 0l0 5.53125l-0.828125 0zm1.9264832 -1.65625l0.921875 -0.140625q0.078125 0.5625 0.4375 0.859375q0.359375 0.296875 1.0 0.296875q0.640625 0 0.953125 -0.265625q0.3125 -0.265625 0.3125 -0.625q0 -0.3125 -0.28125 -0.5q-0.1875 -0.125 -0.953125 -0.3125q-1.03125 -0.265625 -1.4375 -0.453125q-0.390625 -0.1875 -0.59375 -0.515625q-0.203125 -0.34375 -0.203125 -0.75q0 -0.359375 0.171875 -0.671875q0.171875 -0.328125 0.453125 -0.53125q0.21875 -0.15625 0.59375 -0.265625q0.390625 -0.125 0.8125 -0.125q0.65625 0 1.140625 0.1875q0.5 0.1875 0.734375 0.515625q0.234375 0.3125 0.3125 0.859375l-0.90625 0.125q-0.0625 -0.4375 -0.375 -0.671875q-0.296875 -0.234375 -0.828125 -0.234375q-0.65625 0 -0.9375 0.21875q-0.265625 0.203125 -0.265625 0.484375q0 0.1875 0.109375 0.328125q0.125 0.15625 0.359375 0.25q0.140625 0.0625 0.828125 0.25q1.0 0.265625 1.390625 0.4375q0.390625 0.15625 0.609375 0.484375q0.234375 0.3125 0.234375 0.796875q0 0.46875 -0.28125 0.890625q-0.265625 0.40625 -0.78125 0.640625q-0.515625 0.21875 -1.171875 0.21875q-1.078125 0 -1.640625 -0.4375q-0.5625 -0.453125 -0.71875 -1.34375zm5.703125 1.65625l0 -7.625l0.9375 0l0 4.34375l2.21875 -2.25l1.21875 0l-2.125 2.0625l2.328125 3.46875l-1.15625 0l-1.8125 -2.828125l-0.671875 0.640625l0 2.1875l-0.9375 0z" fill-rule="nonzero"/><path fill="#eeeeee" d="m57.236706 82.8727l55.781513 0l0 0c7.3075256 0 13.231445 5.166565 13.231445 11.539841c0 6.3732834 -5.9239197 11.539841 -13.231445 11.539841l-55.781513 0l0 0c-7.3075256 0 -13.231449 -5.1665573 -13.231449 -11.539841c0 -6.3732758 5.9239235 -11.539841 13.231449 -11.539841z" fill-rule="evenodd"/><path stroke="#595959" stroke-width="1.0" stroke-linejoin="round" stroke-linecap="butt" d="m57.236706 82.8727l55.781513 0l0 0c7.3075256 0 13.231445 5.166565 13.231445 11.539841c0 6.3732834 -5.9239197 11.539841 -13.231445 11.539841l-55.781513 0l0 0c-7.3075256 0 -13.231449 -5.1665573 -13.231449 -11.539841c0 -6.3732758 5.9239235 -11.539841 13.231449 -11.539841z" fill-rule="evenodd"/><path fill="#000000" d="m59.551662 98.15255l0 -7.625l2.859375 0q0.875 0 1.40625 0.234375q0.5312538 0.21875 0.8281288 0.703125q0.296875 0.484375 0.296875 1.015625q0 0.484375 -0.265625 0.921875q-0.265625 0.421875 -0.7968788 0.6875q0.6875038 0.203125 1.0625038 0.703125q0.375 0.484375 0.375 1.140625q0 0.546875 -0.234375 1.015625q-0.21875 0.453125 -0.5625 0.703125q-0.328125 0.25 -0.8281288 0.375q-0.5 0.125 -1.234375 0.125l-2.90625 0zm1.015625 -4.421875l1.640625 0q0.671875 0 0.96875 -0.09375q0.375 -0.109375 0.5625 -0.375q0.203125 -0.265625 0.203125 -0.671875q0 -0.375 -0.1875 -0.65625q-0.171875 -0.296875 -0.515625 -0.40625q-0.328125 -0.109375 -1.15625 -0.109375l-1.515625 0l0 2.3125zm0 3.515625l1.890625 0q0.484375 0 0.6875 -0.03125q0.34375 -0.0625 0.578125 -0.203125q0.234375 -0.15625 0.3906288 -0.421875q0.15625 -0.28125 0.15625 -0.65625q0 -0.421875 -0.21875 -0.734375q-0.21875381 -0.3125 -0.6093788 -0.4375q-0.390625 -0.125 -1.125 -0.125l-1.75 0l0 2.609375zm5.9982643 0.90625l0 -7.625l0.9375 0l0 7.625l-0.9375 0zm6.0081024 0l0 -0.8125q-0.65625 0.9375 -1.75 0.9375q-0.5 0 -0.921875 -0.1875q-0.421875 -0.1875 -0.625 -0.46875q-0.203125 -0.28125 -0.296875 -0.703125q-0.046875 -0.265625 -0.046875 -0.875l0 -3.421875l0.9375 0l0 3.0625q0 0.734375 0.046875 1.0q0.09375 0.359375 0.375 0.578125q0.296875 0.203125 0.703125 0.203125q0.421875 0 0.796875 -0.203125q0.375 -0.21875 0.515625 -0.59375q0.15625 -0.375 0.15625 -1.078125l0 -2.96875l0.9375 0l0 5.53125l-0.828125 0zm6.0827484 -1.78125l0.96875 0.125q-0.234375 0.84375 -0.859375 1.3125q-0.609375 0.46875 -1.578125 0.46875q-1.203125 0 -1.921875 -0.75q-0.703125 -0.75 -0.703125 -2.09375q0 -1.390625 0.71875 -2.15625q0.71875 -0.78125 1.859375 -0.78125q1.109375 0 1.8125 0.765625q0.703125 0.75 0.703125 2.125q0 0.078125 0 0.234375l-4.125 0q0.046875 0.921875 0.515625 1.40625q0.46875 0.484375 1.15625 0.484375q0.515625 0 0.875 -0.265625q0.359375 -0.28125 0.578125 -0.875zm-3.078125 -1.515625l3.09375 0q-0.0625 -0.6875 -0.359375 -1.046875q-0.453125 -0.53125 -1.15625 -0.53125q-0.640625 0 -1.09375 0.4375q-0.4375 0.421875 -0.484375 1.140625zm7.996521 -0.421875q0 -1.890625 1.015625 -2.96875q1.03125 -1.078125 2.640625 -1.078125q1.046875 0 1.890625 0.515625q0.859375 0.5 1.296875 1.40625q0.453125 0.890625 0.453125 2.046875q0 1.15625 -0.46875 2.078125q-0.46875 0.90625 -1.328125 1.375q-0.859375 0.46875 -1.859375 0.46875q-1.078125 0 -1.921875 -0.515625q-0.84375 -0.515625 -1.28125 -1.40625q-0.4375 -0.90625 -0.4375 -1.921875zm1.046875 0.015625q0 1.375 0.734375 2.171875q0.734375 0.796875 1.859375 0.796875q1.140625 0 1.875 -0.796875q0.734375 -0.8125 0.734375 -2.28125q0 -0.921875 -0.3125 -1.609375q-0.3125 -0.703125 -0.921875 -1.078125q-0.609375 -0.390625 -1.359375 -0.390625q-1.078125 0 -1.84375 0.734375q-0.765625 0.734375 -0.765625 2.453125zm7.4137726 3.703125l0 -5.53125l0.84375 0l0 0.84375q0.328125 -0.59375 0.59375 -0.78125q0.28125 -0.1875 0.609375 -0.1875q0.46875 0 0.953125 0.3125l-0.3125 0.859375q-0.34375 -0.203125 -0.6875 -0.203125q-0.3125 0 -0.5625 0.1875q-0.234375 0.1875 -0.34375 0.515625q-0.15625 0.5 -0.15625 1.09375l0 2.890625l-0.9375 0zm3.5642395 -6.546875l0 -1.078125l0.9375 0l0 1.078125l-0.9375 0zm0 6.546875l0 -5.53125l0.9375 0l0 5.53125l-0.9375 0zm2.1956024 0.453125l0.90625 0.140625q0.0625 0.421875 0.328125 0.609375q0.34375 0.265625 0.9375 0.265625q0.65625 0 1.0 -0.265625q0.359375 -0.25 0.484375 -0.71875q0.078125 -0.296875 0.078125 -1.203125q-0.625 0.71875 -1.53125 0.71875q-1.140625 0 -1.765625 -0.8125q-0.625 -0.828125 -0.625 -1.984375q0 -0.78125 0.28125 -1.453125q0.296875 -0.671875 0.828125 -1.03125q0.546875 -0.375 1.28125 -0.375q0.984375 0 1.609375 0.796875l0 -0.671875l0.875 0l0 4.78125q0 1.296875 -0.265625 1.828125q-0.265625 0.546875 -0.84375 0.859375q-0.5625 0.3125 -1.390625 0.3125q-0.984375 0 -1.59375 -0.453125q-0.609375 -0.4375 -0.59375 -1.34375zm0.78125 -3.3125q0 1.078125 0.421875 1.578125q0.4375 0.5 1.078125 0.5q0.65625 0 1.09375 -0.484375q0.4375 -0.5 0.4375 -1.5625q0 -1.015625 -0.453125 -1.53125q-0.453125 -0.515625 -1.09375 -0.515625q-0.609375 0 -1.046875 0.515625q-0.4375 0.5 -0.4375 1.5zm5.3171234 -3.6875l0 -1.078125l0.9375 0l0 1.078125l-0.9375 0zm0 6.546875l0 -5.53125l0.9375 0l0 5.53125l-0.9375 0zm2.3674774 0l0 -5.53125l0.84375 0l0 0.796875q0.609375 -0.921875 1.75 -0.921875q0.5 0 0.921875 0.1875q0.421875 0.171875 0.625 0.46875q0.21875 0.296875 0.296875 0.6875q0.046875 0.265625 0.046875 0.921875l0 3.390625l-0.9375 0l0 -3.359375q0 -0.578125 -0.109375 -0.859375q-0.109375 -0.28125 -0.390625 -0.453125q-0.265625 -0.171875 -0.640625 -0.171875q-0.59375 0 -1.03125 0.390625q-0.4375 0.375 -0.4375 1.4375l0 3.015625l-0.9375 0z" fill-rule="nonzero"/><path fill="#eeeeee" d="m54.445812 165.6916l49.575443 0l0 0c6.494522 0 11.759369 5.166565 11.759369 11.539841c0 6.3732758 -5.264847 11.539841 -11.759369 11.539841l-49.575443 0l0 0c-6.4945183 0 -11.759365 -5.166565 -11.759365 -11.539841c0 -6.3732758 5.264847 -11.539841 11.759365 -11.539841z" fill-rule="evenodd"/><path stroke="#595959" stroke-width="1.0" stroke-linejoin="round" stroke-linecap="butt" d="m54.445812 165.6916l49.575443 0l0 0c6.494522 0 11.759369 5.166565 11.759369 11.539841c0 6.3732758 -5.264847 11.539841 -11.759369 11.539841l-49.575443 0l0 0c-6.4945183 0 -11.759365 -5.166565 -11.759365 -11.539841c0 -6.3732758 5.264847 -11.539841 11.759365 -11.539841z" fill-rule="evenodd"/><path fill="#000000" d="m59.671913 180.97145l2.921875 -7.625l1.09375 0l3.125 7.625l-1.15625 0l-0.890625 -2.3125l-3.1875 0l-0.828125 2.3125l-1.078125 0zm2.203125 -3.125l2.578125 0l-0.796875 -2.125q-0.359375 -0.953125 -0.53125 -1.578125q-0.15625 0.734375 -0.421875 1.453125l-0.828125 2.25zm5.6232605 3.125l0 -5.53125l0.84375 0l0 0.78125q0.25 -0.40625 0.6875 -0.65625q0.4375 -0.25 0.984375 -0.25q0.609375 0 1.0 0.265625q0.390625 0.25 0.5625 0.703125q0.65625 -0.96875 1.703125 -0.96875q0.828125 0 1.265625 0.46875q0.4375 0.453125 0.4375 1.390625l0 3.796875l-0.921875 0l0 -3.484375q0 -0.5625 -0.09375 -0.796875q-0.09375 -0.25 -0.34375 -0.40625q-0.234375 -0.15625 -0.546875 -0.15625q-0.59375 0 -0.984375 0.390625q-0.375 0.390625 -0.375 1.25l0 3.203125l-0.9375 0l0 -3.59375q0 -0.625 -0.234375 -0.9375q-0.21875 -0.3125 -0.75 -0.3125q-0.390625 0 -0.734375 0.21875q-0.328125 0.203125 -0.484375 0.609375q-0.140625 0.390625 -0.140625 1.15625l0 2.859375l-0.9375 0zm12.4861145 -0.6875q-0.53125 0.453125 -1.015625 0.640625q-0.46875 0.171875 -1.015625 0.171875q-0.921875 0 -1.40625 -0.4375q-0.484375 -0.453125 -0.484375 -1.140625q0 -0.40625 0.171875 -0.734375q0.1875 -0.34375 0.484375 -0.546875q0.3125 -0.203125 0.6875 -0.3125q0.265625 -0.0625 0.828125 -0.140625q1.125 -0.125 1.671875 -0.3125q0 -0.203125 0 -0.25q0 -0.578125 -0.265625 -0.8125q-0.359375 -0.3125 -1.0625 -0.3125q-0.65625 0 -0.984375 0.234375q-0.3125 0.234375 -0.453125 0.8125l-0.921875 -0.125q0.125 -0.578125 0.40625 -0.9375q0.296875 -0.375 0.828125 -0.5625q0.546875 -0.203125 1.25 -0.203125q0.71875 0 1.15625 0.171875q0.4375 0.171875 0.640625 0.421875q0.21875 0.25 0.296875 0.640625q0.046875 0.234375 0.046875 0.859375l0 1.25q0 1.296875 0.0625 1.65625q0.0625 0.34375 0.234375 0.65625l-0.96875 0q-0.15625 -0.296875 -0.1875 -0.6875zm-0.078125 -2.078125q-0.515625 0.203125 -1.53125 0.34375q-0.578125 0.078125 -0.828125 0.1875q-0.234375 0.109375 -0.359375 0.3125q-0.125 0.1875 -0.125 0.4375q0 0.375 0.28125 0.625q0.28125 0.25 0.828125 0.25q0.53125 0 0.953125 -0.234375q0.421875 -0.234375 0.625 -0.65625q0.15625 -0.3125 0.15625 -0.9375l0 -0.328125zm1.8952484 2.765625l0 -0.765625l3.515625 -4.03125q-0.59375 0.03125 -1.046875 0.03125l-2.25 0l0 -0.765625l4.515625 0l0 0.625l-3.0 3.5l-0.578125 0.640625q0.640625 -0.046875 1.1875 -0.046875l2.546875 0l0 0.8125l-4.890625 0zm5.484375 -2.765625q0 -1.53125 0.84375 -2.265625q0.71875 -0.625 1.734375 -0.625q1.140625 0 1.859375 0.75q0.734375 0.75 0.734375 2.0625q0 1.0625 -0.328125 1.6875q-0.3125 0.609375 -0.921875 0.953125q-0.609375 0.328125 -1.34375 0.328125q-1.15625 0 -1.875 -0.734375q-0.703125 -0.75 -0.703125 -2.15625zm0.953125 0q0 1.0625 0.46875 1.59375q0.46875 0.53125 1.15625 0.53125q0.703125 0 1.15625 -0.53125q0.46875 -0.53125 0.46875 -1.625q0 -1.015625 -0.46875 -1.546875q-0.453125 -0.53125 -1.15625 -0.53125q-0.6875 0 -1.15625 0.53125q-0.46875 0.515625 -0.46875 1.578125zm5.3171234 2.765625l0 -5.53125l0.84375 0l0 0.796875q0.609375 -0.921875 1.75 -0.921875q0.5 0 0.921875 0.1875q0.421875 0.171875 0.625 0.46875q0.21875 0.296875 0.296875 0.6875q0.046875 0.265625 0.046875 0.921875l0 3.390625l-0.9375 0l0 -3.359375q0 -0.578125 -0.109375 -0.859375q-0.109375 -0.28125 -0.390625 -0.453125q-0.265625 -0.171875 -0.640625 -0.171875q-0.59375 0 -1.03125 0.390625q-0.4375 0.375 -0.4375 1.4375l0 3.015625l-0.9375 0z" fill-rule="nonzero"/><path fill="#eeeeee" d="m56.944275 125.18767l60.103447 0l0 0c7.8737183 0 14.25663 5.166565 14.25663 11.539841c0 6.3732758 -6.3829117 11.539841 -14.25663 11.539841l-60.103447 0l0 0c-7.8737144 0 -14.256622 -5.166565 -14.256622 -11.539841c0 -6.3732758 6.382908 -11.539841 14.256622 -11.539841z" fill-rule="evenodd"/><path stroke="#595959" stroke-width="1.0" stroke-linejoin="round" stroke-linecap="butt" d="m56.944275 125.18767l60.103447 0l0 0c7.8737183 0 14.25663 5.166565 14.25663 11.539841c0 6.3732758 -6.3829117 11.539841 -14.25663 11.539841l-60.103447 0l0 0c-7.8737144 0 -14.256622 -5.166565 -14.256622 -11.539841c0 -6.3732758 6.382908 -11.539841 14.256622 -11.539841z" fill-rule="evenodd"/><path fill="#000000" d="m61.213604 133.9675l-2.03125 -7.6249924l1.046875 0l1.15625 4.9999924q0.1875 0.78125 0.328125 1.5625q0.28125 -1.234375 0.328125 -1.421875l1.453125 -5.1406174l1.2187538 0l1.09375 3.8593674q0.421875 1.4375 0.59375 2.703125q0.15625 -0.734375 0.390625 -1.65625l1.1875 -4.9062424l1.015625 0l-2.09375 7.6249924l-0.96875 0l-1.609375 -5.8125q-0.203125 -0.7343674 -0.234375 -0.8906174q-0.12500381 0.515625 -0.23437881 0.8906174l-1.609375 5.8125l-1.03125 0zm11.818302 -0.6875q-0.53125 0.453125 -1.015625 0.640625q-0.46875 0.171875 -1.015625 0.171875q-0.921875 0 -1.40625 -0.4375q-0.484375 -0.453125 -0.484375 -1.140625q0 -0.40625 0.171875 -0.734375q0.1875 -0.34375 0.484375 -0.546875q0.3125 -0.203125 0.6875 -0.3125q0.265625 -0.0625 0.828125 -0.140625q1.125 -0.125 1.671875 -0.3125q0 -0.203125 0 -0.25q0 -0.578125 -0.265625 -0.8125q-0.359375 -0.3125 -1.0625 -0.3125q-0.65625 0 -0.984375 0.234375q-0.3125 0.234375 -0.453125 0.8125l-0.921875 -0.125q0.125 -0.578125 0.40625 -0.9375q0.296875 -0.375 0.828125 -0.5625q0.546875 -0.203125 1.25 -0.203125q0.71875 0 1.15625 0.171875q0.4375 0.171875 0.640625 0.421875q0.21875 0.25 0.296875 0.640625q0.046875 0.234375 0.046875 0.859375l0 1.25q0 1.296875 0.0625 1.65625q0.0625 0.34375 0.234375 0.65625l-0.96875 0q-0.15625 -0.296875 -0.1875 -0.6875zm-0.078125 -2.078125q-0.515625 0.203125 -1.53125 0.34375q-0.578125 0.078125 -0.828125 0.1875q-0.234375 0.109375 -0.359375 0.3125q-0.125 0.1875 -0.125 0.4375q0 0.375 0.28125 0.625q0.28125 0.25 0.828125 0.25q0.53125 0 0.953125 -0.234375q0.421875 -0.234375 0.625 -0.65625q0.15625 -0.3125 0.15625 -0.9375l0 -0.328125zm2.0202484 1.109375l0.921875 -0.140625q0.078125 0.5625 0.4375 0.859375q0.359375 0.296875 1.0 0.296875q0.640625 0 0.953125 -0.265625q0.3125 -0.265625 0.3125 -0.625q0 -0.3125 -0.28125 -0.5q-0.1875 -0.125 -0.953125 -0.3125q-1.03125 -0.265625 -1.4375 -0.453125q-0.390625 -0.1875 -0.59375 -0.515625q-0.203125 -0.34375 -0.203125 -0.75q0 -0.359375 0.171875 -0.671875q0.171875 -0.328125 0.453125 -0.53125q0.21875 -0.15625 0.59375 -0.265625q0.390625 -0.125 0.8125 -0.125q0.65625 0 1.140625 0.1875q0.5 0.1875 0.734375 0.515625q0.234375 0.3125 0.3125 0.859375l-0.90625 0.125q-0.0625 -0.4375 -0.375 -0.671875q-0.296875 -0.234375 -0.828125 -0.234375q-0.65625 0 -0.9375 0.21875q-0.265625 0.203125 -0.265625 0.484375q0 0.1875 0.109375 0.328125q0.125 0.15625 0.359375 0.25q0.140625 0.0625 0.828125 0.25q1.0 0.265625 1.390625 0.4375q0.390625 0.15625 0.609375 0.484375q0.234375 0.3125 0.234375 0.796875q0 0.46875 -0.28125 0.890625q-0.265625 0.40625 -0.78125 0.640625q-0.515625 0.21875 -1.171875 0.21875q-1.078125 0 -1.640625 -0.4375q-0.5625 -0.453125 -0.71875 -1.34375zm5.703125 1.65625l0 -7.6249924l0.9375 0l0 2.7343674q0.65625 -0.765625 1.65625 -0.765625q0.609375 0 1.0625 0.25q0.453125 0.234375 0.640625 0.671875q0.203125 0.421875 0.203125 1.234375l0 3.5l-0.9375 0l0 -3.5q0 -0.703125 -0.3125 -1.015625q-0.296875 -0.328125 -0.859375 -0.328125q-0.40625 0 -0.78125 0.21875q-0.359375 0.21875 -0.515625 0.59375q-0.15625 0.359375 -0.15625 1.015625l0 3.015625l-0.9375 0zm5.9264984 -6.5468674l0 -1.078125l0.9375 0l0 1.078125l-0.9375 0zm0 6.5468674l0 -5.53125l0.9375 0l0 5.53125l-0.9375 0zm2.3674774 0l0 -5.53125l0.84375 0l0 0.796875q0.609375 -0.921875 1.75 -0.921875q0.5 0 0.921875 0.1875q0.421875 0.171875 0.625 0.46875q0.21875 0.296875 0.296875 0.6875q0.046875 0.265625 0.046875 0.921875l0 3.390625l-0.9375 0l0 -3.359375q0 -0.578125 -0.109375 -0.859375q-0.109375 -0.28125 -0.390625 -0.453125q-0.265625 -0.171875 -0.640625 -0.171875q-0.59375 0 -1.03125 0.390625q-0.4375 0.375 -0.4375 1.4375l0 3.015625l-0.9375 0zm5.7546234 0.453125l0.90625 0.140625q0.0625 0.421875 0.328125 0.609375q0.34375 0.265625 0.9375 0.265625q0.65625 0 1.0 -0.265625q0.359375 -0.25 0.484375 -0.71875q0.078125 -0.296875 0.078125 -1.203125q-0.625 0.71875 -1.53125 0.71875q-1.140625 0 -1.765625 -0.8125q-0.625 -0.828125 -0.625 -1.984375q0 -0.78125 0.28125 -1.453125q0.296875 -0.671875 0.828125 -1.03125q0.546875 -0.375 1.28125 -0.375q0.984375 0 1.609375 0.796875l0 -0.671875l0.875 0l0 4.78125q0 1.296875 -0.265625 1.828125q-0.265625 0.546875 -0.84375 0.859375q-0.5625 0.3125 -1.390625 0.3125q-0.984375 0 -1.59375 -0.453125q-0.609375 -0.4375 -0.59375 -1.34375zm0.78125 -3.3125q0 1.078125 0.421875 1.578125q0.4375 0.5 1.078125 0.5q0.65625 0 1.09375 -0.484375q0.4375 -0.5 0.4375 -1.5625q0 -1.015625 -0.453125 -1.53125q-0.453125 -0.515625 -1.09375 -0.515625q-0.609375 0 -1.046875 0.515625q-0.4375 0.5 -0.4375 1.5zm7.3639984 2.015625l0.125 0.828125q-0.390625 0.09375 -0.703125 0.09375q-0.5 0 -0.78125 -0.15625q-0.28125 -0.171875 -0.40625 -0.4375q-0.109375 -0.265625 -0.109375 -1.109375l0 -3.171875l-0.6875 0l0 -0.734375l0.6875 0l0 -1.3593674l0.9375 -0.5625l0 1.9218674l0.9375 0l0 0.734375l-0.9375 0l0 3.234375q0 0.390625 0.046875 0.515625q0.046875 0.109375 0.15625 0.1875q0.109375 0.0625 0.328125 0.0625q0.15625 0 0.40625 -0.046875zm0.5700226 -1.921875q0 -1.53125 0.84375 -2.265625q0.71875 -0.625 1.734375 -0.625q1.140625 0 1.859375 0.75q0.734375 0.75 0.734375 2.0625q0 1.0625 -0.328125 1.6875q-0.3125 0.609375 -0.921875 0.953125q-0.609375 0.328125 -1.34375 0.328125q-1.15625 0 -1.875 -0.734375q-0.703125 -0.75 -0.703125 -2.15625zm0.953125 0q0 1.0625 0.46875 1.59375q0.46875 0.53125 1.15625 0.53125q0.703125 0 1.15625 -0.53125q0.46875 -0.53125 0.46875 -1.625q0 -1.015625 -0.46875 -1.546875q-0.453125 -0.53125 -1.15625 -0.53125q-0.6875 0 -1.15625 0.53125q-0.46875 0.515625 -0.46875 1.578125zm5.3171234 2.765625l0 -5.53125l0.84375 0l0 0.796875q0.609375 -0.921875 1.75 -0.921875q0.5 0 0.921875 0.1875q0.421875 0.171875 0.625 0.46875q0.21875 0.296875 0.296875 0.6875q0.046875 0.265625 0.046875 0.921875l0 3.390625l-0.9375 0l0 -3.359375q0 -0.578125 -0.109375 -0.859375q-0.109375 -0.28125 -0.390625 -0.453125q-0.265625 -0.171875 -0.640625 -0.171875q-0.59375 0 -1.03125 0.390625q-0.4375 0.375 -0.4375 1.4375l0 3.015625l-0.9375 0z" fill-rule="nonzero"/><path fill="#000000" d="m77.162674 146.9675l0 -7.625l2.875 0q0.75 0 1.15625 0.0625q0.5625 0.09375 0.9375 0.359375q0.390625 0.265625 0.609375 0.75q0.234375 0.46875 0.234375 1.03125q0 0.96875 -0.625 1.65625q-0.609375 0.671875 -2.234375 0.671875l-1.953125 0l0 3.09375l-1.0 0zm1.0 -4.0l1.96875 0q0.984375 0 1.390625 -0.359375q0.421875 -0.375 0.421875 -1.03125q0 -0.484375 -0.25 -0.8125q-0.234375 -0.34375 -0.640625 -0.453125q-0.25 -0.078125 -0.9375 -0.078125l-1.953125 0l0 2.734375zm5.6388855 1.234375q0 -1.53125 0.84375 -2.265625q0.71875 -0.625 1.734375 -0.625q1.140625 0 1.859375 0.75q0.734375 0.75 0.734375 2.0625q0 1.0625 -0.328125 1.6875q-0.3125 0.609375 -0.921875 0.953125q-0.609375 0.328125 -1.34375 0.328125q-1.15625 0 -1.875 -0.734375q-0.703125 -0.75 -0.703125 -2.15625zm0.953125 0q0 1.0625 0.46875 1.59375q0.46875 0.53125 1.15625 0.53125q0.703125 0 1.15625 -0.53125q0.46875 -0.53125 0.46875 -1.625q0 -1.015625 -0.46875 -1.546875q-0.453125 -0.53125 -1.15625 -0.53125q-0.6875 0 -1.15625 0.53125q-0.46875 0.515625 -0.46875 1.578125zm4.9421234 1.109375l0.921875 -0.140625q0.078125 0.5625 0.4375 0.859375q0.359375 0.296875 1.0 0.296875q0.640625 0 0.953125 -0.265625q0.3125 -0.265625 0.3125 -0.625q0 -0.3125 -0.28125 -0.5q-0.1875 -0.125 -0.953125 -0.3125q-1.03125 -0.265625 -1.4375 -0.453125q-0.390625 -0.1875 -0.59375 -0.515625q-0.203125 -0.34375 -0.203125 -0.75q0 -0.359375 0.171875 -0.671875q0.171875 -0.328125 0.453125 -0.53125q0.21875 -0.15625 0.59375 -0.265625q0.390625 -0.125 0.8125 -0.125q0.65625 0 1.140625 0.1875q0.5 0.1875 0.734375 0.515625q0.234375 0.3125 0.3125 0.859375l-0.90625 0.125q-0.0625 -0.4375 -0.375 -0.671875q-0.296875 -0.234375 -0.828125 -0.234375q-0.65625 0 -0.9375 0.21875q-0.265625 0.203125 -0.265625 0.484375q0 0.1875 0.109375 0.328125q0.125 0.15625 0.359375 0.25q0.140625 0.0625 0.828125 0.25q1.0 0.265625 1.390625 0.4375q0.390625 0.15625 0.609375 0.484375q0.234375 0.3125 0.234375 0.796875q0 0.46875 -0.28125 0.890625q-0.265625 0.40625 -0.78125 0.640625q-0.515625 0.21875 -1.171875 0.21875q-1.078125 0 -1.640625 -0.4375q-0.5625 -0.453125 -0.71875 -1.34375zm7.75 0.8125l0.125 0.828125q-0.390625 0.09375 -0.703125 0.09375q-0.5 0 -0.78125 -0.15625q-0.28125 -0.171875 -0.40625 -0.4375q-0.109375 -0.265625 -0.109375 -1.109375l0 -3.171875l-0.6875 0l0 -0.734375l0.6875 0l0 -1.359375l0.9375 -0.5625l0 1.921875l0.9375 0l0 0.734375l-0.9375 0l0 3.234375q0 0.390625 0.046875 0.515625q0.046875 0.109375 0.15625 0.1875q0.109375 0.0625 0.328125 0.0625q0.15625 0 0.40625 -0.046875z" fill-rule="nonzero"/><path fill="#eeeeee" d="m226.41032 188.77165l49.575455 0l0 0c6.494507 0 11.759338 5.166565 11.759338 11.539841c0 6.3732758 -5.2648315 11.539841 -11.759338 11.539841l-49.575455 0l0 0c-6.494522 0 -11.759369 -5.166565 -11.759369 -11.539841c0 -6.3732758 5.264847 -11.539841 11.759369 -11.539841z" fill-rule="evenodd"/><path stroke="#595959" stroke-width="1.0" stroke-linejoin="round" stroke-linecap="butt" d="m226.41032 188.77165l49.575455 0l0 0c6.494507 0 11.759338 5.166565 11.759338 11.539841c0 6.3732758 -5.2648315 11.539841 -11.759338 11.539841l-49.575455 0l0 0c-6.494522 0 -11.759369 -5.166565 -11.759369 -11.539841c0 -6.3732758 5.264847 -11.539841 11.759369 -11.539841z" fill-rule="evenodd"/><path fill="#000000" d="m241.5259 204.0515l0 -6.734375l-2.515625 0l0 -0.890625l6.046875 0l0 0.890625l-2.53125 0l0 6.734375l-1.0 0zm7.0457153 -1.78125l0.96875 0.125q-0.234375 0.84375 -0.859375 1.3125q-0.609375 0.46875 -1.578125 0.46875q-1.203125 0 -1.921875 -0.75q-0.703125 -0.75 -0.703125 -2.09375q0 -1.390625 0.71875 -2.15625q0.71875 -0.78125 1.859375 -0.78125q1.109375 0 1.8125 0.765625q0.703125 0.75 0.703125 2.125q0 0.078125 0 0.234375l-4.125 0q0.046875 0.921875 0.515625 1.40625q0.46875 0.484375 1.15625 0.484375q0.515625 0 0.875 -0.265625q0.359375 -0.28125 0.578125 -0.875zm-3.078125 -1.515625l3.09375 0q-0.0625 -0.6875 -0.359375 -1.046875q-0.453125 -0.53125 -1.15625 -0.53125q-0.640625 0 -1.09375 0.4375q-0.4375 0.421875 -0.484375 1.140625zm4.8483734 1.640625l0.921875 -0.140625q0.078125 0.5625 0.4375 0.859375q0.359375 0.296875 1.0 0.296875q0.640625 0 0.953125 -0.265625q0.3125 -0.265625 0.3125 -0.625q0 -0.3125 -0.28125 -0.5q-0.1875 -0.125 -0.953125 -0.3125q-1.03125 -0.265625 -1.4375 -0.453125q-0.390625 -0.1875 -0.59375 -0.515625q-0.203125 -0.34375 -0.203125 -0.75q0 -0.359375 0.171875 -0.671875q0.171875 -0.328125 0.453125 -0.53125q0.21875 -0.15625 0.59375 -0.265625q0.390625 -0.125 0.8125 -0.125q0.65625 0 1.140625 0.1875q0.5 0.1875 0.734375 0.515625q0.234375 0.3125 0.3125 0.859375l-0.90625 0.125q-0.0625 -0.4375 -0.375 -0.671875q-0.296875 -0.234375 -0.828125 -0.234375q-0.65625 0 -0.9375 0.21875q-0.265625 0.203125 -0.265625 0.484375q0 0.1875 0.109375 0.328125q0.125 0.15625 0.359375 0.25q0.140625 0.0625 0.828125 0.25q1.0 0.265625 1.390625 0.4375q0.390625 0.15625 0.609375 0.484375q0.234375 0.3125 0.234375 0.796875q0 0.46875 -0.28125 0.890625q-0.265625 0.40625 -0.78125 0.640625q-0.515625 0.21875 -1.171875 0.21875q-1.078125 0 -1.640625 -0.4375q-0.5625 -0.453125 -0.71875 -1.34375zm5.6875 1.65625l0 -7.625l0.9375 0l0 7.625l-0.9375 0zm5.992462 -0.6875q-0.53125 0.453125 -1.015625 0.640625q-0.46875 0.171875 -1.015625 0.171875q-0.921875 0 -1.40625 -0.4375q-0.484375 -0.453125 -0.484375 -1.140625q0 -0.40625 0.171875 -0.734375q0.1875 -0.34375 0.484375 -0.546875q0.3125 -0.203125 0.6875 -0.3125q0.265625 -0.0625 0.828125 -0.140625q1.125 -0.125 1.671875 -0.3125q0 -0.203125 0 -0.25q0 -0.578125 -0.265625 -0.8125q-0.359375 -0.3125 -1.0625 -0.3125q-0.65625 0 -0.984375 0.234375q-0.3125 0.234375 -0.453125 0.8125l-0.921875 -0.125q0.125 -0.578125 0.40625 -0.9375q0.296875 -0.375 0.828125 -0.5625q0.546875 -0.203125 1.25 -0.203125q0.71875 0 1.15625 0.171875q0.4375 0.171875 0.640625 0.421875q0.21875 0.25 0.296875 0.640625q0.046875 0.234375 0.046875 0.859375l0 1.25q0 1.296875 0.0625 1.65625q0.0625 0.34375 0.234375 0.65625l-0.96875 0q-0.15625 -0.296875 -0.1875 -0.6875zm-0.078125 -2.078125q-0.515625 0.203125 -1.53125 0.34375q-0.578125 0.078125 -0.828125 0.1875q-0.234375 0.109375 -0.359375 0.3125q-0.125 0.1875 -0.125 0.4375q0 0.375 0.28125 0.625q0.28125 0.25 0.828125 0.25q0.53125 0 0.953125 -0.234375q0.421875 -0.234375 0.625 -0.65625q0.15625 -0.3125 0.15625 -0.9375l0 -0.328125z" fill-rule="nonzero"/><path fill="#eeeeee" d="m223.30751 82.874016l55.78151 0l0 0c7.3075256 0 13.231445 5.166565 13.231445 11.539841c0 6.3732834 -5.9239197 11.539841 -13.231445 11.539841l-55.78151 0l0 0c-7.3075256 0 -13.231445 -5.1665573 -13.231445 -11.539841c0 -6.3732758 5.9239197 -11.539841 13.231445 -11.539841z" fill-rule="evenodd"/><path stroke="#595959" stroke-width="1.0" stroke-linejoin="round" stroke-linecap="butt" d="m223.30751 82.874016l55.78151 0l0 0c7.3075256 0 13.231445 5.166565 13.231445 11.539841c0 6.3732834 -5.9239197 11.539841 -13.231445 11.539841l-55.78151 0l0 0c-7.3075256 0 -13.231445 -5.1665573 -13.231445 -11.539841c0 -6.3732758 5.9239197 -11.539841 13.231445 -11.539841z" fill-rule="evenodd"/><path fill="#000000" d="m233.0212 95.70074l0.953125 -0.078125q0.0625 0.5625 0.3125 0.9375q0.25 0.359375 0.765625 0.59375q0.515625 0.21875 1.171875 0.21875q0.578125 0 1.015625 -0.171875q0.4375 -0.171875 0.65625 -0.46875q0.21875 -0.296875 0.21875 -0.65625q0 -0.359375 -0.21875 -0.625q-0.203125 -0.265625 -0.671875 -0.4375q-0.3125 -0.125 -1.359375 -0.375q-1.046875 -0.25 -1.46875 -0.484375q-0.546875 -0.28125 -0.828125 -0.703125q-0.265625 -0.421875 -0.265625 -0.953125q0 -0.578125 0.328125 -1.078125q0.328125 -0.5 0.953125 -0.765625q0.640625 -0.265625 1.40625 -0.265625q0.84375 0 1.484375 0.28125q0.65625 0.265625 1.0 0.796875q0.359375 0.53125 0.390625 1.203125l-0.96875 0.078125q-0.078125 -0.71875 -0.53125 -1.09375q-0.453125 -0.375 -1.328125 -0.375q-0.921875 0 -1.34375 0.34375q-0.40625 0.328125 -0.40625 0.8125q0 0.40625 0.296875 0.671875q0.28125 0.265625 1.515625 0.546875q1.234375 0.28125 1.6875 0.484375q0.671875 0.3125 0.984375 0.78125q0.3125 0.46875 0.3125 1.078125q0 0.609375 -0.34375 1.15625q-0.34375 0.53125 -1.0 0.828125q-0.65625 0.296875 -1.46875 0.296875q-1.046875 0 -1.75 -0.296875q-0.6875 -0.296875 -1.09375 -0.90625q-0.390625 -0.609375 -0.40625 -1.375zm7.3263855 4.578125l0 -7.65625l0.859375 0l0 0.71875q0.296875 -0.421875 0.671875 -0.625q0.390625 -0.21875 0.921875 -0.21875q0.703125 0 1.25 0.375q0.546875 0.359375 0.8125 1.03125q0.28125 0.65625 0.28125 1.453125q0 0.84375 -0.3125 1.53125q-0.296875 0.671875 -0.875 1.03125q-0.578125 0.359375 -1.21875 0.359375q-0.46875 0 -0.84375 -0.1875q-0.375 -0.203125 -0.609375 -0.515625l0 2.703125l-0.9375 0zm0.84375 -4.859375q0 1.0625 0.4375 1.578125q0.4375 0.515625 1.046875 0.515625q0.625 0 1.0625 -0.53125q0.453125 -0.53125 0.453125 -1.640625q0 -1.046875 -0.4375 -1.578125q-0.4375 -0.53125 -1.046875 -0.53125q-0.59375 0 -1.0625 0.5625q-0.453125 0.5625 -0.453125 1.625zm8.692123 2.046875q-0.53125 0.453125 -1.015625 0.640625q-0.46875 0.171875 -1.015625 0.171875q-0.921875 0 -1.40625 -0.4375q-0.484375 -0.453125 -0.484375 -1.140625q0 -0.40625 0.171875 -0.734375q0.1875 -0.34375 0.484375 -0.546875q0.3125 -0.203125 0.6875 -0.3125q0.265625 -0.0625 0.828125 -0.140625q1.125 -0.125 1.671875 -0.3125q0 -0.203125 0 -0.25q0 -0.578125 -0.265625 -0.8125q-0.359375 -0.3125 -1.0625 -0.3125q-0.65625 0 -0.984375 0.234375q-0.3125 0.234375 -0.453125 0.8125l-0.921875 -0.125q0.125 -0.578125 0.40625 -0.9375q0.296875 -0.375 0.828125 -0.5625q0.546875 -0.203125 1.25 -0.203125q0.71875 0 1.15625 0.171875q0.4375 0.171875 0.640625 0.421875q0.21875 0.25 0.296875 0.640625q0.046875 0.234375 0.046875 0.859375l0 1.25q0 1.296875 0.0625 1.65625q0.0625 0.34375 0.234375 0.65625l-0.96875 0q-0.15625 -0.296875 -0.1875 -0.6875zm-0.078125 -2.078125q-0.515625 0.203125 -1.53125 0.34375q-0.578125 0.078125 -0.828125 0.1875q-0.234375 0.109375 -0.359375 0.3125q-0.125 0.1875 -0.125 0.4375q0 0.375 0.28125 0.625q0.28125 0.25 0.828125 0.25q0.53125 0 0.953125 -0.234375q0.421875 -0.234375 0.625 -0.65625q0.15625 -0.3125 0.15625 -0.9375l0 -0.328125zm6.0046234 0.734375l0.92189026 0.125q-0.15625 0.953125 -0.78126526 1.5q-0.625 0.53125 -1.53125 0.53125q-1.125 0 -1.8125 -0.734375q-0.6875 -0.75 -0.6875 -2.125q0 -0.90625 0.296875 -1.578125q0.296875 -0.671875 0.890625 -1.0q0.609375 -0.34375 1.328125 -0.34375q0.890625 0 1.46875 0.46875q0.57814026 0.453125 0.73439026 1.28125l-0.90626526 0.140625q-0.140625 -0.546875 -0.46875 -0.828125q-0.328125 -0.28125 -0.796875 -0.28125q-0.703125 0 -1.15625 0.515625q-0.4375 0.5 -0.4375 1.59375q0 1.109375 0.421875 1.625q0.4375 0.5 1.125 0.5q0.546875 0 0.90625 -0.34375q0.375 -0.34375 0.484375 -1.046875zm5.5000153 0.25l0.96875 0.125q-0.234375 0.84375 -0.859375 1.3125q-0.609375 0.46875 -1.578125 0.46875q-1.203125 0 -1.921875 -0.75q-0.703125 -0.75 -0.703125 -2.09375q0 -1.390625 0.71875 -2.15625q0.71875 -0.78125 1.859375 -0.78125q1.109375 0 1.8125 0.765625q0.703125 0.75 0.703125 2.125q0 0.078125 0 0.234375l-4.125 0q0.046875 0.921875 0.515625 1.40625q0.46875 0.484375 1.15625 0.484375q0.515625 0 0.875 -0.265625q0.359375 -0.28125 0.578125 -0.875zm-3.078125 -1.515625l3.09375 0q-0.0625 -0.6875 -0.359375 -1.046875q-0.453125 -0.53125 -1.15625 -0.53125q-0.640625 0 -1.09375 0.4375q-0.4375 0.421875 -0.484375 1.140625zm4.567108 3.296875l2.953125 -3.96875l-2.609375 -3.65625l1.203125 0l1.390625 1.953125q0.421875 0.609375 0.609375 0.9375q0.25 -0.421875 0.609375 -0.875l1.53125 -2.015625l1.09375 0l-2.671875 3.59375l2.890625 4.03125l-1.25 0l-1.921875 -2.71875q-0.171875 -0.234375 -0.34375 -0.515625q-0.25 0.421875 -0.359375 0.578125l-1.90625 2.65625l-1.21875 0z" fill-rule="nonzero"/><path fill="#eeeeee" d="m224.49374 233.29659l53.63977 0l0 0c7.026947 0 12.723419 5.166565 12.723419 11.539841c0 6.373291 -5.696472 11.539856 -12.723419 11.539856l-53.63977 0l0 0c-7.0269623 0 -12.723434 -5.166565 -12.723434 -11.539856c0 -6.3732758 5.696472 -11.539841 12.723434 -11.539841z" fill-rule="evenodd"/><path stroke="#595959" stroke-width="1.0" stroke-linejoin="round" stroke-linecap="butt" d="m224.49374 233.29659l53.63977 0l0 0c7.026947 0 12.723419 5.166565 12.723419 11.539841c0 6.373291 -5.696472 11.539856 -12.723419 11.539856l-53.63977 0l0 0c-7.0269623 0 -12.723434 -5.166565 -12.723434 -11.539856c0 -6.3732758 5.696472 -11.539841 12.723434 -11.539841z" fill-rule="evenodd"/><path fill="#000000" d="m226.92155 248.57643l0 -7.625l2.859375 0q0.875 0 1.40625 0.234375q0.53125 0.21875 0.828125 0.703125q0.296875 0.484375 0.296875 1.015625q0 0.484375 -0.265625 0.921875q-0.265625 0.421875 -0.796875 0.6875q0.6875 0.203125 1.0625 0.703125q0.375 0.484375 0.375 1.140625q0 0.546875 -0.234375 1.015625q-0.21875 0.453125 -0.5625 0.703125q-0.328125 0.25 -0.828125 0.375q-0.5 0.125 -1.234375 0.125l-2.90625 0zm1.015625 -4.421875l1.640625 0q0.671875 0 0.96875 -0.09375q0.375 -0.109375 0.5625 -0.375q0.203125 -0.265625 0.203125 -0.671875q0 -0.375 -0.1875 -0.65625q-0.171875 -0.296875 -0.515625 -0.40625q-0.328125 -0.109375 -1.15625 -0.109375l-1.515625 0l0 2.3125zm0 3.515625l1.890625 0q0.484375 0 0.6875 -0.03125q0.34375 -0.0625 0.578125 -0.203125q0.234375 -0.15625 0.390625 -0.421875q0.15625 -0.28125 0.15625 -0.65625q0 -0.421875 -0.21875 -0.734375q-0.21875 -0.3125 -0.609375 -0.4375q-0.390625 -0.125 -1.125 -0.125l-1.75 0l0 2.609375zm5.6701355 -1.859375q0 -1.53125 0.84375 -2.265625q0.71875 -0.625 1.734375 -0.625q1.140625 0 1.859375 0.75q0.734375 0.75 0.734375 2.0625q0 1.0625 -0.328125 1.6875q-0.3125 0.609375 -0.921875 0.953125q-0.609375 0.328125 -1.34375 0.328125q-1.15625 0 -1.875 -0.734375q-0.703125 -0.75 -0.703125 -2.15625zm0.953125 0q0 1.0625 0.46875 1.59375q0.46875 0.53125 1.15625 0.53125q0.703125 0 1.15625 -0.53125q0.46875 -0.53125 0.46875 -1.625q0 -1.015625 -0.46875 -1.546875q-0.453125 -0.53125 -1.15625 -0.53125q-0.6875 0 -1.15625 0.53125q-0.46875 0.515625 -0.46875 1.578125zm5.3014984 2.765625l0 -5.53125l0.84375 0l0 0.84375q0.328125 -0.59375 0.59375 -0.78125q0.28125 -0.1875 0.609375 -0.1875q0.46875 0 0.953125 0.3125l-0.3125 0.859375q-0.34375 -0.203125 -0.6875 -0.203125q-0.3125 0 -0.5625 0.1875q-0.234375 0.1875 -0.34375 0.515625q-0.15625 0.5 -0.15625 1.09375l0 2.890625l-0.9375 0zm3.5642395 -6.546875l0 -1.078125l0.9375 0l0 1.078125l-0.9375 0zm0 6.546875l0 -5.53125l0.9375 0l0 5.53125l-0.9375 0zm2.3674774 0l0 -5.53125l0.84375 0l0 0.796875q0.609375 -0.921875 1.7500153 -0.921875q0.5 0 0.921875 0.1875q0.421875 0.171875 0.625 0.46875q0.21875 0.296875 0.296875 0.6875q0.046875 0.265625 0.046875 0.921875l0 3.390625l-0.9375 0l0 -3.359375q0 -0.578125 -0.109375 -0.859375q-0.109375 -0.28125 -0.390625 -0.453125q-0.265625 -0.171875 -0.640625 -0.171875q-0.59375 0 -1.0312653 0.390625q-0.4375 0.375 -0.4375 1.4375l0 3.015625l-0.9375 0zm5.7546387 0.453125l0.90625 0.140625q0.0625 0.421875 0.328125 0.609375q0.34375 0.265625 0.9375 0.265625q0.65625 0 1.0 -0.265625q0.359375 -0.25 0.484375 -0.71875q0.078125 -0.296875 0.078125 -1.203125q-0.625 0.71875 -1.53125 0.71875q-1.140625 0 -1.765625 -0.8125q-0.625 -0.828125 -0.625 -1.984375q0 -0.78125 0.28125 -1.453125q0.296875 -0.671875 0.828125 -1.03125q0.546875 -0.375 1.28125 -0.375q0.984375 0 1.609375 0.796875l0 -0.671875l0.87498474 0l0 4.78125q0 1.296875 -0.26560974 1.828125q-0.265625 0.546875 -0.84375 0.859375q-0.5625 0.3125 -1.390625 0.3125q-0.984375 0 -1.59375 -0.453125q-0.609375 -0.4375 -0.59375 -1.34375zm0.78125 -3.3125q0 1.078125 0.421875 1.578125q0.4375 0.5 1.078125 0.5q0.65625 0 1.09375 -0.484375q0.4375 -0.5 0.4375 -1.5625q0 -1.015625 -0.453125 -1.53125q-0.453125 -0.515625 -1.09375 -0.515625q-0.609375 0 -1.046875 0.515625q-0.4375 0.5 -0.4375 1.5zm13.840256 0.1875l1.015625 0.25q-0.328125 1.25 -1.15625 1.90625q-0.8125 0.640625 -2.015625 0.640625q-1.234375 0 -2.0 -0.5q-0.765625 -0.5 -1.171875 -1.453125q-0.40625 -0.953125 -0.40625 -2.046875q0 -1.1875 0.453125 -2.078125q0.453125 -0.890625 1.296875 -1.34375q0.84375 -0.46875 1.84375 -0.46875q1.15625 0 1.9375 0.59375q0.78125 0.578125 1.078125 1.640625l-0.984375 0.234375q-0.265625 -0.84375 -0.78125 -1.21875q-0.5 -0.375 -1.265625 -0.375q-0.875 0 -1.46875 0.421875q-0.59375 0.421875 -0.828125 1.140625q-0.234375 0.703125 -0.234375 1.453125q0 0.96875 0.28125 1.703125q0.28125 0.71875 0.875 1.078125q0.59375 0.359375 1.296875 0.359375q0.84375 0 1.4375 -0.484375q0.59375 -0.5 0.796875 -1.453125zm1.7893677 -0.09375q0 -1.53125 0.84375 -2.265625q0.71875 -0.625 1.734375 -0.625q1.140625 0 1.859375 0.75q0.734375 0.75 0.734375 2.0625q0 1.0625 -0.328125 1.6875q-0.3125 0.609375 -0.921875 0.953125q-0.609375 0.328125 -1.34375 0.328125q-1.15625 0 -1.875 -0.734375q-0.703125 -0.75 -0.703125 -2.15625zm0.953125 0q0 1.0625 0.46875 1.59375q0.46875 0.53125 1.15625 0.53125q0.703125 0 1.15625 -0.53125q0.46875 -0.53125 0.46875 -1.625q0 -1.015625 -0.46875 -1.546875q-0.453125 -0.53125 -1.15625 -0.53125q-0.6875 0 -1.15625 0.53125q-0.46875 0.515625 -0.46875 1.578125zm5.582733 2.765625l0 -1.0625l1.0625 0l0 1.0625l-1.0625 0z" fill-rule="nonzero"/><path fill="#000000" fill-opacity="0.0" d="m16.796684 177.42043l25.889763 -0.1889801" fill-rule="evenodd"/><path stroke="#595959" stroke-width="1.0" stroke-linejoin="round" stroke-linecap="butt" d="m16.796684 177.42043l19.889923 -0.14518738" fill-rule="evenodd"/><path fill="#595959" stroke="#595959" stroke-width="1.0" stroke-linecap="butt" d="m36.69866 178.92693l4.525921 -1.6848145l-4.5500336 -1.6185608z" fill-rule="evenodd"/><path fill="#d9ead3" d="m268.2362 130.47322l-9.480286 -4.1700745l-37.92128 0l0 20.850403l47.401566 0z" fill-rule="evenodd"/><path stroke="#595959" stroke-width="1.0" stroke-linejoin="round" stroke-linecap="butt" d="m268.2362 130.47322l-9.480286 -4.1700745l-37.92128 0l0 20.850403l47.401566 0z" fill-rule="evenodd"/><path fill="#000000" fill-opacity="0.0" d="m268.46982 147.15486l0 41.826767" fill-rule="evenodd"/><path stroke="#595959" stroke-width="1.0" stroke-linejoin="round" stroke-linecap="butt" d="m268.46982 147.15486l0 35.826767" fill-rule="evenodd"/><path stroke="#595959" stroke-width="1.0" stroke-linecap="butt" d="m266.81808 182.98163l1.6517334 4.538101l1.6517334 -4.538101z" fill-rule="evenodd"/><path fill="#000000" fill-opacity="0.0" d="m220.83464 136.72835l-89.543304 0" fill-rule="evenodd"/><path stroke="#595959" stroke-width="1.0" stroke-linejoin="round" stroke-linecap="butt" d="m220.83464 136.72835l-83.543304 0" fill-rule="evenodd"/><path stroke="#595959" stroke-width="1.0" stroke-linecap="butt" d="m137.29134 135.07661l-4.538101 1.6517334l4.538101 1.6517334z" fill-rule="evenodd"/><path fill="#000000" fill-opacity="0.0" d="m204.63129 153.7979l69.41733 0l0 22.330719l-69.41733 0z" fill-rule="evenodd"/><path fill="#38761d" d="m242.46008 161.51576q-0.484375 0.421875 -0.9375 0.625q-0.453125 0.1875 -0.96875 0.1875q-0.765625 0 -1.234375 -0.453125q-0.46875 -0.453125 -0.46875 -1.15625q0 -0.453125 0.203125 -0.8125q0.21875 -0.359375 0.5625 -0.5625q0.359375 -0.21875 0.859375 -0.3125q0.3125 -0.0625 1.203125 -0.09375q0.890625 -0.046875 1.265625 -0.203125q0.109375 -0.375 0.109375 -0.640625q0 -0.328125 -0.234375 -0.515625q-0.328125 -0.25 -0.953125 -0.25q-0.59375 0 -0.96875 0.265625q-0.375 0.25 -0.546875 0.734375l-0.953125 -0.078125q0.28125 -0.828125 0.90625 -1.265625q0.640625 -0.4375 1.609375 -0.4375q1.015625 0 1.625 0.5q0.453125 0.359375 0.453125 0.9375q0 0.453125 -0.125 1.03125l-0.3125 1.375q-0.140625 0.65625 -0.140625 1.0625q0 0.265625 0.109375 0.75l-0.953125 0q-0.078125 -0.265625 -0.109375 -0.6875zm0.34375 -2.109375q-0.1875 0.078125 -0.421875 0.125q-0.21875 0.03125 -0.75 0.078125q-0.828125 0.078125 -1.171875 0.1875q-0.328125 0.109375 -0.5 0.359375q-0.171875 0.234375 -0.171875 0.53125q0 0.40625 0.265625 0.65625q0.28125 0.25 0.78125 0.25q0.46875 0 0.890625 -0.234375q0.4375 -0.25 0.6875 -0.6875q0.25 -0.453125 0.390625 -1.265625zm1.8639984 2.796875l1.59375 -7.625l0.9375 0l-0.5625 2.71875q0.4375 -0.40625 0.796875 -0.578125q0.375 -0.171875 0.765625 -0.171875q0.78125 0 1.296875 0.578125q0.515625 0.578125 0.515625 1.6875q0 0.734375 -0.21875 1.34375q-0.203125 0.609375 -0.515625 1.03125q-0.296875 0.40625 -0.625 0.65625q-0.328125 0.234375 -0.671875 0.359375q-0.34375 0.125 -0.65625 0.125q-0.546875 0 -0.96875 -0.28125q-0.40625 -0.296875 -0.640625 -0.890625l-0.21875 1.046875l-0.828125 0zm1.390625 -2.265625l0 0.171875q0 0.703125 0.328125 1.078125q0.34375 0.375 0.84375 0.375q0.5 0 0.90625 -0.34375q0.421875 -0.359375 0.6875 -1.078125q0.265625 -0.734375 0.265625 -1.359375q0 -0.703125 -0.34375 -1.078125q-0.328125 -0.390625 -0.828125 -0.390625q-0.515625 0 -0.9375 0.390625q-0.421875 0.390625 -0.703125 1.21875q-0.21875 0.609375 -0.21875 1.015625zm4.6921234 0.171875q0 -1.625 0.953125 -2.6875q0.796875 -0.875 2.0625 -0.875q1.0 0 1.609375 0.625q0.609375 0.625 0.609375 1.6875q0 0.953125 -0.390625 1.78125q-0.375 0.8125 -1.09375 1.25q-0.703125 0.4375 -1.484375 0.4375q-0.640625 0 -1.171875 -0.265625q-0.53125 -0.28125 -0.8125 -0.78125q-0.28125 -0.515625 -0.28125 -1.171875zm0.953125 -0.09375q0 0.78125 0.375 1.1875q0.375 0.390625 0.9375 0.390625q0.3125 0 0.609375 -0.109375q0.296875 -0.125 0.546875 -0.375q0.25 -0.25 0.421875 -0.5625q0.1875 -0.328125 0.296875 -0.703125q0.171875 -0.515625 0.171875 -0.984375q0 -0.75 -0.390625 -1.15625q-0.375 -0.421875 -0.9375 -0.421875q-0.453125 0 -0.8125 0.21875q-0.359375 0.203125 -0.65625 0.609375q-0.296875 0.40625 -0.4375 0.953125q-0.125 0.53125 -0.125 0.953125zm8.582764 1.1875q-1.0 1.125 -2.03125 1.125q-0.640625 0 -1.03125 -0.359375q-0.390625 -0.375 -0.390625 -0.90625q0 -0.34375 0.171875 -1.203125l0.671875 -3.1875l0.9375 0l-0.734375 3.53125q-0.09375 0.453125 -0.09375 0.6875q0 0.3125 0.1875 0.5q0.1875 0.171875 0.5625 0.171875q0.390625 0 0.765625 -0.1875q0.375 -0.203125 0.640625 -0.53125q0.28125 -0.328125 0.453125 -0.78125q0.109375 -0.28125 0.265625 -1.0l0.5 -2.390625l0.9375 0l-1.15625 5.53125l-0.859375 0l0.203125 -1.0zm4.363983 0.234375l-0.15625 0.765625q-0.34375 0.09375 -0.65625 0.09375q-0.5625 0 -0.90625 -0.28125q-0.25 -0.203125 -0.25 -0.5625q0 -0.1875 0.140625 -0.84375l0.671875 -3.203125l-0.75 0l0.15625 -0.734375l0.75 0l0.28125 -1.359375l1.078125 -0.640625l-0.421875 2.0l0.921875 0l-0.15625 0.734375l-0.921875 0l-0.640625 3.046875q-0.109375 0.59375 -0.109375 0.703125q0 0.171875 0.09375 0.265625q0.09375 0.078125 0.3125 0.078125q0.3125 0 0.5625 -0.0625z" fill-rule="nonzero"/><path fill="#38761d" d="m216.99191 173.1095q0 -1.625 0.953125 -2.6875q0.796875 -0.875 2.0625 -0.875q1.0 0 1.609375 0.625q0.609375 0.625 0.609375 1.6875q0 0.953125 -0.390625 1.78125q-0.375 0.8125 -1.09375 1.25q-0.703125 0.4375 -1.484375 0.4375q-0.640625 0 -1.171875 -0.265625q-0.53125 -0.28125 -0.8125 -0.78125q-0.28125 -0.515625 -0.28125 -1.171875zm0.953125 -0.09375q0 0.78125 0.375 1.1875q0.375 0.390625 0.9375 0.390625q0.3125 0 0.609375 -0.109375q0.296875 -0.125 0.546875 -0.375q0.25 -0.25 0.421875 -0.5625q0.1875 -0.328125 0.296875 -0.703125q0.171875 -0.515625 0.171875 -0.984375q0 -0.75 -0.390625 -1.15625q-0.375 -0.421875 -0.9375 -0.421875q-0.453125 0 -0.8125 0.21875q-0.359375 0.203125 -0.65625 0.609375q-0.296875 0.40625 -0.4375 0.953125q-0.125 0.53125 -0.125 0.953125zm5.8639984 2.1875l-0.578125 -5.53125l0.90625 0l0.25 2.484375l0.09375 1.390625q0.015625 0.15625 0.03125 0.640625q0.15625 -0.53125 0.265625 -0.8125q0.109375 -0.296875 0.34375 -0.8125l1.328125 -2.890625l1.015625 0l0.1875 2.765625q0.046875 0.625 0.046875 1.6875q0.265625 -0.703125 0.859375 -1.9375l1.1875 -2.515625l0.9375 0l-2.703125 5.53125l-0.984375 0l-0.203125 -3.234375q-0.015625 -0.3125 -0.03125 -1.1875q-0.21875 0.5625 -0.5 1.203125l-1.46875 3.21875l-0.984375 0zm6.6487274 0l1.15625 -5.53125l0.84375 0l-0.203125 0.96875q0.5625 -0.5625 1.046875 -0.828125q0.484375 -0.265625 0.984375 -0.265625q0.671875 0 1.046875 0.375q0.390625 0.359375 0.390625 0.96875q0 0.3125 -0.140625 0.96875l-0.703125 3.34375l-0.9375 0l0.734375 -3.5q0.109375 -0.515625 0.109375 -0.75q0 -0.28125 -0.1875 -0.453125q-0.1875 -0.171875 -0.546875 -0.171875q-0.734375 0 -1.296875 0.53125q-0.5625 0.515625 -0.828125 1.765625l-0.53125 2.578125l-0.9375 0zm9.973373 -1.875l0.921875 0.09375q-0.203125 0.671875 -0.921875 1.296875q-0.703125 0.609375 -1.6875 0.609375q-0.609375 0 -1.125 -0.28125q-0.5 -0.28125 -0.78125 -0.828125q-0.265625 -0.546875 -0.265625 -1.234375q0 -0.90625 0.421875 -1.75q0.421875 -0.859375 1.078125 -1.265625q0.671875 -0.421875 1.453125 -0.421875q0.984375 0 1.578125 0.625q0.59375 0.609375 0.59375 1.671875q0 0.40625 -0.078125 0.828125l-4.0625 0q-0.03125 0.15625 -0.03125 0.296875q0 0.765625 0.359375 1.1875q0.359375 0.40625 0.875 0.40625q0.484375 0 0.953125 -0.3125q0.46875 -0.328125 0.71875 -0.921875zm-2.734375 -1.375l3.109375 0q0 -0.140625 0 -0.203125q0 -0.703125 -0.359375 -1.078125q-0.34375 -0.390625 -0.90625 -0.390625q-0.609375 0 -1.109375 0.421875q-0.484375 0.421875 -0.734375 1.25zm4.6139984 3.25l1.15625 -5.53125l0.828125 0l-0.234375 1.140625q0.421875 -0.640625 0.828125 -0.953125q0.40625 -0.3125 0.84375 -0.3125q0.28125 0 0.6875 0.203125l-0.390625 0.875q-0.234375 -0.171875 -0.53125 -0.171875q-0.5 0 -1.015625 0.5625q-0.515625 0.546875 -0.8125 1.96875l-0.46875 2.21875l-0.890625 0zm3.6267395 -1.890625l0.953125 -0.0625q0 0.40625 0.125 0.703125q0.125 0.28125 0.453125 0.46875q0.34375 0.171875 0.78125 0.171875q0.625 0 0.9375 -0.25q0.3125 -0.25 0.3125 -0.578125q0 -0.25 -0.1875 -0.46875q-0.1875 -0.21875 -0.9375 -0.53125q-0.75 -0.328125 -0.953125 -0.453125q-0.34375 -0.21875 -0.53125 -0.5q-0.171875 -0.296875 -0.171875 -0.671875q0 -0.65625 0.515625 -1.125q0.53125 -0.46875 1.453125 -0.46875q1.046875 0 1.59375 0.484375q0.546875 0.484375 0.5625 1.265625l-0.921875 0.0625q-0.015625 -0.5 -0.359375 -0.78125q-0.328125 -0.296875 -0.9375 -0.296875q-0.484375 0 -0.765625 0.234375q-0.265625 0.21875 -0.265625 0.46875q0 0.265625 0.234375 0.46875q0.15625 0.125 0.8125 0.40625q1.078125 0.46875 1.359375 0.734375q0.453125 0.4375 0.453125 1.0625q0 0.40625 -0.265625 0.8125q-0.25 0.390625 -0.765625 0.625q-0.515625 0.234375 -1.21875 0.234375q-0.953125 0 -1.625 -0.46875q-0.671875 -0.484375 -0.640625 -1.546875zm5.25 1.890625l1.59375 -7.625l0.9375 0l-0.609375 2.921875q0.515625 -0.5 0.96875 -0.71875q0.453125 -0.234375 0.9375 -0.234375q0.6875 0 1.0625 0.375q0.390625 0.359375 0.390625 0.953125q0 0.28125 -0.171875 1.0625l-0.6875 3.265625l-0.9375 0l0.703125 -3.34375q0.15625 -0.734375 0.15625 -0.921875q0 -0.265625 -0.1875 -0.4375q-0.1875 -0.171875 -0.546875 -0.171875q-0.515625 0 -0.984375 0.265625q-0.453125 0.265625 -0.71875 0.734375q-0.25 0.46875 -0.46875 1.5l-0.5 2.375l-0.9375 0zm7.2546387 -6.5625l0.234375 -1.0625l0.921875 0l-0.21875 1.0625l-0.9375 0zm-1.375 6.5625l1.15625 -5.53125l0.953125 0l-1.15625 5.53125l-0.953125 0zm1.9455872 2.125l1.59375 -7.65625l0.875 0l-0.15625 0.78125q0.46875 -0.515625 0.84375 -0.703125q0.390625 -0.203125 0.828125 -0.203125q0.78125 0 1.296875 0.578125q0.53125 0.578125 0.53125 1.65625q0 0.859375 -0.296875 1.578125q-0.28125 0.703125 -0.703125 1.140625q-0.40625 0.421875 -0.84375 0.625q-0.421875 0.203125 -0.859375 0.203125q-1.0 0 -1.546875 -1.015625l-0.625 3.015625l-0.9375 0zm1.859375 -4.390625q0 0.625 0.09375 0.859375q0.125 0.34375 0.421875 0.5625q0.296875 0.203125 0.6875 0.203125q0.8125 0 1.3125 -0.90625q0.5 -0.921875 0.5 -1.875q0 -0.703125 -0.34375 -1.078125q-0.328125 -0.390625 -0.828125 -0.390625q-0.359375 0 -0.671875 0.1875q-0.296875 0.1875 -0.5625 0.578125q-0.265625 0.375 -0.4375 0.921875q-0.171875 0.53125 -0.171875 0.9375z" fill-rule="nonzero"/><path fill="#000000" fill-opacity="0.0" d="m10.036765 46.24803l45.322834 0l0 22.330711l-45.322834 0z" fill-rule="evenodd"/><path fill="#000000" d="m19.552391 59.059635q0 -1.625 0.953125 -2.6875q0.796875 -0.875 2.0625 -0.875q1.0 0 1.609375 0.625q0.609375 0.625 0.609375 1.6875q0 0.953125 -0.390625 1.78125q-0.375 0.8125 -1.09375 1.25q-0.703125 0.4375 -1.484375 0.4375q-0.640625 0 -1.171875 -0.265625q-0.53125 -0.28125 -0.8125 -0.78125q-0.28125 -0.515625 -0.28125 -1.171875zm0.953125 -0.09375q0 0.78125 0.375 1.1875q0.375 0.390625 0.9375 0.390625q0.3125 0 0.609375 -0.109375q0.296875 -0.125 0.546875 -0.375q0.25 -0.25 0.421875 -0.5625q0.1875 -0.328125 0.296875 -0.703125q0.171875 -0.515625 0.171875 -0.984375q0 -0.75 -0.390625 -1.15625q-0.375 -0.421875 -0.9375 -0.421875q-0.453125 0 -0.8125 0.21875q-0.359375 0.203125 -0.65625 0.609375q-0.296875 0.40625 -0.4375 0.953125q-0.125 0.53125 -0.125 0.953125zm5.8639984 2.1875l-0.578125 -5.53125l0.90625 0l0.25 2.484375l0.09375 1.390625q0.015625 0.15625 0.03125 0.640625q0.15625 -0.53125 0.265625 -0.8125q0.109375 -0.296875 0.34375 -0.8125l1.328125 -2.890625l1.015625 0l0.1875 2.765625q0.046875 0.625 0.046875 1.6875q0.265625 -0.703125 0.859375 -1.9375l1.1875 -2.515625l0.9375 0l-2.703125 5.53125l-0.984375 0l-0.203125 -3.234375q-0.015625 -0.3125 -0.03125 -1.1875q-0.21875 0.5625 -0.5 1.203125l-1.46875 3.21875l-0.984375 0zm6.6487274 0l1.15625 -5.53125l0.84375 0l-0.203125 0.96875q0.5625 -0.5625 1.046875 -0.828125q0.484375 -0.265625 0.984375 -0.265625q0.671875 0 1.046875 0.375q0.390625 0.359375 0.390625 0.96875q0 0.3125 -0.140625 0.96875l-0.703125 3.34375l-0.9375 0l0.734375 -3.5q0.109375 -0.515625 0.109375 -0.75q0 -0.28125 -0.1875 -0.453125q-0.1875 -0.171875 -0.546875 -0.171875q-0.734375 0 -1.296875 0.53125q-0.5625 0.515625 -0.828125 1.765625l-0.53125 2.578125l-0.9375 0zm6.0046234 -1.890625l0.953125 -0.0625q0 0.40625 0.125 0.703125q0.125 0.28125 0.453125 0.46875q0.34375 0.171875 0.78125 0.171875q0.625 0 0.9375 -0.25q0.3125 -0.25 0.3125 -0.578125q0 -0.25 -0.1875 -0.46875q-0.1875 -0.21875 -0.9375 -0.53125q-0.75 -0.328125 -0.953125 -0.453125q-0.34375 -0.21875 -0.53125 -0.5q-0.171875 -0.296875 -0.171875 -0.671875q0 -0.65625 0.515625 -1.125q0.53125 -0.46875 1.453125 -0.46875q1.046875 0 1.59375 0.484375q0.546875 0.484375 0.5625 1.265625l-0.921875 0.0625q-0.015625 -0.5 -0.359375 -0.78125q-0.328125 -0.296875 -0.9375 -0.296875q-0.484375 0 -0.765625 0.234375q-0.265625 0.21875 -0.265625 0.46875q0 0.265625 0.234375 0.46875q0.15625 0.125 0.8125 0.40625q1.078125 0.46875 1.359375 0.734375q0.453125 0.4375 0.453125 1.0625q0 0.40625 -0.265625 0.8125q-0.25 0.390625 -0.765625 0.625q-0.515625 0.234375 -1.21875 0.234375q-0.953125 0 -1.625 -0.46875q-0.671875 -0.484375 -0.640625 -1.546875z" fill-rule="nonzero"/><path fill="#000000" fill-opacity="0.0" d="m138.05429 131.46657l79.086624 0l0 22.330704l-79.086624 0z" fill-rule="evenodd"/><path fill="#38761d" d="m156.49982 145.68442q-0.484375 0.421875 -0.9375 0.625q-0.453125 0.1875 -0.96875 0.1875q-0.765625 0 -1.234375 -0.453125q-0.46875 -0.453125 -0.46875 -1.15625q0 -0.453125 0.203125 -0.8125q0.21875 -0.359375 0.5625 -0.5625q0.359375 -0.21875 0.859375 -0.3125q0.3125 -0.0625 1.203125 -0.09375q0.890625 -0.046875 1.265625 -0.203125q0.109375 -0.375 0.109375 -0.640625q0 -0.328125 -0.234375 -0.515625q-0.328125 -0.25 -0.953125 -0.25q-0.59375 0 -0.96875 0.265625q-0.375 0.25 -0.546875 0.734375l-0.953125 -0.078125q0.28125 -0.828125 0.90625 -1.265625q0.640625 -0.4375 1.609375 -0.4375q1.015625 0 1.625 0.5q0.453125 0.359375 0.453125 0.9375q0 0.453125 -0.125 1.03125l-0.3125 1.375q-0.140625 0.65625 -0.140625 1.0625q0 0.265625 0.109375 0.75l-0.953125 0q-0.078125 -0.265625 -0.109375 -0.6875zm0.34375 -2.109375q-0.1875 0.078125 -0.421875 0.125q-0.21875 0.03125 -0.75 0.078125q-0.828125 0.078125 -1.171875 0.1875q-0.328125 0.109375 -0.5 0.359375q-0.171875 0.234375 -0.171875 0.53125q0 0.40625 0.265625 0.65625q0.28125 0.25 0.78125 0.25q0.46875 0 0.890625 -0.234375q0.4375 -0.25 0.6875 -0.6875q0.25 -0.453125 0.390625 -1.265625zm1.3952484 4.921875l1.59375 -7.65625l0.875 0l-0.15625 0.78125q0.46875 -0.515625 0.84375 -0.703125q0.390625 -0.203125 0.828125 -0.203125q0.78125 0 1.296875 0.578125q0.53125 0.578125 0.53125 1.65625q0 0.859375 -0.296875 1.578125q-0.28125 0.703125 -0.703125 1.140625q-0.40625 0.421875 -0.84375 0.625q-0.421875 0.203125 -0.859375 0.203125q-1.0 0 -1.546875 -1.015625l-0.625 3.015625l-0.9375 0zm1.859375 -4.390625q0 0.625 0.09375 0.859375q0.125 0.34375 0.421875 0.5625q0.296875 0.203125 0.6875 0.203125q0.8125 0 1.3125 -0.90625q0.5 -0.921875 0.5 -1.875q0 -0.703125 -0.34375 -1.078125q-0.328125 -0.390625 -0.828125 -0.390625q-0.359375 0 -0.671875 0.1875q-0.296875 0.1875 -0.5625 0.578125q-0.265625 0.375 -0.4375 0.921875q-0.171875 0.53125 -0.171875 0.9375zm4.0671234 4.390625l1.59375 -7.65625l0.875 0l-0.15625 0.78125q0.46875 -0.515625 0.84375 -0.703125q0.390625 -0.203125 0.828125 -0.203125q0.78125 0 1.296875 0.578125q0.53125 0.578125 0.53125 1.65625q0 0.859375 -0.296875 1.578125q-0.28125 0.703125 -0.703125 1.140625q-0.40625 0.421875 -0.84375 0.625q-0.421875 0.203125 -0.859375 0.203125q-1.0 0 -1.546875 -1.015625l-0.625 3.015625l-0.9375 0zm1.859375 -4.390625q0 0.625 0.09375 0.859375q0.125 0.34375 0.421875 0.5625q0.296875 0.203125 0.6875 0.203125q0.8125 0 1.3125 -0.90625q0.5 -0.921875 0.5 -1.875q0 -0.703125 -0.34375 -1.078125q-0.328125 -0.390625 -0.828125 -0.390625q-0.359375 0 -0.671875 0.1875q-0.296875 0.1875 -0.5625 0.578125q-0.265625 0.375 -0.4375 0.921875q-0.171875 0.53125 -0.171875 0.9375zm8.582748 0.390625l0.921875 0.09375q-0.203125 0.671875 -0.921875 1.296875q-0.703125 0.609375 -1.6875 0.609375q-0.609375 0 -1.125 -0.28125q-0.5 -0.28125 -0.78125 -0.828125q-0.265625 -0.546875 -0.265625 -1.234375q0 -0.90625 0.421875 -1.75q0.421875 -0.859375 1.078125 -1.265625q0.671875 -0.421875 1.453125 -0.421875q0.984375 0 1.578125 0.625q0.59375 0.609375 0.59375 1.671875q0 0.40625 -0.078125 0.828125l-4.0625 0q-0.03125 0.15625 -0.03125 0.296875q0 0.765625 0.359375 1.1875q0.359375 0.40625 0.875 0.40625q0.484375 0 0.953125 -0.3125q0.46875 -0.328125 0.71875 -0.921875zm-2.734375 -1.375l3.109375 0q0 -0.140625 0 -0.203125q0 -0.703125 -0.359375 -1.078125q-0.34375 -0.390625 -0.90625 -0.390625q-0.609375 0 -1.109375 0.421875q-0.484375 0.421875 -0.734375 1.25zm8.332748 2.5625q-0.484375 0.421875 -0.9375 0.625q-0.453125 0.1875 -0.96875 0.1875q-0.765625 0 -1.234375 -0.453125q-0.46875 -0.453125 -0.46875 -1.15625q0 -0.453125 0.203125 -0.8125q0.21875 -0.359375 0.5625 -0.5625q0.359375 -0.21875 0.859375 -0.3125q0.3125 -0.0625 1.203125 -0.09375q0.890625 -0.046875 1.265625 -0.203125q0.109375 -0.375 0.109375 -0.640625q0 -0.328125 -0.234375 -0.515625q-0.328125 -0.25 -0.953125 -0.25q-0.59375 0 -0.96875 0.265625q-0.375 0.25 -0.546875 0.734375l-0.953125 -0.078125q0.28125 -0.828125 0.90625 -1.265625q0.640625 -0.4375 1.609375 -0.4375q1.015625 0 1.625 0.5q0.453125 0.359375 0.453125 0.9375q0 0.453125 -0.125 1.03125l-0.3125 1.375q-0.140625 0.65625 -0.140625 1.0625q0 0.265625 0.109375 0.75l-0.953125 0q-0.078125 -0.265625 -0.109375 -0.6875zm0.34375 -2.109375q-0.1875 0.078125 -0.421875 0.125q-0.21875 0.03125 -0.75 0.078125q-0.828125 0.078125 -1.171875 0.1875q-0.328125 0.109375 -0.5 0.359375q-0.171875 0.234375 -0.171875 0.53125q0 0.40625 0.265625 0.65625q0.28125 0.25 0.78125 0.25q0.46875 0 0.890625 -0.234375q0.4375 -0.25 0.6875 -0.6875q0.25 -0.453125 0.390625 -1.265625zm1.8639984 2.796875l1.15625 -5.53125l0.828125 0l-0.234375 1.140625q0.421875 -0.640625 0.828125 -0.953125q0.40625 -0.3125 0.84375 -0.3125q0.28125 0 0.6875 0.203125l-0.390625 0.875q-0.234375 -0.171875 -0.53125 -0.171875q-0.5 0 -1.015625 0.5625q-0.515625 0.546875 -0.8125 1.96875l-0.46875 2.21875l-0.890625 0zm3.6267395 -1.890625l0.953125 -0.0625q0 0.40625 0.125 0.703125q0.125 0.28125 0.453125 0.46875q0.34375 0.171875 0.78125 0.171875q0.625 0 0.9375 -0.25q0.3125 -0.25 0.3125 -0.578125q0 -0.25 -0.1875 -0.46875q-0.1875 -0.21875 -0.9375 -0.53125q-0.75 -0.328125 -0.953125 -0.453125q-0.34375 -0.21875 -0.53125 -0.5q-0.171875 -0.296875 -0.171875 -0.671875q0 -0.65625 0.515625 -1.125q0.53125 -0.46875 1.453125 -0.46875q1.046875 0 1.59375 0.484375q0.546875 0.484375 0.5625 1.265625l-0.921875 0.0625q-0.015625 -0.5 -0.359375 -0.78125q-0.328125 -0.296875 -0.9375 -0.296875q-0.484375 0 -0.765625 0.234375q-0.265625 0.21875 -0.265625 0.46875q0 0.265625 0.234375 0.46875q0.15625 0.125 0.8125 0.40625q1.078125 0.46875 1.359375 0.734375q0.453125 0.4375 0.453125 1.0625q0 0.40625 -0.265625 0.8125q-0.25 0.390625 -0.765625 0.625q-0.515625 0.234375 -1.21875 0.234375q-0.953125 0 -1.625 -0.46875q-0.671875 -0.484375 -0.640625 -1.546875zm5.390625 -0.40625l0.1875 -0.9375l2.875 0l-0.1875 0.9375l-2.875 0zm4.7361145 -4.265625l0.234375 -1.0625l0.921875 0l-0.21875 1.0625l-0.9375 0zm-1.375 6.5625l1.15625 -5.53125l0.953125 0l-1.15625 5.53125l-0.953125 0zm2.4143524 0l1.15625 -5.53125l0.84375 0l-0.203125 0.96875q0.5625 -0.5625 1.046875 -0.828125q0.484375 -0.265625 0.984375 -0.265625q0.671875 0 1.046875 0.375q0.390625 0.359375 0.390625 0.96875q0 0.3125 -0.140625 0.96875l-0.703125 3.34375l-0.9375 0l0.734375 -3.5q0.109375 -0.515625 0.109375 -0.75q0 -0.28125 -0.1875 -0.453125q-0.1875 -0.171875 -0.546875 -0.171875q-0.734375 0 -1.296875 0.53125q-0.5625 0.515625 -0.828125 1.765625l-0.53125 2.578125l-0.9375 0z" fill-rule="nonzero"/><path fill="#000000" fill-opacity="0.0" d="m210.07607 94.41386l-83.81103 0" fill-rule="evenodd"/><path stroke="#595959" stroke-width="1.0" stroke-linejoin="round" stroke-linecap="butt" d="m206.28604 94.41386l-76.231 0" fill-rule="evenodd"/><path fill="#595959" stroke="#595959" stroke-width="1.0" stroke-linecap="butt" d="m209.57605 94.41386c0 0.9085083 -0.7364807 1.6450043 -1.644989 1.6450043c-0.9085083 0 -1.6450043 -0.736496 -1.6450043 -1.6450043c0 -0.9085083 0.736496 -1.6449966 1.6450043 -1.6449966c0.9085083 0 1.644989 0.73648834 1.644989 1.6449966z" fill-rule="nonzero"/><path fill="#595959" stroke="#595959" stroke-width="1.0" stroke-linecap="butt" d="m126.76504 94.41386c0 -0.9085083 0.736496 -1.6449966 1.6449966 -1.6449966c0.9085083 0 1.6450043 0.73648834 1.6450043 1.6449966c0 0.9085083 -0.736496 1.6450043 -1.6450043 1.6450043c-0.9085007 0 -1.6449966 -0.736496 -1.6449966 -1.6450043z" fill-rule="nonzero"/><path fill="#000000" fill-opacity="0.0" d="m122.14065 75.080055l92.91338 0l0 22.330704l-92.91338 0z" fill-rule="evenodd"/><path fill="#000000" d="m138.71396 87.96978l0.9375 0.09375q-0.359375 1.046875 -1.015625 1.546875q-0.640625 0.5 -1.46875 0.5q-0.90625 0 -1.46875 -0.578125q-0.5625 -0.59375 -0.5625 -1.640625q0 -0.890625 0.359375 -1.765625q0.359375 -0.875 1.03125 -1.328125q0.671875 -0.46875 1.53125 -0.46875q0.890625 0 1.40625 0.515625q0.515625 0.5 0.515625 1.328125l-0.921875 0.0625q0 -0.53125 -0.3125 -0.828125q-0.296875 -0.296875 -0.78125 -0.296875q-0.5625 0 -0.984375 0.359375q-0.40625 0.359375 -0.65625 1.09375q-0.234375 0.734375 -0.234375 1.40625q0 0.703125 0.3125 1.0625q0.3125 0.34375 0.78125 0.34375q0.453125 0 0.859375 -0.34375q0.421875 -0.34375 0.671875 -1.0625zm1.671875 -0.078125q0 -1.625 0.953125 -2.6875q0.796875 -0.875 2.0625 -0.875q1.0 0 1.609375 0.625q0.609375 0.625 0.609375 1.6875q0 0.953125 -0.390625 1.78125q-0.375 0.8125 -1.09375 1.25q-0.703125 0.4375 -1.484375 0.4375q-0.640625 0 -1.171875 -0.265625q-0.53125 -0.28125 -0.8125 -0.78125q-0.28125 -0.515625 -0.28125 -1.171875zm0.953125 -0.09375q0 0.78125 0.375 1.1875q0.375 0.390625 0.9375 0.390625q0.3125 0 0.609375 -0.109375q0.296875 -0.125 0.546875 -0.375q0.25 -0.25 0.421875 -0.5625q0.1875 -0.328125 0.296875 -0.703125q0.171875 -0.515625 0.171875 -0.984375q0 -0.75 -0.390625 -1.15625q-0.375 -0.421875 -0.9375 -0.421875q-0.453125 0 -0.8125 0.21875q-0.359375 0.203125 -0.65625 0.609375q-0.296875 0.40625 -0.4375 0.953125q-0.125 0.53125 -0.125 0.953125zm4.8014984 2.1875l1.15625 -5.53125l0.953125 0l-0.203125 0.921875q0.53125 -0.59375 0.9375 -0.8125q0.421875 -0.234375 0.90625 -0.234375q0.515625 0 0.859375 0.28125q0.34375 0.265625 0.453125 0.765625q0.421875 -0.53125 0.890625 -0.78125q0.46875 -0.265625 0.984375 -0.265625q0.6875 0 1.03125 0.328125q0.34375 0.328125 0.34375 0.921875q0 0.265625 -0.125 0.84375l-0.734375 3.5625l-0.9375 0l0.75 -3.65625q0.109375 -0.4375 0.109375 -0.640625q0 -0.265625 -0.171875 -0.421875q-0.171875 -0.15625 -0.484375 -0.15625q-0.421875 0 -0.859375 0.265625q-0.4375 0.25 -0.6875 0.671875q-0.234375 0.40625 -0.421875 1.265625l-0.5625 2.671875l-0.9375 0l0.78125 -3.734375q0.078125 -0.375 0.078125 -0.53125q0 -0.28125 -0.171875 -0.4375q-0.171875 -0.171875 -0.4375 -0.171875q-0.40625 0 -0.84375 0.265625q-0.4375 0.25 -0.71875 0.703125q-0.265625 0.453125 -0.4375 1.296875l-0.546875 2.609375l-0.953125 0zm8.4236145 2.125l1.59375 -7.65625l0.875 0l-0.15625 0.78125q0.46875 -0.515625 0.84375 -0.703125q0.390625 -0.203125 0.828125 -0.203125q0.78125 0 1.296875 0.578125q0.53125 0.578125 0.53125 1.65625q0 0.859375 -0.296875 1.578125q-0.28125 0.703125 -0.703125 1.140625q-0.40625 0.421875 -0.84375 0.625q-0.421875 0.203125 -0.859375 0.203125q-1.0 0 -1.546875 -1.015625l-0.625 3.015625l-0.9375 0zm1.859375 -4.390625q0 0.625 0.09375 0.859375q0.125 0.34375 0.421875 0.5625q0.296875 0.203125 0.6875 0.203125q0.8125 0 1.3125 -0.90625q0.5 -0.921875 0.5 -1.875q0 -0.703125 -0.34375 -1.078125q-0.328125 -0.390625 -0.828125 -0.390625q-0.359375 0 -0.671875 0.1875q-0.296875 0.1875 -0.5625 0.578125q-0.265625 0.375 -0.4375 0.921875q-0.171875 0.53125 -0.171875 0.9375zm8.582748 0.390625l0.921875 0.09375q-0.203125 0.671875 -0.921875 1.296875q-0.703125 0.609375 -1.6875 0.609375q-0.609375 0 -1.125 -0.28125q-0.5 -0.28125 -0.78125 -0.828125q-0.265625 -0.546875 -0.265625 -1.234375q0 -0.90625 0.421875 -1.75q0.421875 -0.859375 1.078125 -1.265625q0.671875 -0.421875 1.453125 -0.421875q0.984375 0 1.578125 0.625q0.59375 0.609375 0.59375 1.671875q0 0.40625 -0.078125 0.828125l-4.0625 0q-0.03125 0.15625 -0.03125 0.296875q0 0.765625 0.359375 1.1875q0.359375 0.40625 0.875 0.40625q0.484375 0 0.953125 -0.3125q0.46875 -0.328125 0.71875 -0.921875zm-2.734375 -1.375l3.109375 0q0 -0.140625 0 -0.203125q0 -0.703125 -0.359375 -1.078125q-0.34375 -0.390625 -0.90625 -0.390625q-0.609375 0 -1.109375 0.421875q-0.484375 0.421875 -0.734375 1.25zm6.8171234 2.484375l-0.15625 0.765625q-0.34375 0.09375 -0.65625 0.09375q-0.5625 0 -0.90625 -0.28125q-0.25 -0.203125 -0.25 -0.5625q0 -0.1875 0.140625 -0.84375l0.671875 -3.203125l-0.75 0l0.15625 -0.734375l0.75 0l0.28125 -1.359375l1.078125 -0.640625l-0.421875 2.0l0.921875 0l-0.15625 0.734375l-0.921875 0l-0.640625 3.046875q-0.109375 0.59375 -0.109375 0.703125q0 0.171875 0.09375 0.265625q0.09375 0.078125 0.3125 0.078125q0.3125 0 0.5625 -0.0625zm4.8043976 -1.109375l0.921875 0.09375q-0.203125 0.671875 -0.921875 1.296875q-0.703125 0.609375 -1.6875 0.609375q-0.609375 0 -1.125 -0.28125q-0.5 -0.28125 -0.78125 -0.828125q-0.265625 -0.546875 -0.265625 -1.234375q0 -0.90625 0.421875 -1.75q0.421875 -0.859375 1.078125 -1.265625q0.671875 -0.421875 1.453125 -0.421875q0.984375 0 1.578125 0.625q0.59375 0.609375 0.59375 1.671875q0 0.40625 -0.078125 0.828125l-4.0625 0q-0.03125 0.15625 -0.03125 0.296875q0 0.765625 0.359375 1.1875q0.359375 0.40625 0.875 0.40625q0.484375 0 0.953125 -0.3125q0.46875 -0.328125 0.71875 -0.921875zm-2.734375 -1.375l3.109375 0q0 -0.140625 0 -0.203125q0 -0.703125 -0.359375 -1.078125q-0.34375 -0.390625 -0.90625 -0.390625q-0.609375 0 -1.109375 0.421875q-0.484375 0.421875 -0.734375 1.25zm4.6921234 1.359375l0.953125 -0.0625q0 0.40625 0.125 0.703125q0.125 0.28125 0.453125 0.46875q0.34375 0.171875 0.78125 0.171875q0.625 0 0.9375 -0.25q0.3125 -0.25 0.3125 -0.578125q0 -0.25 -0.1875 -0.46875q-0.1875 -0.21875 -0.9375 -0.53125q-0.75 -0.328125 -0.953125 -0.453125q-0.34375 -0.21875 -0.53125 -0.5q-0.171875 -0.296875 -0.171875 -0.671875q0 -0.65625 0.515625 -1.125q0.53125 -0.46875 1.453125 -0.46875q1.046875 0 1.59375 0.484375q0.546875 0.484375 0.5625 1.265625l-0.921875 0.0625q-0.015625 -0.5 -0.359375 -0.78125q-0.328125 -0.296875 -0.9375 -0.296875q-0.484375 0 -0.765625 0.234375q-0.265625 0.21875 -0.265625 0.46875q0 0.265625 0.234375 0.46875q0.15625 0.125 0.8125 0.40625q1.078125 0.46875 1.359375 0.734375q0.453125 0.4375 0.453125 1.0625q0 0.40625 -0.265625 0.8125q-0.25 0.390625 -0.765625 0.625q-0.515625 0.234375 -1.21875 0.234375q-0.953125 0 -1.625 -0.46875q-0.671875 -0.484375 -0.640625 -1.546875zm9.257523 1.890625l-0.578125 -5.53125l0.90625 0l0.25 2.484375l0.09375 1.390625q0.015625 0.15625 0.03125 0.640625q0.15625 -0.53125 0.265625 -0.8125q0.10939026 -0.296875 0.34376526 -0.8125l1.328125 -2.890625l1.015625 0l0.1875 2.765625q0.046875 0.625 0.046875 1.6875q0.265625 -0.703125 0.859375 -1.9375l1.1875 -2.515625l0.9375 0l-2.703125 5.53125l-0.984375 0l-0.203125 -3.234375q-0.015625 -0.3125 -0.03125 -1.1875q-0.21875 0.5625 -0.5 1.203125l-1.4687653 3.21875l-0.984375 0zm7.9768677 -6.5625l0.234375 -1.0625l0.921875 0l-0.21875 1.0625l-0.9375 0zm-1.375 6.5625l1.15625 -5.53125l0.953125 0l-1.15625 5.53125l-0.953125 0zm4.6174774 -0.765625l-0.15625 0.765625q-0.34375 0.09375 -0.65625 0.09375q-0.5625 0 -0.90625 -0.28125q-0.25 -0.203125 -0.25 -0.5625q0 -0.1875 0.140625 -0.84375l0.671875 -3.203125l-0.75 0l0.15625 -0.734375l0.75 0l0.28125 -1.359375l1.078125 -0.640625l-0.421875 2.0l0.921875 0l-0.15625 0.734375l-0.921875 0l-0.640625 3.046875q-0.109375 0.59375 -0.109375 0.703125q0 0.171875 0.09375 0.265625q0.09375 0.078125 0.3125 0.078125q0.3125 0 0.5625 -0.0625zm0.7575226 0.765625l1.59375 -7.625l0.9375 0l-0.609375 2.921875q0.515625 -0.5 0.96875 -0.71875q0.453125 -0.234375 0.9375 -0.234375q0.6875 0 1.0625 0.375q0.390625 0.359375 0.390625 0.953125q0 0.28125 -0.171875 1.0625l-0.6875 3.265625l-0.9375 0l0.703125 -3.34375q0.15625 -0.734375 0.15625 -0.921875q0 -0.265625 -0.1875 -0.4375q-0.1875 -0.171875 -0.546875 -0.171875q-0.515625 0 -0.984375 0.265625q-0.453125 0.265625 -0.71875 0.734375q-0.25 0.46875 -0.46875 1.5l-0.5 2.375l-0.9375 0z" fill-rule="nonzero"/><path fill="#000000" fill-opacity="0.0" d="m16.383202 29.55643l0.40944862 148.31496" fill-rule="evenodd"/><path stroke="#000000" stroke-width="1.0" stroke-linejoin="round" stroke-linecap="butt" d="m16.383202 29.55643l0.40944862 148.31496" fill-rule="evenodd"/><path fill="#000000" fill-opacity="0.0" d="m16.796684 136.8233l25.889763 -0.1889801" fill-rule="evenodd"/><path stroke="#595959" stroke-width="1.0" stroke-linejoin="round" stroke-linecap="butt" d="m16.796684 136.8233l19.889923 -0.14517212" fill-rule="evenodd"/><path fill="#595959" stroke="#595959" stroke-width="1.0" stroke-linecap="butt" d="m36.69866 138.32982l4.525921 -1.6848145l-4.5500336 -1.6185608z" fill-rule="evenodd"/><path fill="#000000" fill-opacity="0.0" d="m16.796684 96.22751l25.889763 -0.1889801" fill-rule="evenodd"/><path stroke="#595959" stroke-width="1.0" stroke-linejoin="round" stroke-linecap="butt" d="m16.796684 96.22751l19.889923 -0.14517975" fill-rule="evenodd"/><path fill="#595959" stroke="#595959" stroke-width="1.0" stroke-linecap="butt" d="m36.69866 97.73401l4.525921 -1.6848068l-4.5500336 -1.6185684z" fill-rule="evenodd"/><path fill="#000000" fill-opacity="0.0" d="m318.04855 29.55643l0 216.44095" fill-rule="evenodd"/><path stroke="#000000" stroke-width="1.0" stroke-linejoin="round" stroke-linecap="butt" d="m318.04855 29.55643l0 216.44095" fill-rule="evenodd"/><path fill="#000000" fill-opacity="0.0" d="m318.21036 94.50966l-25.88977 -0.1889801" fill-rule="evenodd"/><path stroke="#595959" stroke-width="1.0" stroke-linejoin="round" stroke-linecap="butt" d="m318.21036 94.50966l-19.889954 -0.14517975" fill-rule="evenodd"/><path fill="#595959" stroke="#595959" stroke-width="1.0" stroke-linecap="butt" d="m298.3325 92.71278l-4.550049 1.6185684l4.5259094 1.6848145z" fill-rule="evenodd"/><path fill="#000000" fill-opacity="0.0" d="m318.2018 200.40599l-30.456696 -0.09449768" fill-rule="evenodd"/><path stroke="#595959" stroke-width="1.0" stroke-linejoin="round" stroke-linecap="butt" d="m318.20184 200.40599l-24.456726 -0.07588196" fill-rule="evenodd"/><path fill="#595959" stroke="#595959" stroke-width="1.0" stroke-linecap="butt" d="m293.75024 198.67839l-4.543213 1.6376343l4.532959 1.665802z" fill-rule="evenodd"/><path fill="#000000" fill-opacity="0.0" d="m278.49084 46.249344l45.322815 0l0 22.330711l-45.322815 0z" fill-rule="evenodd"/><path fill="#000000" d="m290.45258 59.060947q0 -1.625 0.953125 -2.6875q0.796875 -0.875 2.0625 -0.875q1.0 0 1.609375 0.625q0.609375 0.625 0.609375 1.6875q0 0.953125 -0.390625 1.78125q-0.375 0.8125 -1.09375 1.25q-0.703125 0.4375 -1.484375 0.4375q-0.640625 0 -1.171875 -0.265625q-0.53125 -0.28125 -0.8125 -0.78125q-0.28125 -0.515625 -0.28125 -1.171875zm0.953125 -0.09375q0 0.78125 0.375 1.1875q0.375 0.390625 0.9375 0.390625q0.3125 0 0.609375 -0.109375q0.296875 -0.125 0.546875 -0.375q0.25 -0.25 0.421875 -0.5625q0.1875 -0.328125 0.296875 -0.703125q0.171875 -0.515625 0.171875 -0.984375q0 -0.75 -0.390625 -1.15625q-0.375 -0.421875 -0.9375 -0.421875q-0.453125 0 -0.8125 0.21875q-0.359375 0.203125 -0.65625 0.609375q-0.296875 0.40625 -0.4375 0.953125q-0.125 0.53125 -0.125 0.953125zm5.863983 2.1875l-0.578125 -5.53125l0.90625 0l0.25 2.484375l0.09375 1.390625q0.015625 0.15625 0.03125 0.640625q0.15625 -0.53125 0.265625 -0.8125q0.109375 -0.296875 0.34375 -0.8125l1.328125 -2.890625l1.015625 0l0.1875 2.765625q0.046875 0.625 0.046875 1.6875q0.265625 -0.703125 0.859375 -1.9375l1.1875 -2.515625l0.9375 0l-2.703125 5.53125l-0.984375 0l-0.203125 -3.234375q-0.015625 -0.3125 -0.03125 -1.1875q-0.21875 0.5625 -0.5 1.203125l-1.46875 3.21875l-0.984375 0zm6.6487427 0l1.15625 -5.53125l0.84375 0l-0.203125 0.96875q0.5625 -0.5625 1.046875 -0.828125q0.484375 -0.265625 0.984375 -0.265625q0.671875 0 1.046875 0.375q0.390625 0.359375 0.390625 0.96875q0 0.3125 -0.140625 0.96875l-0.703125 3.34375l-0.9375 0l0.734375 -3.5q0.109375 -0.515625 0.109375 -0.75q0 -0.28125 -0.1875 -0.453125q-0.1875 -0.171875 -0.546875 -0.171875q-0.734375 0 -1.296875 0.53125q-0.5625 0.515625 -0.828125 1.765625l-0.53125 2.578125l-0.9375 0zm6.004608 -1.890625l0.953125 -0.0625q0 0.40625 0.125 0.703125q0.125 0.28125 0.453125 0.46875q0.34375 0.171875 0.78125 0.171875q0.625 0 0.9375 -0.25q0.3125 -0.25 0.3125 -0.578125q0 -0.25 -0.1875 -0.46875q-0.1875 -0.21875 -0.9375 -0.53125q-0.75 -0.328125 -0.953125 -0.453125q-0.34375 -0.21875 -0.53125 -0.5q-0.171875 -0.296875 -0.171875 -0.671875q0 -0.65625 0.515625 -1.125q0.53125 -0.46875 1.453125 -0.46875q1.046875 0 1.59375 0.484375q0.546875 0.484375 0.5625 1.265625l-0.921875 0.0625q-0.015625 -0.5 -0.359375 -0.78125q-0.328125 -0.296875 -0.9375 -0.296875q-0.484375 0 -0.765625 0.234375q-0.265625 0.21875 -0.265625 0.46875q0 0.265625 0.234375 0.46875q0.15625 0.125 0.8125 0.40625q1.078125 0.46875 1.359375 0.734375q0.453125 0.4375 0.453125 1.0625q0 0.40625 -0.265625 0.8125q-0.25 0.390625 -0.765625 0.625q-0.515625 0.234375 -1.21875 0.234375q-0.953125 0 -1.625 -0.46875q-0.671875 -0.484375 -0.640625 -1.546875z" fill-rule="nonzero"/><path fill="#000000" fill-opacity="0.0" d="m318.21036 244.61333l-25.88977 -0.18896484" fill-rule="evenodd"/><path stroke="#595959" stroke-width="1.0" stroke-linejoin="round" stroke-linecap="butt" d="m318.21036 244.61333l-19.889954 -0.14517212" fill-rule="evenodd"/><path fill="#595959" stroke="#595959" stroke-width="1.0" stroke-linecap="butt" d="m298.3325 242.81647l-4.550049 1.6185608l4.5259094 1.6848145z" fill-rule="evenodd"/><path fill="#000000" fill-opacity="0.0" d="m214.26903 124.91601l60.000015 0l0 20.850395l-60.000015 0z" fill-rule="evenodd"/><path fill="#000000" d="m229.7267 138.2037q0 -0.15625 -0.078125 -0.28125q-0.0625 -0.125 -0.265625 -0.234375q-0.1875 -0.109375 -0.515625 -0.1875q-0.3125 -0.09375 -0.796875 -0.1875q-0.609375 -0.125 -1.125 -0.3125q-0.515625 -0.1875 -0.875 -0.453125q-0.359375 -0.265625 -0.578125 -0.609375q-0.203125 -0.34375 -0.203125 -0.78125q0 -0.4375 0.203125 -0.828125q0.21875 -0.40625 0.609375 -0.703125q0.390625 -0.296875 0.953125 -0.46875q0.5625 -0.1875 1.265625 -0.1875q0.734375 0 1.3125 0.171875q0.59375 0.171875 1.0 0.484375q0.40625 0.296875 0.609375 0.71875q0.21875 0.40625 0.21875 0.890625l-1.8125 0q0 -0.40625 -0.328125 -0.671875q-0.328125 -0.28125 -1.0 -0.28125q-0.640625 0 -0.96875 0.234375q-0.3125 0.21875 -0.3125 0.546875q0 0.15625 0.0625 0.296875q0.0625 0.125 0.234375 0.234375q0.171875 0.109375 0.453125 0.203125q0.28125 0.078125 0.734375 0.140625q0.625 0.109375 1.171875 0.28125q0.546875 0.15625 0.9375 0.421875q0.40625 0.25 0.625 0.625q0.234375 0.359375 0.234375 0.859375q0 0.46875 -0.234375 0.875q-0.21875 0.390625 -0.640625 0.671875q-0.40625 0.28125 -1.0 0.453125q-0.578125 0.15625 -1.296875 0.15625q-0.796875 0 -1.40625 -0.203125q-0.609375 -0.21875 -1.015625 -0.546875q-0.40625 -0.34375 -0.625 -0.765625q-0.203125 -0.421875 -0.203125 -0.859375l1.71875 0q0.015625 0.28125 0.15625 0.5q0.140625 0.203125 0.34375 0.328125q0.21875 0.125 0.5 0.1875q0.28125 0.046875 0.578125 0.046875q0.65625 0 1.0 -0.203125q0.359375 -0.21875 0.359375 -0.5625zm6.779434 -6.828125l0 1.71875l2.625 0l0 1.34375l-2.625 0l0 3.015625q0 0.390625 0.078125 0.65625q0.09375 0.25 0.25 0.40625q0.171875 0.140625 0.40625 0.21875q0.234375 0.0625 0.515625 0.0625q0.203125 0 0.421875 -0.015625q0.21875 -0.03125 0.421875 -0.046875q0.203125 -0.03125 0.375 -0.0625q0.171875 -0.046875 0.296875 -0.078125l0.171875 1.25q-0.1875 0.109375 -0.453125 0.1875q-0.25 0.078125 -0.53125 0.125q-0.28125 0.0625 -0.59375 0.09375q-0.3125 0.03125 -0.609375 0.03125q-0.578125 0 -1.046875 -0.15625q-0.46875 -0.15625 -0.8125 -0.46875q-0.328125 -0.328125 -0.515625 -0.828125q-0.1875 -0.5 -0.1875 -1.1875l0 -3.203125l-1.609375 0l0 -1.34375l1.609375 0l0 -1.71875l1.8125 0zm4.435684 5.1875q0 -0.78125 0.21875 -1.421875q0.21875 -0.65625 0.640625 -1.140625q0.4375 -0.484375 1.046875 -0.75q0.625 -0.28125 1.40625 -0.28125q0.796875 0 1.40625 0.28125q0.625 0.265625 1.046875 0.75q0.4375 0.484375 0.65625 1.140625q0.21875 0.640625 0.21875 1.421875l0 0.125q0 0.78125 -0.21875 1.4375q-0.21875 0.65625 -0.640625 1.140625q-0.421875 0.46875 -1.046875 0.75q-0.609375 0.265625 -1.40625 0.265625q-0.796875 0 -1.421875 -0.265625q-0.609375 -0.28125 -1.046875 -0.75q-0.421875 -0.484375 -0.640625 -1.140625q-0.21875 -0.65625 -0.21875 -1.4375l0 -0.125zm1.8125 0.125q0 0.453125 0.078125 0.84375q0.09375 0.375 0.265625 0.671875q0.1875 0.28125 0.46875 0.453125q0.296875 0.171875 0.703125 0.171875q0.40625 0 0.6875 -0.171875q0.28125 -0.171875 0.453125 -0.453125q0.1875 -0.296875 0.265625 -0.671875q0.09375 -0.390625 0.09375 -0.84375l0 -0.125q0 -0.4375 -0.09375 -0.8125q-0.078125 -0.390625 -0.265625 -0.6875q-0.171875 -0.296875 -0.453125 -0.453125q-0.28125 -0.171875 -0.703125 -0.171875q-0.40625 0 -0.6875 0.171875q-0.28125 0.15625 -0.46875 0.453125q-0.171875 0.296875 -0.265625 0.6875q-0.078125 0.375 -0.078125 0.8125l0 0.125zm11.482559 -3.71875q0.421875 0 0.765625 0.0625q0.34375 0.046875 0.5625 0.109375l-0.265625 1.8125q-0.359375 -0.09375 -0.734375 -0.125q-0.375 -0.046875 -0.71875 -0.046875q-0.75 0 -1.21875 0.296875q-0.453125 0.28125 -0.6875 0.828125l0 4.234375l-1.796875 0l0 -7.046875l1.671875 0l0.09375 1.15625q0.421875 -0.59375 1.015625 -0.9375q0.609375 -0.34375 1.3125 -0.34375zm5.951294 4.21875l0.203125 0.75l1.875 -4.84375l2.0 0l-3.578125 8.09375q-0.109375 0.28125 -0.296875 0.59375q-0.1875 0.3125 -0.46875 0.578125q-0.28125 0.265625 -0.6875 0.4375q-0.390625 0.1875 -0.9375 0.1875q-0.125 0 -0.25 -0.015625q-0.109375 0 -0.21875 -0.015625q-0.09375 -0.015625 -0.203125 -0.046875q-0.09375 -0.015625 -0.203125 -0.046875l0.21875 -1.390625q0.109375 0 0.28125 0.015625q0.171875 0.015625 0.28125 0.015625q0.203125 0 0.375 -0.140625q0.171875 -0.125 0.28125 -0.28125q0.125 -0.15625 0.1875 -0.296875q0.078125 -0.125 0.109375 -0.125l0.421875 -0.8125l-2.96875 -6.75l1.96875 0l1.609375 4.09375z" fill-rule="nonzero"/></g></svg>